<svg width="38" height="28" viewBox="0 0 38 28" fill="none" xmlns="http://www.w3.org/2000/svg">
<g id="Group">
<path id="Vector" d="M23.9697 0.651291V1.30258H25.3017H26.6298L26.6796 1.40602C26.7026 1.46349 26.7255 1.53628 26.7255 1.56693C26.7255 1.59758 26.7408 1.6742 26.7638 1.73933C26.7829 1.80446 26.8442 2.01134 26.8978 2.20289C26.9552 2.39062 27.0126 2.60133 27.0355 2.66646C27.0547 2.73159 27.07 2.8197 27.07 2.86568C27.07 2.91165 27.0891 2.94996 27.1083 2.94996C27.1312 2.94996 27.1465 3.00743 27.1465 3.08022C27.1465 3.15301 27.1657 3.2258 27.1848 3.2373C27.2078 3.24879 27.2231 3.32158 27.2231 3.39437C27.2231 3.46716 27.2422 3.52463 27.2614 3.52463C27.2843 3.52463 27.2996 3.59359 27.2996 3.67788C27.2996 3.76216 27.3188 3.83112 27.3379 3.83112C27.3609 3.83112 27.3762 3.88092 27.3762 3.94605C27.3762 4.00735 27.3953 4.06099 27.4145 4.06099C27.4374 4.06099 27.4527 4.12995 27.4527 4.21423C27.4527 4.29852 27.4719 4.36748 27.491 4.36748C27.514 4.36748 27.5293 4.42494 27.5293 4.49773C27.5293 4.57053 27.5484 4.64332 27.5676 4.65481C27.5905 4.6663 27.6059 4.7391 27.6059 4.81189C27.6059 4.88468 27.625 4.94214 27.6441 4.94214C27.6671 4.94214 27.6824 4.99961 27.6824 5.0724C27.6824 5.1452 27.6977 5.21416 27.7168 5.22565C27.736 5.23714 27.759 5.30227 27.7704 5.37123C27.7819 5.44019 27.8087 5.55895 27.8278 5.63175C27.8508 5.70454 27.9159 5.93057 27.9695 6.12979C28.0231 6.32901 28.0881 6.55505 28.1073 6.62784C28.1302 6.70063 28.1608 6.82323 28.1762 6.89985C28.1915 6.97264 28.2183 7.05692 28.2336 7.07991C28.2795 7.1527 28.157 7.24082 28.0116 7.24082C27.9388 7.24082 27.8699 7.25614 27.8585 7.2753C27.847 7.29445 27.7819 7.31744 27.713 7.32893C27.6441 7.34043 27.5102 7.37107 27.4145 7.39406C27.3188 7.41705 27.181 7.45153 27.1083 7.47068C27.0355 7.48601 26.8289 7.53964 26.649 7.58179C26.4691 7.62776 26.2815 7.68523 26.2279 7.71204C26.094 7.77717 25.96 7.91509 25.96 7.98788C25.96 8.01853 25.9447 8.04535 25.9217 8.04535C25.872 8.04535 25.872 8.40548 25.9217 8.55872C25.9409 8.62385 26.0098 8.83456 26.0748 9.02612C26.1361 9.21767 26.1897 9.41306 26.1897 9.45904C26.1897 9.50118 26.2088 9.53949 26.2279 9.53949C26.2509 9.53949 26.2662 9.58929 26.2662 9.65442C26.2662 9.71572 26.2854 9.76936 26.3045 9.76936C26.3619 9.76936 26.3504 9.91877 26.2892 9.9839C26.2586 10.0145 26.1897 10.0375 26.1361 10.0375C26.0825 10.0375 26.0366 10.0529 26.0366 10.0758C26.0366 10.095 25.9753 10.1142 25.9026 10.1142C25.8299 10.1142 25.7686 10.1295 25.7686 10.1525C25.7686 10.1716 25.7074 10.1908 25.6347 10.1908C25.562 10.1908 25.5007 10.2061 25.5007 10.2291C25.5007 10.2482 25.4395 10.2674 25.3667 10.2674C25.294 10.2674 25.2328 10.2827 25.2328 10.3057C25.2328 10.3249 25.183 10.344 25.118 10.344C25.0567 10.344 25.0031 10.3593 25.0031 10.3823C25.0031 10.4015 24.9495 10.4206 24.8883 10.4206C24.8232 10.4206 24.7429 10.436 24.7046 10.4551C24.5936 10.5126 24.3716 10.5739 24.2836 10.5739C24.2376 10.5739 24.1994 10.5892 24.1994 10.6122C24.1994 10.6314 24.1687 10.6505 24.1343 10.6505C24.0998 10.6505 23.8702 10.7118 23.6291 10.7884C23.3841 10.8612 23.1162 10.9417 23.032 10.9647C22.9478 10.9877 22.8635 11.0221 22.8406 11.0413C22.8214 11.0566 22.7564 11.0719 22.699 11.0719C22.6416 11.0719 22.5918 11.0873 22.5918 11.1102C22.5918 11.1294 22.5229 11.1486 22.4387 11.1486C22.3545 11.1486 22.2856 11.1639 22.2856 11.1869C22.2856 11.206 22.2358 11.2252 22.1708 11.2252C22.1095 11.2252 22.0559 11.2405 22.0559 11.2635C22.0559 11.2826 22.0062 11.3018 21.9411 11.3018C21.8799 11.3018 21.8263 11.3171 21.8263 11.3401C21.8263 11.3593 21.7574 11.3784 21.6732 11.3784C21.589 11.3784 21.5201 11.3938 21.5201 11.4167C21.5201 11.4359 21.4703 11.455 21.4091 11.455C21.344 11.455 21.2828 11.4704 21.2713 11.4934C21.2598 11.5125 21.1986 11.5317 21.1335 11.5317C21.0723 11.5317 21.0225 11.547 21.0225 11.57C21.0225 11.5891 20.9842 11.6083 20.9383 11.6083C20.8924 11.6083 20.7508 11.6428 20.6244 11.6849C20.4943 11.7271 20.3412 11.7769 20.2761 11.796C19.8513 11.9186 19.4609 12.0412 19.4073 12.0719C19.369 12.091 19.2963 12.1063 19.2465 12.1063C19.193 12.1063 19.1394 12.1217 19.1279 12.1447C19.1164 12.1638 19.0552 12.183 18.9901 12.183C18.9289 12.183 18.8791 12.1983 18.8791 12.2213C18.8791 12.2404 18.8217 12.2596 18.749 12.2596C18.6762 12.2596 18.6035 12.2749 18.592 12.2979C18.5805 12.3171 18.5193 12.3362 18.4542 12.3362C18.393 12.3362 18.3432 12.3515 18.3432 12.3745C18.3432 12.3937 18.282 12.4128 18.2093 12.4128C18.1366 12.4128 18.0753 12.4282 18.0753 12.4511C18.0753 12.4703 18.0256 12.4895 17.9605 12.4895C17.8992 12.4895 17.8457 12.5048 17.8457 12.5278C17.8457 12.5469 17.7882 12.5661 17.7155 12.5661C17.6428 12.5661 17.5701 12.5814 17.5586 12.6044C17.5471 12.6235 17.4935 12.6427 17.4438 12.6427C17.394 12.6427 17.3404 12.658 17.3289 12.681C17.3175 12.7002 17.2562 12.7193 17.195 12.7193C17.1337 12.7193 17.0725 12.7346 17.061 12.7576C17.0495 12.7768 16.996 12.7959 16.9462 12.7959C16.8964 12.7959 16.7969 12.8189 16.728 12.8496C16.5826 12.9109 16.1998 13.0296 15.9051 13.1063C15.7941 13.1331 15.7022 13.1676 15.7022 13.1867C15.7022 13.202 15.6448 13.2174 15.5721 13.2174C15.4994 13.2174 15.4267 13.2327 15.4152 13.2557C15.4037 13.2748 15.3425 13.294 15.2774 13.294C15.2162 13.294 15.1664 13.3093 15.1664 13.3323C15.1664 13.3515 15.1358 13.3706 15.0975 13.3706C15.0516 13.3706 14.9827 13.2825 14.887 13.0909C14.8066 12.9415 14.7454 12.7921 14.7454 12.7653C14.7454 12.7423 14.7301 12.7193 14.7071 12.7193C14.688 12.7193 14.6688 12.6848 14.6688 12.6427C14.6688 12.6006 14.6535 12.5661 14.6305 12.5661C14.6114 12.5661 14.5923 12.5316 14.5923 12.4895C14.5923 12.4282 14.5655 12.4128 14.4774 12.4128C14.4162 12.4128 14.3626 12.4282 14.3626 12.4511C14.3626 12.4703 14.3282 12.4895 14.2861 12.4895C14.244 12.4895 14.2095 12.5048 14.2095 12.5278C14.2095 12.5469 14.1751 12.5661 14.133 12.5661C14.0909 12.5661 14.0564 12.5814 14.0564 12.6044C14.0564 12.6235 14.0334 12.6427 14.0105 12.6427C13.9837 12.6427 13.8344 12.7078 13.6851 12.7844C13.5014 12.8802 13.4057 12.953 13.4057 12.9952C13.4057 13.0335 13.4249 13.0641 13.444 13.0641C13.467 13.0641 13.4823 13.0986 13.4823 13.1407C13.4823 13.1829 13.5014 13.2174 13.5206 13.2174C13.5435 13.2174 13.5588 13.2518 13.5588 13.294C13.5588 13.3361 13.578 13.3706 13.5971 13.3706C13.6201 13.3706 13.6354 13.4051 13.6354 13.4472C13.6354 13.4894 13.6545 13.5239 13.6737 13.5239C13.6966 13.5239 13.7119 13.5583 13.7119 13.6005C13.7119 13.6426 13.7272 13.6771 13.7426 13.6771C13.7617 13.6771 13.7961 13.7231 13.8229 13.7767C13.8612 13.8648 13.8574 13.884 13.7847 13.9376C13.7387 13.9683 13.6124 14.087 13.4976 14.1981C13.3866 14.3131 13.2756 14.405 13.2526 14.405C13.2335 14.405 13.2144 14.4203 13.2144 14.4433C13.2144 14.4625 13.1952 14.4816 13.1761 14.4816C13.1531 14.4816 13.0766 14.5391 13.0038 14.6042C12.9349 14.6732 12.778 14.8149 12.6594 14.9222C12.5407 15.0257 12.4029 15.1559 12.3493 15.2057C12.2958 15.2555 12.2383 15.2823 12.223 15.2632C12.2115 15.244 12.1159 15.1597 12.0087 15.0755C11.9053 14.9912 11.7676 14.8762 11.7063 14.8149C11.6451 14.7575 11.5762 14.7115 11.5532 14.7115C11.5302 14.7115 11.4843 14.677 11.4537 14.6349C11.4231 14.5927 11.3695 14.5583 11.3312 14.5583C11.2929 14.5583 11.2623 14.5391 11.2623 14.5199C11.2623 14.497 11.2355 14.4816 11.2049 14.4816C11.1743 14.4816 11.1475 14.4625 11.1475 14.4433C11.1475 14.4203 11.1207 14.405 11.0901 14.405C11.0595 14.405 11.0327 14.3935 11.0327 14.3744C11.0327 14.359 10.9753 14.3246 10.9102 14.2939C10.8413 14.2633 10.7762 14.2288 10.7647 14.2173C10.7303 14.179 10.5772 14.0985 10.5313 14.0985C10.5083 14.0985 10.4662 14.0717 10.4356 14.0411C10.4011 14.0104 10.3437 13.9836 10.3016 13.9836C10.2633 13.9836 10.2289 13.9683 10.2289 13.9529C10.2289 13.9338 10.1447 13.8955 10.0375 13.8687C9.93034 13.8418 9.84614 13.8035 9.84614 13.7844C9.84614 13.769 9.81552 13.7537 9.78107 13.7537C9.70834 13.7537 9.47869 13.6848 9.37918 13.635C9.3409 13.6158 9.26052 13.6005 9.19546 13.6005C9.13422 13.6005 9.08063 13.5813 9.08063 13.5622C9.08063 13.5392 8.99643 13.5239 8.88925 13.5239C8.78591 13.5239 8.69788 13.5047 8.69788 13.4855C8.69788 13.4626 8.58305 13.4472 8.42995 13.4472C8.27685 13.4472 8.16203 13.4319 8.16203 13.4089C8.16203 13.3859 7.8941 13.3706 7.4348 13.3706C6.97549 13.3706 6.70757 13.3859 6.70757 13.4089C6.70757 13.4319 6.59274 13.4472 6.43964 13.4472C6.28654 13.4472 6.17171 13.4626 6.17171 13.4855C6.17171 13.5047 6.08751 13.5239 5.98034 13.5239C5.87699 13.5239 5.78896 13.5392 5.78896 13.5622C5.78896 13.5813 5.73537 13.6005 5.67413 13.6005C5.60907 13.6005 5.52869 13.6158 5.49041 13.635C5.45597 13.6541 5.34879 13.6924 5.25311 13.7192C5.02728 13.7805 4.81294 13.8725 4.39191 14.0832C4.20436 14.1751 4.0283 14.2518 4.00916 14.2518C3.9862 14.2518 3.94409 14.2862 3.91347 14.3284C3.88285 14.3705 3.82927 14.405 3.79099 14.405C3.75272 14.405 3.7221 14.4203 3.7221 14.4433C3.7221 14.4625 3.6953 14.4816 3.66468 14.4816C3.63406 14.4816 3.60727 14.497 3.60727 14.5199C3.60727 14.5391 3.58048 14.5583 3.54986 14.5583C3.51924 14.5583 3.49245 14.5736 3.49245 14.5966C3.49245 14.6157 3.46565 14.6349 3.43503 14.6349C3.40441 14.6349 3.37762 14.6502 3.37762 14.6732C3.37762 14.6923 3.35083 14.7115 3.32021 14.7115C3.28959 14.7115 3.26279 14.7268 3.26279 14.7498C3.26279 14.769 3.24748 14.7881 3.22452 14.7881C3.12883 14.7881 1.88488 16.0332 1.88488 16.129C1.88488 16.152 1.86957 16.1673 1.84661 16.1673C1.82747 16.1673 1.80833 16.1941 1.80833 16.2248C1.80833 16.2554 1.79302 16.2823 1.77006 16.2823C1.75092 16.2823 1.73178 16.3014 1.73178 16.3206C1.73178 16.3436 1.69734 16.3972 1.65523 16.4432C1.61313 16.4891 1.57868 16.5504 1.57868 16.5773C1.57868 16.6041 1.56337 16.6271 1.54424 16.6271C1.5251 16.6271 1.49065 16.6769 1.46386 16.742C1.43706 16.8033 1.40262 16.8569 1.38348 16.8569C1.36434 16.8569 1.34903 16.8799 1.34903 16.9106C1.34903 16.9412 1.28779 17.0715 1.21124 17.2056C1.13852 17.3396 1.05814 17.512 1.03135 17.5925C1.00455 17.673 0.973934 17.7381 0.958624 17.7381C0.939486 17.7381 0.928004 17.7726 0.928004 17.8109C0.928004 17.853 0.912694 17.899 0.889728 17.9105C0.870591 17.922 0.851453 17.9756 0.851453 18.0254C0.851453 18.0752 0.832316 18.1289 0.813178 18.1404C0.790213 18.1518 0.774903 18.2131 0.774903 18.2783C0.774903 18.3396 0.759593 18.3894 0.736627 18.3894C0.71749 18.3894 0.698352 18.4583 0.698352 18.5426C0.698352 18.6269 0.683042 18.6959 0.660077 18.6959C0.640939 18.6959 0.621802 18.761 0.621802 18.8414C0.621802 18.9219 0.606492 19.0024 0.587354 19.0215C0.568216 19.0445 0.541424 19.1709 0.526114 19.3088C0.484011 19.7188 0.495493 21.1478 0.541424 21.4351C0.564389 21.5807 0.595009 21.7761 0.606492 21.8642C0.617974 21.9561 0.644767 22.0289 0.663904 22.0289C0.683042 22.0289 0.698352 22.0979 0.698352 22.1822C0.698352 22.2665 0.71749 22.3354 0.736627 22.3354C0.759593 22.3354 0.774903 22.3852 0.774903 22.4504C0.774903 22.5117 0.79404 22.5653 0.813178 22.5653C0.836143 22.5653 0.851453 22.6151 0.851453 22.6764C0.851453 22.7415 0.870591 22.8028 0.889728 22.8143C0.912694 22.8258 0.928004 22.8718 0.928004 22.9139C0.928004 22.9522 0.947141 22.9867 0.966279 22.9867C0.989244 22.9867 1.00455 23.0135 1.00455 23.0518C1.00455 23.1246 1.47917 24.0441 1.55955 24.1207C1.58634 24.1514 1.62461 24.2088 1.6361 24.251C1.64758 24.2931 1.6782 24.3276 1.69734 24.3276C1.71647 24.3276 1.73178 24.3544 1.73178 24.3851C1.73178 24.4157 1.75092 24.4425 1.77006 24.4425C1.79302 24.4425 1.80833 24.4617 1.80833 24.4847C1.80833 24.5077 1.8313 24.546 1.85426 24.5728C1.88106 24.5996 1.95761 24.6916 2.01885 24.772C2.12219 24.9061 2.84177 25.6302 2.96425 25.726C2.99104 25.749 3.09055 25.8256 3.18624 25.8984C3.28193 25.9712 3.36614 26.044 3.36996 26.0593C3.37762 26.0784 3.40824 26.0899 3.43886 26.0899C3.46948 26.0899 3.49245 26.1053 3.49245 26.1282C3.49245 26.1474 3.51541 26.1665 3.5422 26.1665C3.569 26.1665 3.63024 26.201 3.67617 26.2432C3.7221 26.2853 3.78334 26.3198 3.81778 26.3198C3.8484 26.3198 3.8752 26.3351 3.8752 26.3543C3.8752 26.3734 3.92878 26.4079 3.99002 26.4347C4.05509 26.4615 4.10485 26.496 4.10485 26.5152C4.10485 26.5343 4.12781 26.5497 4.15843 26.5497C4.18523 26.5497 4.31154 26.5995 4.43402 26.6608C4.72108 26.8063 5.07704 26.9519 5.27224 27.0132C5.35645 27.0362 5.46362 27.0707 5.51338 27.0898C5.56314 27.109 5.64351 27.1243 5.69327 27.1243C5.74686 27.1243 5.78896 27.1397 5.78896 27.1626C5.78896 27.1818 5.87699 27.201 5.98034 27.201C6.08751 27.201 6.17171 27.2163 6.17171 27.2393C6.17171 27.2622 6.29419 27.2776 6.45878 27.2776C6.62336 27.2776 6.74584 27.2929 6.74584 27.3159C6.74584 27.3389 7.00611 27.3542 7.45393 27.3542C7.90175 27.3542 8.16203 27.3389 8.16203 27.3159C8.16203 27.2929 8.27302 27.2776 8.4223 27.2776C8.56392 27.2776 8.69788 27.2622 8.71702 27.2431C8.73998 27.2239 8.82419 27.201 8.90839 27.1895C9.10742 27.1626 9.27201 27.1282 9.36769 27.086C9.4098 27.0707 9.5208 27.0324 9.61648 27.0056C9.71217 26.9787 9.91503 26.8983 10.072 26.8293C10.2251 26.7604 10.3782 26.7029 10.405 26.7029C10.4356 26.7029 10.4585 26.6838 10.4585 26.6646C10.4585 26.6416 10.493 26.6263 10.5351 26.6263C10.5772 26.6263 10.6116 26.6071 10.6116 26.588C10.6116 26.565 10.6461 26.5497 10.6882 26.5497C10.7303 26.5497 10.7647 26.5343 10.7647 26.519C10.7647 26.4999 10.826 26.4654 10.8987 26.4347C10.9714 26.4041 11.0327 26.3696 11.0327 26.3504C11.0327 26.3351 11.0633 26.3198 11.1016 26.3198C11.1398 26.3198 11.1934 26.2853 11.224 26.2432C11.2547 26.201 11.3006 26.1665 11.3312 26.1665C11.358 26.1665 11.4231 26.1244 11.4767 26.0708C11.5302 26.0171 11.5838 25.975 11.5991 25.975C11.6145 25.975 11.668 25.9367 11.7216 25.8869C11.7752 25.8409 11.9053 25.7336 12.0087 25.6493C12.2422 25.4616 12.602 25.1015 12.7436 24.9099C12.801 24.8333 12.8967 24.7146 12.9541 24.6533C13.0153 24.5881 13.0613 24.5268 13.0613 24.5153C13.0613 24.5038 13.1034 24.4425 13.1569 24.3812C13.2105 24.3199 13.2526 24.2548 13.2526 24.2395C13.2526 24.2242 13.2871 24.1744 13.3292 24.1284C13.3713 24.0824 13.4057 24.0211 13.4057 23.9943C13.4057 23.9675 13.4249 23.9445 13.444 23.9445C13.467 23.9445 13.4823 23.91 13.4823 23.8679C13.4823 23.8257 13.5014 23.7913 13.5206 23.7913C13.5435 23.7913 13.5588 23.7644 13.5588 23.7338C13.5588 23.7031 13.578 23.6763 13.5971 23.6763C13.6201 23.6763 13.6354 23.6418 13.6354 23.5997C13.6354 23.5576 13.6545 23.5231 13.6737 23.5231C13.6966 23.5231 13.7119 23.4886 13.7119 23.4465C13.7119 23.4043 13.7234 23.3698 13.7426 23.3698C13.7579 23.3698 13.7885 23.3124 13.8115 23.2434C13.8382 23.1783 13.8957 23.025 13.9416 22.9101C14.0526 22.6304 14.1751 22.232 14.198 22.0749C14.2095 22.0098 14.2325 21.9523 14.2478 21.9523C14.2631 21.9523 14.2899 21.8604 14.3014 21.7531C14.355 21.2934 14.3971 20.9677 14.4239 20.8298L14.4468 20.688H15.0898C15.4458 20.688 15.7597 20.6766 15.7941 20.6651C15.8362 20.6497 15.8553 20.6612 15.8553 20.7034C15.8553 20.7379 15.8745 20.7647 15.8936 20.7647C15.9166 20.7647 15.9319 20.7953 15.9319 20.8336C15.9319 20.8719 15.9663 20.9256 16.0085 20.9562C16.0506 20.9869 16.085 21.0328 16.085 21.0558C16.085 21.1401 16.5596 21.5386 16.774 21.6382C16.8888 21.688 17.0151 21.7493 17.0495 21.7646C17.0878 21.7837 17.1873 21.7991 17.2677 21.7991C17.3519 21.7991 17.4667 21.8182 17.5203 21.845C17.593 21.8757 17.639 21.8757 17.7117 21.845C17.8189 21.7952 17.9222 21.8221 17.9222 21.8987C17.9222 21.9293 17.9414 21.9523 17.9605 21.9523C17.9835 21.9523 17.9988 21.9868 17.9988 22.0289C17.9988 22.0711 18.0179 22.1056 18.037 22.1056C18.06 22.1056 18.0753 22.14 18.0753 22.1822C18.0753 22.2243 18.0868 22.2588 18.1059 22.2588C18.1212 22.2588 18.1557 22.3086 18.1825 22.3699C18.2093 22.435 18.3432 22.6879 18.481 22.9331C18.615 23.1783 18.726 23.4043 18.726 23.4311C18.726 23.4618 18.7451 23.4848 18.7643 23.4848C18.7872 23.4848 18.8025 23.5192 18.8025 23.5614C18.8025 23.6035 18.8217 23.638 18.8408 23.638C18.8638 23.638 18.8791 23.6725 18.8791 23.7146C18.8791 23.7568 18.8982 23.7913 18.9174 23.7913C18.9403 23.7913 18.9556 23.8181 18.9556 23.8487C18.9556 23.8794 18.9748 23.9062 18.9939 23.9062C19.0169 23.9062 19.0322 23.9292 19.0322 23.956C19.0322 23.9828 19.0934 24.0288 19.1662 24.0594C19.2389 24.0901 19.3001 24.1246 19.3001 24.1437C19.3001 24.159 19.7747 24.1744 20.3527 24.1744H21.4053V23.5422V22.9101H20.6742C20.0924 22.9101 19.9355 22.8986 19.8896 22.8565C19.8589 22.8258 19.836 22.7837 19.836 22.7607C19.836 22.7377 19.8207 22.7185 19.7977 22.7185C19.7786 22.7185 19.7594 22.6841 19.7594 22.6458C19.7594 22.6036 19.7479 22.5653 19.7326 22.5576C19.7058 22.5461 19.4035 21.9906 19.2848 21.7339C19.2618 21.6841 19.2312 21.6458 19.2159 21.6458C19.1968 21.6458 19.1853 21.6113 19.1853 21.5692C19.1853 21.5271 19.1738 21.4926 19.1585 21.4926C19.1202 21.4926 19.0322 21.3049 19.0322 21.2244C19.0322 21.1938 19.0666 21.1401 19.1087 21.1095C19.1508 21.0788 19.1853 21.0328 19.1853 21.0022C19.1853 20.9754 19.2083 20.9256 19.2389 20.8949C19.3193 20.8145 19.4494 20.4505 19.4992 20.1517C19.5374 19.9257 19.5336 19.8452 19.4762 19.5962L19.4073 19.3012L19.5719 19.1518C19.6637 19.0713 19.7518 19.0024 19.7709 19.0024C19.79 19.0024 19.8704 18.9334 19.9508 18.8491C20.0312 18.7648 20.1116 18.6959 20.1307 18.6959C20.1498 18.6959 20.2264 18.6384 20.3029 18.5694C20.3757 18.5043 20.4828 18.4124 20.5441 18.3702C20.6015 18.3281 20.7163 18.2285 20.8005 18.148C20.8847 18.0714 20.9689 18.0063 20.9842 18.0063C21.0034 18.0063 21.0799 17.945 21.1526 17.8722C21.2292 17.7994 21.2981 17.7381 21.3096 17.7381C21.3287 17.7381 21.3861 17.6921 21.589 17.5159C21.6464 17.4661 21.7421 17.3895 21.7995 17.3435C21.8607 17.2975 21.9603 17.2132 22.0253 17.1519C22.0866 17.0945 22.1516 17.0485 22.1669 17.0485C22.1822 17.0485 22.2779 16.9719 22.3736 16.8761C22.4731 16.7803 22.5727 16.7037 22.5918 16.7037C22.6148 16.7037 22.6301 16.6845 22.6301 16.6654C22.6301 16.6424 22.6569 16.6271 22.6875 16.6271C22.7181 16.6271 22.7449 16.6079 22.7449 16.5887C22.7449 16.5658 22.764 16.5504 22.7832 16.5504C22.8061 16.5504 22.8827 16.493 22.9554 16.424C23.2884 16.1137 23.3458 16.0601 23.4032 16.0294C23.4874 15.9796 23.7362 15.7804 23.8396 15.6769C23.8893 15.631 23.9467 15.5927 23.9697 15.5927C23.9927 15.5927 24.0845 15.5199 24.1802 15.4279C24.2721 15.3398 24.4788 15.1636 24.6433 15.0371C24.8041 14.9107 24.9917 14.7498 25.0644 14.6809C25.1333 14.6157 25.2098 14.5583 25.2328 14.5583C25.2558 14.5583 25.3514 14.4816 25.4471 14.3859C25.539 14.2901 25.6308 14.2135 25.6462 14.2135C25.6615 14.2135 25.761 14.1368 25.8643 14.0411C25.9715 13.9491 26.0672 13.8687 26.0825 13.8687C26.0978 13.8687 26.1897 13.792 26.2815 13.6963C26.3772 13.6005 26.4729 13.5239 26.4959 13.5239C26.5188 13.5239 26.5954 13.4664 26.6643 13.3974C26.737 13.3323 26.8978 13.1905 27.0279 13.0909C27.2308 12.9339 27.2652 12.9185 27.2843 12.976C27.2958 13.0143 27.3226 13.0756 27.3418 13.1101C27.3609 13.1484 27.3762 13.2212 27.3762 13.2748C27.3762 13.3285 27.3953 13.3706 27.4145 13.3706C27.4374 13.3706 27.4527 13.4204 27.4527 13.4855C27.4527 13.5468 27.4719 13.6005 27.491 13.6005C27.514 13.6005 27.5293 13.6579 27.5293 13.7307C27.5293 13.8035 27.5446 13.8687 27.5676 13.8763C27.5867 13.8801 27.403 13.9913 27.1542 14.1177C26.9092 14.2441 26.7026 14.359 26.6949 14.3744C26.6872 14.3935 26.6566 14.405 26.626 14.405C26.5954 14.405 26.5724 14.4203 26.5724 14.4433C26.5724 14.4625 26.5418 14.4816 26.5035 14.4816C26.4652 14.4816 26.4117 14.5161 26.381 14.5583C26.3504 14.6004 26.3007 14.6349 26.2662 14.6349C26.2318 14.6349 26.182 14.6694 26.1514 14.7115C26.1208 14.7536 26.0748 14.7881 26.048 14.7881C26.0213 14.7881 25.9983 14.8034 25.9983 14.8264C25.9983 14.8456 25.9792 14.8647 25.9562 14.8647C25.9332 14.8647 25.8949 14.8877 25.8682 14.9107C25.8414 14.9375 25.7189 15.0448 25.5964 15.1521C25.317 15.3896 25.0031 15.6961 25.0031 15.7267C25.0031 15.7382 24.9074 15.8647 24.7888 16.0064C24.6701 16.1482 24.54 16.3014 24.5017 16.3512C24.4596 16.3972 24.429 16.4585 24.429 16.4853C24.429 16.5121 24.3946 16.5581 24.3525 16.5887C24.3104 16.6194 24.2759 16.6692 24.2759 16.7037C24.2759 16.7382 24.2415 16.788 24.1994 16.8186C24.1573 16.8493 24.1228 16.9029 24.1228 16.9412C24.1228 16.9795 24.1075 17.0102 24.0845 17.0102C24.0654 17.0102 24.0463 17.0447 24.0463 17.0868C24.0463 17.1289 24.0309 17.1634 24.008 17.1634C23.9888 17.1634 23.9697 17.1979 23.9697 17.2362C23.9697 17.2784 23.9582 17.3167 23.9429 17.3243C23.9085 17.3358 23.7133 17.7611 23.6061 18.0446C23.5716 18.1404 23.5257 18.2476 23.5066 18.2821C23.4874 18.3204 23.4721 18.3932 23.4721 18.443C23.4721 18.4966 23.4568 18.5503 23.4338 18.5618C23.4147 18.5733 23.3956 18.6461 23.3956 18.7189C23.3956 18.7916 23.3803 18.8491 23.3573 18.8491C23.3382 18.8491 23.319 18.9257 23.319 19.0177C23.319 19.1135 23.3037 19.2016 23.2807 19.2131C23.2616 19.2246 23.2425 19.3395 23.2425 19.4659C23.2425 19.5923 23.2272 19.692 23.2042 19.692C23.1812 19.692 23.1659 20.0061 23.1659 20.554C23.1659 21.0482 23.1812 21.416 23.2004 21.416C23.2195 21.416 23.2463 21.5232 23.2578 21.6535C23.2884 22.0213 23.3229 22.2358 23.3611 22.278C23.3803 22.2971 23.3956 22.3584 23.3956 22.4159C23.3956 22.4734 23.4147 22.5346 23.4338 22.5461C23.4568 22.5576 23.4721 22.6113 23.4721 22.6649C23.4721 22.7147 23.4874 22.7875 23.5066 22.8258C23.5755 22.9599 23.6635 23.1821 23.6635 23.2166C23.6635 23.2702 23.9046 23.7721 23.9391 23.7836C23.9544 23.7913 23.9697 23.8296 23.9697 23.8717C23.9697 23.91 23.9888 23.9445 24.008 23.9445C24.0309 23.9445 24.0463 23.979 24.0463 24.0211C24.0463 24.0633 24.0654 24.0977 24.0845 24.0977C24.1075 24.0977 24.1228 24.1284 24.1228 24.1667C24.1228 24.205 24.1573 24.2587 24.1994 24.2893C24.2415 24.3199 24.2759 24.3736 24.2759 24.4119C24.2759 24.4502 24.295 24.4809 24.3142 24.4809C24.3371 24.4809 24.3525 24.5077 24.3525 24.5383C24.3525 24.569 24.3716 24.5958 24.3907 24.5958C24.4137 24.5958 24.429 24.6226 24.429 24.6533C24.429 24.6839 24.4481 24.7107 24.4673 24.7107C24.4902 24.7107 24.5056 24.726 24.5056 24.749C24.5056 24.7682 24.54 24.8257 24.5783 24.8716C24.6625 24.9712 24.7697 25.0977 24.896 25.2586C25.0299 25.4271 25.3476 25.7451 25.5926 25.9558C25.7151 26.0593 25.8567 26.1857 25.9064 26.2317C25.9524 26.2815 26.0174 26.3198 26.0442 26.3198C26.0748 26.3198 26.1208 26.3543 26.1514 26.3964C26.182 26.4386 26.2318 26.473 26.2662 26.473C26.3007 26.473 26.3504 26.5075 26.381 26.5497C26.4117 26.5918 26.4576 26.6263 26.4882 26.6263C26.515 26.6263 26.5686 26.6569 26.6107 26.6914C26.649 26.7297 26.8174 26.8293 26.982 26.9136C27.1465 26.9979 27.2882 27.0784 27.292 27.0937C27.2996 27.1128 27.3379 27.1243 27.38 27.1243C27.4183 27.1243 27.4527 27.1397 27.4527 27.1626C27.4527 27.1818 27.5063 27.201 27.5676 27.201C27.6326 27.201 27.6824 27.2163 27.6824 27.2393C27.6824 27.2584 27.7245 27.2776 27.7781 27.2776C27.8317 27.2776 27.8738 27.2929 27.8738 27.3159C27.8738 27.335 27.9274 27.3542 27.9886 27.3542C28.0537 27.3542 28.1034 27.3695 28.1034 27.3925C28.1034 27.4117 28.157 27.4308 28.2183 27.4308C28.2833 27.4308 28.3331 27.4461 28.3331 27.4691C28.3331 27.4883 28.402 27.5074 28.4862 27.5074C28.5704 27.5074 28.6393 27.5228 28.6393 27.5458C28.6393 27.5649 28.7158 27.5841 28.8077 27.5841C28.9034 27.5841 28.9876 27.5994 28.9991 27.6185C29.0756 27.7411 31.663 27.745 31.663 27.6185C31.663 27.5994 31.7396 27.5841 31.8314 27.5841C31.9271 27.5841 32.0152 27.5649 32.0266 27.5458C32.0381 27.5228 32.1108 27.5074 32.1836 27.5074C32.2563 27.5074 32.3137 27.4883 32.3137 27.4691C32.3137 27.4461 32.3749 27.4308 32.4477 27.4308C32.5204 27.4308 32.5816 27.4117 32.5816 27.3925C32.5816 27.3695 32.6237 27.3542 32.6773 27.3542C32.7309 27.3542 32.773 27.335 32.773 27.3159C32.773 27.2929 32.8266 27.2776 32.8878 27.2776C32.9529 27.2776 33.0027 27.2584 33.0027 27.2393C33.0027 27.2163 33.0448 27.201 33.0983 27.201C33.1519 27.201 33.194 27.1818 33.194 27.1626C33.194 27.1397 33.217 27.1243 33.2438 27.1243C33.3089 27.1243 33.8447 26.86 33.9098 26.7987C33.9366 26.768 33.994 26.7336 34.0361 26.7221C34.0782 26.7106 34.1126 26.6799 34.1126 26.6608C34.1126 26.6416 34.1471 26.6263 34.1892 26.6263C34.2313 26.6263 34.2657 26.6071 34.2657 26.588C34.2657 26.565 34.2925 26.5497 34.3232 26.5497C34.3538 26.5497 34.3806 26.5305 34.3806 26.5114C34.3806 26.4884 34.4074 26.473 34.438 26.473C34.4686 26.473 34.4954 26.4539 34.4954 26.4347C34.4954 26.4117 34.5145 26.3964 34.5375 26.3964C34.5605 26.3964 34.6294 26.3428 34.6868 26.2815C34.7442 26.2202 34.8131 26.1665 34.8399 26.1665C34.8935 26.1665 35.9499 25.113 35.9499 25.0555C35.9499 25.0364 36.0034 24.9636 36.0647 24.8946C36.1297 24.8295 36.1795 24.7605 36.1795 24.7414C36.1795 24.7222 36.214 24.6724 36.2561 24.6264C36.2982 24.5805 36.3556 24.4962 36.3785 24.4349C36.4053 24.3774 36.4398 24.3276 36.4513 24.3276C36.4627 24.3276 36.5048 24.2587 36.5431 24.1744C36.5814 24.0901 36.6273 24.0211 36.6465 24.0211C36.6618 24.0211 36.6771 23.9866 36.6771 23.9445C36.6771 23.9024 36.6886 23.8679 36.7077 23.8679C36.7383 23.8679 36.8302 23.6802 36.8302 23.6112C36.8302 23.5844 36.8493 23.5614 36.8685 23.5614C36.8914 23.5614 36.9067 23.5192 36.9067 23.4656C36.9067 23.412 36.9259 23.3698 36.945 23.3698C36.968 23.3698 36.9833 23.3354 36.9833 23.2932C36.9833 23.2511 37.0024 23.2166 37.0216 23.2166C37.0445 23.2166 37.0598 23.163 37.0598 23.1017C37.0598 23.0365 37.079 22.9867 37.0981 22.9867C37.1211 22.9867 37.1364 22.9331 37.1364 22.8718C37.1364 22.8067 37.1555 22.7569 37.1747 22.7569C37.1976 22.7569 37.2129 22.6956 37.2129 22.6228C37.2129 22.55 37.2282 22.4887 37.2474 22.4887C37.2665 22.4887 37.2895 22.4312 37.301 22.3622C37.3163 22.2971 37.3431 22.1439 37.366 22.0289C37.4694 21.4888 37.4962 21.1938 37.5 20.5731C37.5 19.9563 37.4694 19.6422 37.366 19.079C37.3431 18.964 37.3163 18.8108 37.301 18.7418C37.2895 18.6767 37.2665 18.6192 37.2474 18.6192C37.2282 18.6192 37.2129 18.5579 37.2129 18.4852C37.2129 18.4124 37.1976 18.3511 37.1747 18.3511C37.1555 18.3511 37.1364 18.2974 37.1364 18.2361C37.1364 18.171 37.1211 18.1212 37.0981 18.1212C37.079 18.1212 37.0598 18.0676 37.0598 18.0063C37.0598 17.9411 37.0445 17.8913 37.0216 17.8913C37.0024 17.8913 36.9833 17.8569 36.9833 17.8147C36.9833 17.7726 36.968 17.7381 36.945 17.7381C36.9259 17.7381 36.9067 17.7113 36.9067 17.6806C36.9067 17.65 36.8914 17.5925 36.8723 17.5542C36.8531 17.5197 36.8149 17.4354 36.7881 17.3741C36.7575 17.309 36.7268 17.2515 36.7154 17.24C36.7039 17.2285 36.6426 17.1213 36.5814 17.0025C36.5163 16.8799 36.4551 16.7803 36.4436 16.7803C36.4283 16.7803 36.3977 16.7267 36.3709 16.6654C36.3441 16.6002 36.3096 16.5504 36.2905 16.5504C36.2714 16.5504 36.2561 16.5236 36.2561 16.493C36.2561 16.4623 36.2407 16.4355 36.2178 16.4355C36.1986 16.4355 36.1795 16.4125 36.1795 16.3857C36.1795 16.3589 36.1451 16.3129 36.103 16.2823C36.0609 16.2516 36.0264 16.2056 36.0264 16.1788C36.0264 16.152 36.0111 16.129 35.9881 16.129C35.969 16.129 35.9499 16.1022 35.9499 16.0715C35.9499 16.0409 35.9345 16.0141 35.9116 16.0141C35.8924 16.0141 35.8733 15.9949 35.8733 15.9758C35.8733 15.9336 35.2953 15.3551 35.0045 15.1023C34.9241 15.0333 34.7901 14.9184 34.7097 14.8456C34.6255 14.7728 34.5337 14.7115 34.5069 14.7115C34.4801 14.7115 34.4571 14.6923 34.4571 14.6732C34.4571 14.6502 34.4303 14.6349 34.3997 14.6349C34.3691 14.6349 34.3423 14.6157 34.3423 14.5966C34.3423 14.5736 34.3155 14.5583 34.2849 14.5583C34.2543 14.5583 34.2275 14.5391 34.2275 14.5199C34.2275 14.497 34.2007 14.4816 34.1701 14.4816C34.1394 14.4816 34.1126 14.4625 34.1126 14.4433C34.1126 14.4203 34.0782 14.405 34.0399 14.405C33.9978 14.405 33.9595 14.3897 33.9519 14.3705C33.9327 14.3169 33.1519 13.9261 32.9491 13.8648C32.8534 13.838 32.773 13.7997 32.773 13.7844C32.773 13.769 32.7232 13.7537 32.6582 13.7537C32.5969 13.7537 32.5434 13.7346 32.5434 13.7154C32.5434 13.6924 32.4936 13.6771 32.4324 13.6771C32.3673 13.6771 32.306 13.6579 32.2946 13.6388C32.2831 13.6158 32.2104 13.6005 32.1376 13.6005C32.0649 13.6005 32.0075 13.5813 32.0075 13.5622C32.0075 13.5392 31.931 13.5239 31.8353 13.5239C31.7396 13.5239 31.663 13.5047 31.663 13.4855C31.663 13.4626 31.5405 13.4472 31.376 13.4472C31.2114 13.4472 31.0889 13.4319 31.0889 13.4089C31.0889 13.3859 30.8133 13.3706 30.3425 13.3706C29.8717 13.3706 29.5962 13.3859 29.5962 13.4089C29.5962 13.4319 29.4813 13.4472 29.3282 13.4472C29.1751 13.4472 29.0603 13.4626 29.0603 13.4855C29.0603 13.5047 29.0029 13.5239 28.934 13.5239C28.8345 13.5239 28.7962 13.5009 28.7618 13.4281C28.735 13.3744 28.7158 13.2978 28.7158 13.2557C28.7158 13.2174 28.7005 13.1714 28.6776 13.1599C28.6584 13.1484 28.6393 13.0871 28.6393 13.022C28.6393 12.9607 28.624 12.9109 28.601 12.9109C28.5819 12.9109 28.5627 12.8496 28.5627 12.7768C28.5627 12.704 28.5474 12.6427 28.5245 12.6427C28.5053 12.6427 28.4862 12.5891 28.4862 12.5278C28.4862 12.4626 28.4709 12.4128 28.4479 12.4128C28.4288 12.4128 28.4096 12.363 28.4096 12.3017C28.4096 12.2366 28.3943 12.1753 28.3714 12.1638C28.3522 12.1523 28.3331 12.0987 28.3331 12.045C28.3331 11.9952 28.3178 11.9224 28.2986 11.8841C28.2795 11.8497 28.1915 11.5853 28.1034 11.3018C28.0154 11.0183 27.9197 10.7156 27.8891 10.6314C27.8585 10.5432 27.8355 10.4475 27.8355 10.4092C27.8355 10.3747 27.8202 10.344 27.7972 10.344C27.7781 10.344 27.759 10.3057 27.759 10.2597C27.759 10.1716 27.6977 9.94942 27.6403 9.83832C27.6212 9.8 27.6059 9.72721 27.6059 9.67358C27.6059 9.61994 27.5905 9.5778 27.5676 9.5778C27.5484 9.5778 27.5293 9.5165 27.5293 9.44371C27.5293 9.37092 27.514 9.30962 27.491 9.30962C27.4719 9.30962 27.4527 9.25599 27.4527 9.19469C27.4527 9.12956 27.4374 9.07975 27.4145 9.07975C27.3953 9.07975 27.3762 9.02995 27.3762 8.96865C27.3762 8.90352 27.3571 8.84222 27.3379 8.83073C27.315 8.81541 27.3188 8.78859 27.3494 8.75794C27.3915 8.71197 27.5791 8.65833 28.2374 8.50126C28.3216 8.47827 28.4594 8.44379 28.5436 8.42463C28.6278 8.40165 28.7541 8.37483 28.823 8.36333C28.8919 8.35184 28.957 8.32886 28.9685 8.3097C28.9799 8.29054 29.045 8.27522 29.1177 8.27522C29.1904 8.27522 29.2593 8.25606 29.2708 8.23691C29.2823 8.21392 29.3206 8.1986 29.3512 8.1986C29.4354 8.1986 29.5962 8.02237 29.5962 7.93042C29.5962 7.88828 29.6153 7.8538 29.6344 7.8538C29.6574 7.8538 29.6727 7.75036 29.6727 7.62393C29.6727 7.4975 29.6574 7.39406 29.6344 7.39406C29.6153 7.39406 29.5962 7.3251 29.5962 7.24082C29.5962 7.15653 29.5809 7.08757 29.5579 7.08757C29.5388 7.08757 29.5196 7.03394 29.5196 6.97264C29.5196 6.90751 29.5043 6.8577 29.4813 6.8577C29.4622 6.8577 29.4431 6.78874 29.4431 6.70446C29.4431 6.62018 29.4278 6.55122 29.4048 6.55122C29.3857 6.55122 29.3665 6.49375 29.3665 6.42096C29.3665 6.34817 29.3512 6.27538 29.3282 6.26388C29.3091 6.25239 29.29 6.1796 29.29 6.10681C29.29 6.03401 29.2747 5.97655 29.2517 5.97655C29.2325 5.97655 29.2134 5.93824 29.2134 5.89226C29.2134 5.84629 29.1981 5.75817 29.179 5.69304C29.1598 5.62791 29.0986 5.4172 29.0412 5.22948C28.9876 5.03792 28.9263 4.83104 28.9034 4.76591C28.8842 4.70078 28.8689 4.61267 28.8689 4.56669C28.8689 4.52455 28.8536 4.47858 28.8345 4.46709C28.8039 4.4441 28.7924 4.39813 28.7311 4.04949C28.7197 3.97287 28.6929 3.90774 28.6737 3.90774C28.6546 3.90774 28.6393 3.83878 28.6393 3.7545C28.6393 3.67021 28.624 3.60125 28.601 3.60125C28.5819 3.60125 28.5627 3.53996 28.5627 3.46716C28.5627 3.39437 28.5474 3.33307 28.5245 3.33307C28.5053 3.33307 28.4862 3.26411 28.4862 3.17983C28.4862 3.09554 28.4709 3.02658 28.4517 3.02658C28.4326 3.02658 28.4096 2.96912 28.3981 2.90016C28.3637 2.69328 28.3293 2.55153 28.2948 2.47107C28.2757 2.42893 28.2527 2.35231 28.2412 2.29867C28.2336 2.24504 28.2068 2.1416 28.1838 2.06881C28.1149 1.82744 28.0728 1.67037 27.9695 1.30258C27.9159 1.10336 27.8508 0.877327 27.8278 0.804535C27.8087 0.731745 27.7819 0.61298 27.7704 0.54402C27.759 0.478889 27.736 0.421423 27.7168 0.421423C27.6977 0.421423 27.6824 0.394606 27.6824 0.363956C27.6824 0.287334 27.537 0.141752 27.3839 0.0612984C27.2805 0.00766182 27.0547 0 25.6155 0H23.9697V0.651291ZM26.7829 11.321C26.848 11.6389 26.8595 11.6045 26.6107 11.7998C26.3466 12.0029 26.3466 12.0029 26.2088 12.1332C26.1361 12.2021 26.0595 12.2596 26.0366 12.2596C26.0174 12.2596 25.9983 12.2749 25.9983 12.2979C25.9983 12.3171 25.9753 12.3362 25.9485 12.3362C25.9217 12.3362 25.8758 12.3707 25.8452 12.4128C25.8146 12.455 25.7763 12.4895 25.7572 12.4895C25.7418 12.4895 25.6691 12.5507 25.5926 12.6235C25.5198 12.6963 25.4433 12.7576 25.4242 12.7576C25.4089 12.7576 25.317 12.8266 25.2251 12.9109C24.9189 13.1944 24.8921 13.2174 24.8615 13.2174C24.8424 13.2174 24.8041 13.2518 24.7735 13.294C24.7429 13.3361 24.6969 13.3706 24.6701 13.3706C24.6433 13.3706 24.6204 13.3859 24.6204 13.4089C24.6204 13.4281 24.6012 13.4472 24.5821 13.4472C24.5591 13.4472 24.4635 13.5239 24.3678 13.6196C24.2759 13.7154 24.1802 13.792 24.1611 13.792C24.1419 13.792 24.0884 13.8303 24.0386 13.8763C23.9888 13.9261 23.8625 14.0334 23.7592 14.1177C23.652 14.1981 23.541 14.2977 23.5066 14.3361C23.4721 14.3744 23.4262 14.405 23.3994 14.405C23.3764 14.405 23.3573 14.4203 23.3573 14.4433C23.3573 14.4625 23.3382 14.4816 23.3152 14.4816C23.2922 14.4816 23.2272 14.5314 23.1736 14.5889C23.1162 14.6464 23.009 14.7383 22.9363 14.7881C22.8635 14.8379 22.7947 14.8916 22.7832 14.9031C22.7717 14.9145 22.6798 14.995 22.5727 15.0755C22.4693 15.1597 22.3354 15.2747 22.2779 15.3321C22.2244 15.3934 22.1593 15.4394 22.1325 15.4394C22.1095 15.4394 22.0215 15.5084 21.9411 15.5927C21.8607 15.6769 21.7842 15.7459 21.7727 15.7459C21.7536 15.7459 21.7153 15.7727 21.5201 15.9413C21.4818 15.9719 21.4014 16.0332 21.3478 16.0754C21.2904 16.1137 21.1756 16.2133 21.0914 16.2899C21.0072 16.3704 20.923 16.4355 20.9077 16.4355C20.8885 16.4355 20.812 16.4968 20.7393 16.5696C20.6627 16.6424 20.59 16.7037 20.5747 16.7037C20.5555 16.7037 20.5173 16.7382 20.4867 16.7803C20.456 16.8224 20.4178 16.8569 20.3986 16.8569C20.3795 16.8569 20.345 16.8799 20.3144 16.9029C20.2876 16.9297 20.1996 17.0025 20.123 17.0676C20.0465 17.1289 19.947 17.2171 19.901 17.2592C19.8551 17.3013 19.7556 17.378 19.6829 17.4316C19.6102 17.4814 19.5221 17.5542 19.4877 17.5925C19.4532 17.6308 19.4111 17.6615 19.3958 17.6615C19.3805 17.6615 19.3193 17.7113 19.2618 17.7764C19.2044 17.8377 19.1355 17.8913 19.1087 17.8913C19.0858 17.8913 19.0016 17.9565 18.925 18.0369C18.8485 18.1135 18.7413 18.2055 18.6877 18.24C18.5959 18.2974 18.5805 18.2974 18.4121 18.217C18.1748 18.102 18.0715 18.0791 17.6926 18.0484L17.3672 18.0254L17.1567 17.604C17.0419 17.3703 16.9347 17.1749 16.9194 17.1711C16.9003 17.1634 16.8888 17.1251 16.8888 17.083C16.8888 17.0447 16.8735 17.0102 16.8505 17.0102C16.8314 17.0102 16.8122 16.9757 16.8122 16.9336C16.8122 16.8914 16.7969 16.8569 16.774 16.8569C16.7548 16.8569 16.7357 16.8224 16.7357 16.7803C16.7357 16.7382 16.7204 16.7037 16.6974 16.7037C16.6783 16.7037 16.6591 16.6692 16.6591 16.6271C16.6591 16.5849 16.6438 16.5504 16.6209 16.5504C16.6017 16.5504 16.5826 16.516 16.5826 16.4738C16.5826 16.4317 16.5673 16.3972 16.5443 16.3972C16.5252 16.3972 16.506 16.3742 16.506 16.3512C16.506 16.2899 15.9242 15.1176 15.886 15.1023C15.8668 15.0946 15.8553 15.0563 15.8553 15.0142C15.8553 14.9758 15.84 14.9414 15.8171 14.9414C15.7979 14.9414 15.7788 14.9069 15.7788 14.8647C15.7788 14.8226 15.7635 14.7881 15.7405 14.7881C15.7214 14.7881 15.7022 14.7536 15.7022 14.7115C15.7022 14.6694 15.6869 14.6349 15.664 14.6349C15.6448 14.6349 15.6257 14.6004 15.6257 14.5583C15.6257 14.497 15.6525 14.4816 15.7597 14.4816C15.8324 14.4816 15.8936 14.4625 15.8936 14.4433C15.8936 14.4203 15.9434 14.405 16.0046 14.405C16.0697 14.405 16.1309 14.3859 16.1424 14.3667C16.1539 14.3437 16.2151 14.3284 16.2764 14.3284C16.3376 14.3284 16.3989 14.3092 16.4103 14.2901C16.4218 14.2671 16.4831 14.2518 16.5481 14.2518C16.6094 14.2518 16.6591 14.2326 16.6591 14.2135C16.6591 14.1905 16.6936 14.1751 16.7395 14.1751C16.7816 14.1751 17.0036 14.1177 17.2256 14.0449C17.4514 13.9721 17.7653 13.8763 17.9222 13.8303C18.0791 13.7844 18.2399 13.7307 18.2743 13.7116C18.3126 13.6924 18.3853 13.6771 18.4351 13.6771C18.4887 13.6771 18.5423 13.6579 18.5538 13.6388C18.5652 13.6158 18.6265 13.6005 18.6915 13.6005C18.7528 13.6005 18.8025 13.5813 18.8025 13.5622C18.8025 13.5392 18.8638 13.5239 18.9365 13.5239C19.0092 13.5239 19.0705 13.5047 19.0705 13.4855C19.0705 13.4626 19.1317 13.4472 19.2044 13.4472C19.2772 13.4472 19.3384 13.4281 19.3384 13.4089C19.3384 13.3859 19.3882 13.3706 19.4494 13.3706C19.5145 13.3706 19.5757 13.3515 19.5872 13.3323C19.5987 13.3093 19.6484 13.294 19.6905 13.294C19.7365 13.294 19.8704 13.2633 19.9852 13.2212C20.1039 13.1829 20.3297 13.1101 20.4867 13.0641C20.6436 13.0181 20.8962 12.9377 21.0493 12.8879C21.1986 12.8381 21.3593 12.7959 21.4014 12.7959C21.4435 12.7959 21.4895 12.7768 21.5009 12.7576C21.5124 12.7346 21.566 12.7193 21.6158 12.7193C21.6655 12.7193 21.7191 12.7002 21.7306 12.681C21.7421 12.658 21.8033 12.6427 21.8684 12.6427C21.9296 12.6427 21.9794 12.6235 21.9794 12.6044C21.9794 12.5814 22.0483 12.5661 22.1325 12.5661C22.2167 12.5661 22.2856 12.5469 22.2856 12.5278C22.2856 12.5048 22.3392 12.4895 22.4004 12.4895C22.4655 12.4895 22.5152 12.4703 22.5152 12.4511C22.5152 12.4282 22.5765 12.4128 22.6492 12.4128C22.7219 12.4128 22.7832 12.3937 22.7832 12.3745C22.7832 12.3515 22.8329 12.3362 22.8942 12.3362C22.9592 12.3362 23.0205 12.3171 23.032 12.2979C23.0434 12.2749 23.1162 12.2596 23.1889 12.2596C23.2616 12.2596 23.319 12.2404 23.319 12.2213C23.319 12.1983 23.3688 12.183 23.43 12.183C23.4951 12.183 23.5563 12.1638 23.5678 12.1447C23.5793 12.1217 23.6329 12.1063 23.6865 12.1063C23.7362 12.1063 23.8089 12.091 23.8472 12.0719C23.8817 12.0527 24.0692 11.9914 24.2568 11.9339C24.4481 11.8765 24.6433 11.8152 24.6969 11.7998C24.7505 11.7807 24.9228 11.7309 25.0797 11.6849C25.2366 11.6389 25.3974 11.5853 25.4318 11.5662C25.4701 11.547 25.5428 11.5317 25.5964 11.5317C25.65 11.5317 25.6921 11.5125 25.6921 11.4934C25.6921 11.4704 25.7533 11.455 25.8261 11.455C25.8988 11.455 25.96 11.4359 25.96 11.4167C25.96 11.3938 26.0213 11.3784 26.094 11.3784C26.1667 11.3784 26.2279 11.3593 26.2279 11.3401C26.2279 11.3171 26.2892 11.3018 26.3619 11.3018C26.4346 11.3018 26.4959 11.2826 26.4959 11.2635C26.4959 11.2405 26.5571 11.2252 26.6298 11.2252C26.7408 11.2252 26.7638 11.2405 26.7829 11.321ZM14.5157 15.1712C14.5157 15.2134 14.5349 15.2479 14.554 15.2479C14.577 15.2479 14.5923 15.2823 14.5923 15.3245C14.5923 15.3666 14.6114 15.4011 14.6305 15.4011C14.6535 15.4011 14.6688 15.4432 14.6688 15.4969C14.6688 15.5505 14.6841 15.5927 14.6994 15.5927C14.7147 15.5927 14.8066 15.7536 14.8985 15.9451C14.9903 16.1405 15.109 16.3665 15.1549 16.4432C15.2047 16.5236 15.2429 16.6117 15.2429 16.6462C15.2429 16.6769 15.2621 16.7037 15.2812 16.7037C15.3042 16.7037 15.3195 16.7382 15.3195 16.7803C15.3195 16.8224 15.3386 16.8569 15.3578 16.8569C15.3807 16.8569 15.396 16.8914 15.396 16.9336C15.396 16.9757 15.4152 17.0102 15.4343 17.0102C15.4573 17.0102 15.4726 17.0447 15.4726 17.0868C15.4726 17.1289 15.4917 17.1634 15.5109 17.1634C15.5338 17.1634 15.5491 17.1979 15.5491 17.24C15.5491 17.2822 15.5683 17.3167 15.5874 17.3167C15.6104 17.3167 15.6257 17.3511 15.6257 17.3933C15.6257 17.4354 15.6448 17.4699 15.664 17.4699C15.6869 17.4699 15.7022 17.5044 15.7022 17.5465C15.7022 17.5887 15.7214 17.6232 15.7405 17.6232C15.7635 17.6232 15.7788 17.6423 15.7788 17.6653C15.7788 17.6883 15.8745 17.8952 15.9893 18.1289C16.2113 18.5733 16.2266 18.6307 16.1539 18.715C16.0085 18.8759 15.8553 19.1364 15.8553 19.2169C15.8553 19.3548 15.7635 19.3778 15.0631 19.4046L14.3741 19.4314L14.3473 19.305C14.2708 18.9104 14.2478 18.8146 14.2172 18.6767C14.0832 18.125 13.689 17.1366 13.5895 17.0945C13.5741 17.0868 13.5588 17.0485 13.5588 17.0063C13.5588 16.968 13.5435 16.9336 13.5206 16.9336C13.5014 16.9336 13.4823 16.8991 13.4823 16.8569C13.4823 16.8148 13.467 16.7803 13.4478 16.7803C13.4287 16.7803 13.3943 16.7267 13.3675 16.6654C13.3407 16.6002 13.3062 16.5504 13.2871 16.5504C13.2679 16.5504 13.2526 16.5275 13.2526 16.5006C13.2526 16.4738 13.2182 16.4125 13.1723 16.3627C13.1034 16.2899 13.0995 16.2708 13.1455 16.2133C13.2373 16.0945 13.4899 15.8608 13.5244 15.8608C13.5435 15.8608 13.6507 15.7651 13.7693 15.6501C13.8842 15.5352 13.9875 15.4394 13.999 15.4394C14.0105 15.4394 14.0985 15.3628 14.2019 15.267C14.3971 15.0831 14.5157 15.0448 14.5157 15.1712ZM7.98596 15.9336C8.05103 15.9528 8.22327 15.9911 8.36871 16.0179C8.51416 16.0409 8.72084 16.0945 8.82801 16.1367C8.93518 16.1788 9.06532 16.2248 9.11891 16.2401C9.24904 16.2823 9.63179 16.4853 9.6471 16.5198C9.65476 16.5389 9.69304 16.5504 9.73514 16.5504C9.77341 16.5504 9.80786 16.5658 9.80786 16.5887C9.80786 16.6079 9.83465 16.6271 9.86527 16.6271C9.89589 16.6271 9.92269 16.6424 9.92269 16.6654C9.92269 16.6845 9.94948 16.7037 9.9801 16.7037C10.0107 16.7037 10.0375 16.719 10.0375 16.742C10.0375 16.7612 10.0566 16.7803 10.0758 16.7803C10.0988 16.7803 10.16 16.8224 10.2136 16.8761L10.3093 16.9719L10.16 17.1174C9.86527 17.3933 9.65093 17.5848 9.63562 17.5848C9.62414 17.5848 9.5208 17.6806 9.40597 17.7956C9.28732 17.9105 9.18015 18.0063 9.16484 18.0063C9.14953 18.0063 9.05001 18.0867 8.94667 18.1902C8.8395 18.2898 8.6596 18.4468 8.54478 18.5426C8.42995 18.6384 8.25771 18.7916 8.16203 18.8874C8.06634 18.9832 7.92855 19.1058 7.85582 19.1633C7.7831 19.2207 7.61086 19.3701 7.4769 19.4966C7.33911 19.6268 7.21663 19.7303 7.19749 19.7303C7.14008 19.7303 6.89894 19.9908 6.89894 20.0521C6.89894 20.0827 6.88363 20.121 6.86067 20.1325C6.77263 20.1862 6.84918 20.7264 6.9487 20.7264C6.96401 20.7264 6.97549 20.7455 6.97549 20.7685C6.97549 20.8298 7.07501 20.9179 7.1439 20.9179C7.17835 20.9179 7.20514 20.9332 7.20514 20.9562C7.20514 20.9792 7.4348 20.9945 7.81755 20.9945C8.2003 20.9945 8.42995 20.9792 8.42995 20.9562C8.42995 20.9332 8.76677 20.9179 9.36769 20.9179C9.96862 20.9179 10.3054 20.9026 10.3054 20.8796C10.3054 20.8566 10.5925 20.8413 11.0939 20.8413C11.8211 20.8413 11.8824 20.8451 11.8594 20.9064C11.8441 20.9409 11.825 21.052 11.8135 21.1478C11.7867 21.347 11.6489 21.8374 11.5991 21.891C11.5838 21.914 11.5685 21.9676 11.5685 22.0174C11.5685 22.0673 11.5532 22.1056 11.5302 22.1056C11.5111 22.1056 11.492 22.14 11.492 22.1822C11.492 22.2243 11.4767 22.2588 11.4537 22.2588C11.4346 22.2588 11.4154 22.2933 11.4154 22.3354C11.4154 22.3776 11.4001 22.4121 11.3771 22.4121C11.358 22.4121 11.3389 22.4465 11.3389 22.4887C11.3389 22.5308 11.3236 22.5653 11.3083 22.5653C11.2891 22.5653 11.2547 22.6266 11.224 22.6994C11.1934 22.7722 11.159 22.8335 11.1475 22.8335C11.1322 22.8335 11.1016 22.8756 11.0786 22.9293C11.0327 23.0289 10.9217 23.1553 10.5848 23.4963C10.2557 23.8219 10.1179 23.9445 10.0758 23.9445C10.0566 23.9445 10.0375 23.9598 10.0375 23.9828C10.0375 24.002 10.0107 24.0211 9.9801 24.0211C9.94948 24.0211 9.92269 24.0364 9.92269 24.0594C9.92269 24.0786 9.89589 24.0977 9.86527 24.0977C9.83465 24.0977 9.80786 24.1131 9.80786 24.1361C9.80786 24.1552 9.77341 24.1744 9.73131 24.1744C9.68921 24.1744 9.65476 24.1897 9.65476 24.2127C9.65476 24.2318 9.62031 24.251 9.57821 24.251C9.53611 24.251 9.50166 24.2663 9.50166 24.2893C9.50166 24.3085 9.46721 24.3276 9.42511 24.3276C9.38301 24.3276 9.34856 24.3429 9.34856 24.3659C9.34856 24.3851 9.31411 24.4042 9.27584 24.4042C9.23373 24.4042 9.19546 24.4196 9.1878 24.4349C9.16484 24.4924 8.41081 24.7069 8.00892 24.772C7.72569 24.818 7.50369 24.8295 7.26256 24.8103C6.9066 24.7873 6.32864 24.6801 6.09516 24.5958C5.88465 24.5192 5.77365 24.4732 5.70475 24.4387C5.66648 24.4196 5.60907 24.4042 5.57845 24.4042C5.54783 24.4042 5.52103 24.3851 5.52103 24.3659C5.52103 24.3429 5.48659 24.3276 5.44448 24.3276C5.40238 24.3276 5.36793 24.3085 5.36793 24.2893C5.36793 24.2663 5.33348 24.251 5.29138 24.251C5.24928 24.251 5.21483 24.2318 5.21483 24.2127C5.21483 24.1897 5.18421 24.1744 5.14594 24.1744C5.10766 24.1744 5.05408 24.1399 5.02346 24.0977C4.99284 24.0556 4.9469 24.0211 4.92011 24.0211C4.8206 24.0211 3.8752 23.0863 3.8752 22.9867C3.8752 22.9676 3.85989 22.9484 3.83692 22.9484C3.81778 22.9484 3.79865 22.9216 3.79865 22.8909C3.79865 22.8603 3.78334 22.8335 3.76037 22.8335C3.74123 22.8335 3.7221 22.8067 3.7221 22.776C3.7221 22.7454 3.71061 22.7185 3.6953 22.7185C3.66851 22.7185 3.33934 22.0596 3.25131 21.8374C3.23217 21.7837 3.20155 21.7071 3.18242 21.665C3.14414 21.5654 3.10969 21.37 3.0829 21.1171C3.07142 21.0099 3.04845 20.9179 3.02931 20.9179C2.97956 20.9179 2.98338 19.8184 3.03314 19.7877C3.05611 19.7762 3.07142 19.6805 3.07142 19.577C3.07142 19.4736 3.09055 19.3778 3.10969 19.3663C3.13266 19.3548 3.14797 19.282 3.14797 19.2092C3.14797 19.1364 3.16711 19.079 3.18624 19.079C3.20921 19.079 3.22452 19.0253 3.22452 18.964C3.22452 18.8989 3.24366 18.8491 3.26279 18.8491C3.28576 18.8491 3.30107 18.8223 3.30107 18.7955C3.30107 18.7418 3.56517 18.1595 3.60727 18.1212C3.61875 18.1097 3.64937 18.0561 3.67999 17.9948C3.71061 17.9373 3.74889 17.8913 3.76803 17.8913C3.78334 17.8913 3.79865 17.8645 3.79865 17.83C3.79865 17.7956 3.85223 17.7189 3.91347 17.6615C3.97854 17.604 4.0283 17.5389 4.0283 17.5197C4.0283 17.4814 4.57946 16.9336 4.61774 16.9336C4.63688 16.9336 4.69812 16.8799 4.75553 16.8186C4.81294 16.7535 4.88566 16.7037 4.91628 16.7037C4.94308 16.7037 4.99284 16.6692 5.02346 16.6271C5.05408 16.5849 5.10766 16.5504 5.14594 16.5504C5.18421 16.5504 5.21483 16.5313 5.21483 16.5121C5.21483 16.4891 5.24928 16.4738 5.29138 16.4738C5.33348 16.4738 5.36793 16.4547 5.36793 16.4355C5.36793 16.4125 5.40238 16.3972 5.44448 16.3972C5.48659 16.3972 5.52103 16.3819 5.52103 16.3665C5.52103 16.3512 5.5861 16.3129 5.66648 16.2861C5.74303 16.2593 5.87699 16.2056 5.9612 16.1712C6.0454 16.1328 6.25209 16.0715 6.4205 16.0371C6.58891 16.0026 6.78794 15.9566 6.86067 15.9413C7.04822 15.8953 7.84434 15.8915 7.98596 15.9336ZM31.0315 15.9681C31.4372 16.0409 31.6018 16.0792 31.7204 16.129C31.7855 16.1558 31.8965 16.2018 31.9692 16.2325C32.241 16.3474 32.5242 16.493 32.5357 16.5198C32.5434 16.5351 32.5778 16.5504 32.6161 16.5504C32.6505 16.5504 32.7041 16.5849 32.7347 16.6271C32.7654 16.6692 32.8151 16.7037 32.8457 16.7037C32.8725 16.7037 32.9261 16.7343 32.9606 16.7726C32.995 16.811 33.0601 16.8684 33.106 16.8991C33.2514 16.9987 33.7299 17.4622 33.7299 17.5044C33.7299 17.5274 33.749 17.5465 33.7682 17.5465C33.7911 17.5465 33.8064 17.5657 33.8064 17.5848C33.8064 17.6078 33.8485 17.6691 33.9021 17.7228C33.9557 17.7764 33.9978 17.8339 33.9978 17.853C33.9978 17.8722 34.0208 17.9105 34.0476 17.9373C34.1701 18.0752 34.5337 18.8261 34.5337 18.9487C34.5337 18.9794 34.549 19.0024 34.5681 19.0024C34.5873 19.0024 34.6102 19.0675 34.6217 19.1441C34.6332 19.2246 34.6638 19.3855 34.6906 19.5004C34.7518 19.7801 34.7825 21.0712 34.725 21.0712C34.7059 21.0712 34.6868 21.1478 34.6868 21.2397C34.6868 21.3355 34.6715 21.4236 34.6485 21.4351C34.6294 21.4466 34.6102 21.5194 34.6102 21.5922C34.6102 21.665 34.5949 21.7225 34.5719 21.7225C34.5528 21.7225 34.5337 21.7493 34.5337 21.7799C34.5337 21.8757 34.1968 22.6113 34.1433 22.6343C34.1241 22.6419 34.1126 22.6726 34.1126 22.7032C34.1126 22.7339 34.0973 22.7569 34.0744 22.7569C34.0552 22.7569 34.0361 22.7798 34.0361 22.8105C34.0361 22.8373 33.9863 22.9139 33.9213 22.9791C33.86 23.048 33.8064 23.117 33.8064 23.14C33.8064 23.1859 33.129 23.8679 33.083 23.8679C33.0677 23.8679 32.9988 23.9177 32.9338 23.9828C32.8649 24.0441 32.7845 24.0977 32.7539 24.0977C32.7232 24.0977 32.6965 24.1131 32.6965 24.1361C32.6965 24.1552 32.6697 24.1744 32.639 24.1744C32.6084 24.1744 32.5816 24.1859 32.5816 24.2012C32.5816 24.2357 32.3941 24.3276 32.3252 24.3276C32.2984 24.3276 32.2754 24.3429 32.2754 24.3621C32.2754 24.3812 32.2448 24.4042 32.2104 24.4157C32.1721 24.4311 32.0228 24.4847 31.8735 24.5383C30.9243 24.8946 29.9713 24.9214 28.9952 24.6226C28.8421 24.5766 28.7158 24.5268 28.7158 24.5115C28.7158 24.4924 28.6661 24.4809 28.601 24.4809C28.5398 24.4809 28.4862 24.4617 28.4862 24.4425C28.4862 24.4196 28.4517 24.4042 28.4096 24.4042C28.3675 24.4042 28.3331 24.3851 28.3331 24.3659C28.3331 24.3429 28.2986 24.3276 28.2565 24.3276C28.2144 24.3276 28.18 24.3085 28.18 24.2893C28.18 24.2663 28.1532 24.251 28.1226 24.251C28.0919 24.251 28.0652 24.2318 28.0652 24.2127C28.0652 24.1897 28.0384 24.1744 28.0077 24.1744C27.9771 24.1744 27.9503 24.1629 27.9503 24.1437C27.9503 24.1284 27.8967 24.0901 27.8278 24.0633C27.6824 23.9981 27.6326 23.956 27.2116 23.5346C26.825 23.1515 26.649 22.9484 26.649 22.8833C26.649 22.8565 26.6337 22.8335 26.6107 22.8335C26.5916 22.8335 26.5724 22.8067 26.5724 22.776C26.5724 22.7454 26.5571 22.7185 26.5341 22.7185C26.515 22.7185 26.4959 22.6917 26.4959 22.6611C26.4959 22.6304 26.4806 22.6036 26.4576 22.6036C26.4385 22.6036 26.4193 22.5691 26.4193 22.527C26.4193 22.4848 26.404 22.4504 26.381 22.4504C26.3619 22.4504 26.3428 22.4159 26.3428 22.3737C26.3428 22.3316 26.3275 22.2971 26.3045 22.2971C26.2854 22.2971 26.2662 22.255 26.2662 22.2013C26.2662 22.1477 26.2509 22.1056 26.2279 22.1056C26.2088 22.1056 26.1897 22.0711 26.1897 22.0289C26.1897 21.9868 26.1744 21.9523 26.1514 21.9523C26.1323 21.9523 26.1131 21.9025 26.1131 21.8412C26.1131 21.7761 26.0978 21.7186 26.0787 21.7071C26.0634 21.6956 26.0366 21.6305 26.0251 21.5615C26.0098 21.4926 25.9753 21.3125 25.9409 21.1669C25.8682 20.8336 25.8567 20.0253 25.9217 19.669C25.9792 19.3548 26.1935 18.6422 26.2356 18.6269C26.2509 18.6192 26.2662 18.5809 26.2662 18.5388C26.2662 18.5005 26.2854 18.466 26.3045 18.466C26.3275 18.466 26.3428 18.4239 26.3428 18.3702C26.3428 18.3166 26.3619 18.2744 26.381 18.2744C26.404 18.2744 26.4193 18.2476 26.4193 18.217C26.4193 18.1863 26.4346 18.1595 26.4499 18.1595C26.4691 18.1595 26.5035 18.0982 26.5341 18.0254C26.5648 17.9526 26.5992 17.8913 26.6107 17.8913C26.626 17.8913 26.6566 17.8492 26.6796 17.7994C26.7255 17.6921 26.8901 17.5044 27.1733 17.2247C27.5293 16.8799 27.6403 16.7803 27.6824 16.7803C27.7015 16.7803 27.7207 16.7612 27.7207 16.742C27.7207 16.719 27.7475 16.7037 27.7781 16.7037C27.8087 16.7037 27.8355 16.6845 27.8355 16.6654C27.8355 16.6424 27.8623 16.6271 27.8929 16.6271C27.9235 16.6271 27.9503 16.6079 27.9503 16.5887C27.9503 16.5658 27.9848 16.5504 28.0269 16.5504C28.069 16.5504 28.1034 16.5389 28.1034 16.5198C28.1034 16.5045 28.1494 16.4738 28.2029 16.447C28.3254 16.3895 28.4096 16.4547 28.4096 16.6041C28.4096 16.6577 28.4288 16.7037 28.4479 16.7037C28.4709 16.7037 28.4862 16.7535 28.4862 16.8186C28.4862 16.8799 28.5053 16.9336 28.5245 16.9336C28.5474 16.9336 28.5627 16.9948 28.5627 17.0676C28.5627 17.1404 28.5819 17.2017 28.601 17.2017C28.624 17.2017 28.6393 17.2439 28.6393 17.2975C28.6393 17.3511 28.6546 17.4239 28.6737 17.4622C28.7311 17.5733 28.7924 17.7956 28.7924 17.8837C28.7924 17.9296 28.8115 17.968 28.8307 17.968C28.8536 17.968 28.8689 18.0024 28.8689 18.0446C28.8689 18.0829 28.8842 18.1557 28.9034 18.2055C28.9225 18.2553 29.0029 18.5005 29.0794 18.7533C29.1598 19.0062 29.2364 19.2475 29.2517 19.2897C29.3244 19.4851 29.3665 19.646 29.3665 19.7226C29.3665 19.7686 29.3857 19.8069 29.4048 19.8069C29.4278 19.8069 29.4431 19.8567 29.4431 19.9218C29.4431 19.9831 29.4622 20.0368 29.4813 20.0368C29.5043 20.0368 29.5196 20.0866 29.5196 20.1517C29.5196 20.213 29.5388 20.2666 29.5579 20.2666C29.5809 20.2666 29.5962 20.3279 29.5962 20.4007C29.5962 20.4735 29.6153 20.5348 29.6344 20.5348C29.6574 20.5348 29.6727 20.5846 29.6727 20.6497C29.6727 20.711 29.6919 20.7647 29.711 20.7647C29.734 20.7647 29.7493 20.7915 29.7493 20.8221C29.7493 20.9064 30.0019 21.1478 30.0899 21.1478C30.132 21.1478 30.1779 21.1631 30.1894 21.1861C30.2047 21.2091 30.4841 21.2244 30.9014 21.2244H31.5865V20.5923V19.9601H31.1846C30.8095 19.9601 30.7827 19.9563 30.7827 19.8835C30.7827 19.8414 30.7674 19.8069 30.7444 19.8069C30.7253 19.8069 30.7061 19.7533 30.7061 19.692C30.7061 19.6268 30.6908 19.577 30.6679 19.577C30.6487 19.577 30.6296 19.5157 30.6296 19.4429C30.6296 19.3701 30.6143 19.3088 30.5913 19.3088C30.5722 19.3088 30.553 19.2552 30.553 19.1939C30.553 19.1288 30.5377 19.079 30.5148 19.079C30.4956 19.079 30.4765 19.0407 30.4765 18.9985C30.4765 18.9526 30.4267 18.7687 30.3655 18.5848C30.3081 18.4047 30.2086 18.0982 30.1512 17.9105C29.9751 17.332 29.9636 17.2975 29.933 17.2592C29.9177 17.24 29.9024 17.1864 29.9024 17.1366C29.9024 17.0868 29.8871 17.0178 29.8679 16.9795C29.8105 16.8684 29.7493 16.6462 29.7493 16.5581C29.7493 16.5121 29.734 16.4738 29.711 16.4738C29.6919 16.4738 29.6727 16.4202 29.6727 16.3589C29.6727 16.2938 29.6574 16.2439 29.6344 16.2439C29.6153 16.2439 29.5962 16.1865 29.5962 16.1175C29.5962 16.0026 29.6115 15.9834 29.7416 15.949C29.91 15.8991 30.7023 15.9145 31.0315 15.9681ZM11.2432 18.0752C11.2623 18.1212 11.2929 18.1595 11.3083 18.1595C11.3274 18.1595 11.3389 18.1863 11.3389 18.217C11.3389 18.2476 11.358 18.2744 11.3771 18.2744C11.4001 18.2744 11.4154 18.3166 11.4154 18.3702C11.4154 18.4239 11.4346 18.466 11.4537 18.466C11.4767 18.466 11.492 18.5005 11.492 18.5426C11.492 18.5848 11.5111 18.6192 11.5302 18.6192C11.5532 18.6192 11.5685 18.669 11.5685 18.7342C11.5685 18.7955 11.5838 18.8491 11.5991 18.8491C11.6145 18.8491 11.6527 18.9296 11.6795 19.0292C11.7063 19.1326 11.7446 19.2629 11.7637 19.3242C11.8441 19.5809 11.8862 19.5655 10.9485 19.5923C10.4777 19.6038 9.9112 19.623 9.68538 19.6383C9.45573 19.6498 9.27201 19.6498 9.27201 19.6383C9.27201 19.6038 9.39832 19.4812 9.6739 19.2514C9.80021 19.1441 9.98393 18.9794 10.0834 18.8759C10.183 18.7763 10.2825 18.6959 10.3054 18.6959C10.3284 18.6959 10.4356 18.6039 10.5466 18.4928C10.8528 18.1902 11.1245 17.968 11.1666 17.9794C11.1858 17.9871 11.2202 18.0293 11.2432 18.0752Z" fill="#0046C0" fill-opacity="0.6"/>
<path id="Vector_2" d="M16.4369 9.59253C16.4247 9.61283 16.3395 9.63314 16.2501 9.63314C16.1649 9.63314 16.0918 9.64938 16.0918 9.67374C16.0918 9.69404 16.0187 9.71434 15.9294 9.71434C15.84 9.71434 15.7669 9.73058 15.7669 9.75495C15.7669 9.77525 15.6939 9.79555 15.6045 9.79555C15.5152 9.79555 15.4421 9.81179 15.4421 9.83615C15.4421 9.85646 15.3812 9.87676 15.3041 9.87676C15.2269 9.87676 15.1498 9.893 15.1376 9.91736C15.1254 9.93766 15.0604 9.95796 14.9955 9.95796C14.9305 9.95796 14.8656 9.97421 14.8534 9.99857C14.8412 10.0189 14.7559 10.0392 14.6666 10.0392C14.5813 10.0392 14.5082 10.0554 14.5082 10.0757C14.5082 10.096 14.4473 10.1204 14.3783 10.1326C14.3052 10.1447 14.1712 10.1732 14.0819 10.1975C13.9926 10.2178 13.7652 10.2747 13.5744 10.3234C13.3835 10.3681 13.1277 10.4452 13.0018 10.4858C12.88 10.5305 12.7298 10.567 12.6689 10.567C12.6121 10.567 12.5511 10.5833 12.539 10.6076C12.5268 10.6279 12.4496 10.6482 12.3725 10.6482C12.2953 10.6482 12.2344 10.6645 12.2344 10.6888C12.2344 10.7091 12.1614 10.7294 12.072 10.7294C11.9827 10.7294 11.9096 10.7457 11.9096 10.77C11.9096 10.7903 11.8365 10.8106 11.7472 10.8106C11.6579 10.8106 11.5848 10.8269 11.5848 10.8512C11.5848 10.8715 11.5198 10.8918 11.4427 10.8918C11.3655 10.8918 11.3006 10.9081 11.3006 10.9324C11.3006 10.9528 11.2721 10.9731 11.2397 10.9731C11.1706 10.9731 10.8945 11.2329 10.8945 11.2979C10.8945 11.3182 10.8783 11.3385 10.8539 11.3385C10.8336 11.3385 10.8133 11.3831 10.8133 11.4359C10.8133 11.4928 10.7971 11.5496 10.7727 11.5618C10.6915 11.6105 10.7768 12.1506 10.862 12.1506C10.8823 12.1506 10.8945 12.179 10.8945 12.2155C10.8945 12.2927 11.0894 12.4754 11.1706 12.4754C11.195 12.4754 11.2193 12.4916 11.2193 12.5079C11.2193 12.5241 11.3249 12.5728 11.4549 12.6134C11.5807 12.654 11.7147 12.6987 11.7472 12.7109C12.1654 12.8571 13.2414 12.8449 13.818 12.6825C14.1672 12.585 14.8737 12.2602 14.9062 12.179C14.9143 12.1627 14.9468 12.1506 14.9792 12.1506C15.0117 12.1506 15.0361 12.1303 15.0361 12.11C15.0361 12.0856 15.0726 12.0693 15.1173 12.0693C15.162 12.0693 15.1985 12.049 15.1985 12.0287C15.1985 12.0044 15.235 11.9881 15.2797 11.9881C15.3244 11.9881 15.3609 11.9719 15.3609 11.9516C15.3609 11.9313 15.4178 11.8948 15.4827 11.8663C15.5518 11.8379 15.6045 11.8014 15.6045 11.7811C15.6045 11.7608 15.6411 11.7445 15.6817 11.7445C15.7263 11.7445 15.7669 11.7283 15.7751 11.712C15.7832 11.6917 15.8969 11.6187 16.0309 11.5415C16.2907 11.3953 16.5262 11.2451 16.6074 11.1761C16.6359 11.1558 16.6846 11.1355 16.7211 11.1355C16.7536 11.1355 16.782 11.1152 16.782 11.0949C16.782 11.0705 16.8105 11.0543 16.8429 11.0543C16.8754 11.0543 16.9038 11.034 16.9038 11.0137C16.9038 10.9893 16.9242 10.9731 16.9485 10.9731C17.0175 10.9731 17.0987 10.8715 17.2084 10.6563C17.3342 10.4005 17.3342 10.2869 17.2084 10.0311C17.0906 9.79961 17.0175 9.71434 16.9282 9.71434C16.8917 9.71434 16.8632 9.69404 16.8632 9.67374C16.8632 9.64938 16.8105 9.63314 16.7414 9.63314C16.6765 9.63314 16.6196 9.61283 16.6196 9.59253C16.6196 9.56817 16.5831 9.55193 16.5425 9.55193C16.4978 9.55193 16.4491 9.56817 16.4369 9.59253Z" fill="#0046C0" fill-opacity="0.6"/>
</g>
</svg>
