 <svg width="38" height="23" viewBox="0 0 38 23" fill="none" xmlns="http://www.w3.org/2000/svg">
<g id="ICONE BIKE PERFORMANCE">
<path id="Vector" d="M10.2958 0.0994816C10.2958 0.179066 10.2761 0.198963 10.1975 0.198963C10.115 0.198963 10.0993 0.218859 10.0993 0.31834C10.0993 0.409863 10.0836 0.437717 10.0207 0.437717C9.95388 0.437717 9.94209 0.46557 9.94209 0.636679C9.94209 0.807785 9.95388 0.83564 10.0207 0.83564C10.0796 0.83564 10.0993 0.863495 10.0993 0.935122C10.0993 1.01869 10.1189 1.0346 10.2172 1.0346C10.3154 1.0346 10.3351 1.05052 10.3351 1.13408V1.23356L11.1524 1.24152L11.9659 1.25346L11.9777 1.46038C11.9895 1.65536 11.9973 1.67128 12.0877 1.67128C12.1781 1.67128 12.182 1.67924 12.182 1.98962C12.182 2.30398 12.182 2.30796 12.2802 2.30796C12.3746 2.30796 12.3785 2.3199 12.3785 2.54273C12.3785 2.93668 12.4178 3.1436 12.4964 3.1436C12.571 3.1436 12.6143 3.31073 12.6143 3.60917C12.6143 3.76436 12.6221 3.78028 12.7125 3.78028C12.8108 3.78028 12.8108 3.78426 12.8108 4.09862C12.8108 4.41298 12.8108 4.41696 12.909 4.41696H13.0072V4.81488V5.2128H13.1055C13.1959 5.2128 13.2037 5.22872 13.2037 5.37993C13.2037 5.68235 13.2469 5.84948 13.3216 5.84948C13.3923 5.84948 13.4395 6.05242 13.4395 6.35086C13.4395 6.46626 13.4277 6.48616 13.3452 6.48616C13.2627 6.48616 13.2469 6.51003 13.2234 6.68512C13.1998 6.86021 13.1841 6.88408 13.1016 6.88408C13.023 6.88408 13.0072 6.90398 13.0072 7.00346C13.0072 7.10294 12.9915 7.12284 12.909 7.12284C12.8304 7.12284 12.8108 7.14273 12.8108 7.22232C12.8108 7.3019 12.7911 7.3218 12.7164 7.3218C12.6339 7.3218 12.6182 7.34568 12.5946 7.52076C12.571 7.69585 12.5553 7.71972 12.4728 7.71972C12.3942 7.71972 12.3785 7.73962 12.3785 7.8391C12.3785 7.93858 12.3628 7.95848 12.2802 7.95848C12.2017 7.95848 12.182 7.97837 12.182 8.05796C12.182 8.13754 12.1624 8.15744 12.0838 8.15744C12.0052 8.15744 11.9855 8.17734 11.9855 8.25692C11.9855 8.35242 11.9737 8.3564 11.7694 8.3564C11.565 8.3564 11.5533 8.35242 11.5533 8.25692C11.5533 8.1654 11.5415 8.15744 11.3568 8.15744C11.176 8.15744 11.1603 8.14948 11.1603 8.06194C11.1603 7.97837 11.1367 7.96644 10.9442 7.93858C10.7713 7.91868 10.728 7.89879 10.728 7.84308C10.728 7.7635 10.5669 7.71972 10.2879 7.71972C10.1543 7.71972 10.1386 7.70779 10.1386 7.62024C10.1386 7.52076 10.1346 7.52076 9.8242 7.52076C9.51375 7.52076 9.50982 7.52076 9.50982 7.42128V7.3218H7.76112H6.01241V7.42128C6.01241 7.52076 6.00848 7.52076 5.67839 7.52076C5.34829 7.52076 5.34436 7.52076 5.34436 7.62024C5.34436 7.70779 5.32865 7.71972 5.19897 7.71972C4.91603 7.71972 4.75491 7.7635 4.75491 7.84308C4.75491 7.89879 4.71169 7.91868 4.53878 7.93858C4.34623 7.96644 4.32265 7.97837 4.32265 8.06194C4.32265 8.14948 4.30693 8.15744 4.12616 8.15744C3.94147 8.15744 3.92968 8.1654 3.92968 8.25692C3.92968 8.34844 3.91789 8.3564 3.7332 8.3564C3.5485 8.3564 3.53671 8.36436 3.53671 8.45588C3.53671 8.53945 3.51706 8.55536 3.41882 8.55536C3.32058 8.55536 3.30093 8.57128 3.30093 8.65087C3.30093 8.73443 3.27735 8.75035 3.10445 8.77422C2.93154 8.7981 2.90796 8.81401 2.90796 8.89758C2.90796 8.97716 2.88831 8.99308 2.79007 8.99308C2.69183 8.99308 2.67218 9.009 2.67218 9.09256C2.67218 9.17215 2.65253 9.19204 2.57394 9.19204C2.49535 9.19204 2.4757 9.21194 2.4757 9.29152C2.4757 9.37111 2.45605 9.391 2.37746 9.391C2.29493 9.391 2.27921 9.4109 2.27921 9.51038C2.27921 9.60986 2.2635 9.62976 2.18097 9.62976C2.10238 9.62976 2.08273 9.64965 2.08273 9.72924C2.08273 9.8128 2.06308 9.82872 1.96484 9.82872C1.8666 9.82872 1.84695 9.84464 1.84695 9.9282C1.84695 10.0078 1.8273 10.0277 1.74871 10.0277C1.66618 10.0277 1.65047 10.0476 1.65047 10.1471C1.65047 10.2465 1.63475 10.2664 1.55222 10.2664C1.46184 10.2664 1.45398 10.2784 1.45398 10.4654C1.45398 10.6604 1.45005 10.6644 1.33609 10.6644C1.23785 10.6644 1.2182 10.6803 1.2182 10.7599C1.2182 10.8315 1.19462 10.8593 1.12782 10.8713C1.05315 10.8832 1.04137 10.9111 1.02958 11.0901C1.01779 11.2851 1.00993 11.301 0.919545 11.301C0.833092 11.301 0.825233 11.317 0.825233 11.5C0.825233 11.683 0.817373 11.699 0.73092 11.699C0.640538 11.699 0.632678 11.7149 0.620889 11.9059C0.6091 12.0849 0.597311 12.1168 0.526577 12.1287C0.436194 12.1407 0.392968 12.2879 0.392968 12.5824C0.392968 12.7017 0.377249 12.7296 0.306515 12.7415C0.223992 12.7535 0.216132 12.7773 0.204343 13.0798C0.192554 13.4021 0.192554 13.41 0.098242 13.41H0V15.1609V16.9118H0.098242C0.192554 16.9118 0.192554 16.9197 0.204343 17.2381C0.216132 17.5445 0.223992 17.5683 0.306515 17.5803C0.37332 17.5922 0.392968 17.6201 0.392968 17.7036C0.392968 17.7673 0.404757 17.8986 0.416546 18.0021C0.440124 18.1612 0.455843 18.1851 0.534436 18.1851C0.620889 18.1851 0.628749 18.201 0.628749 18.404C0.628749 18.6109 0.632678 18.6228 0.726991 18.6228C0.817373 18.6228 0.825233 18.6348 0.825233 18.8218C0.825233 19.0048 0.833092 19.0208 0.919545 19.0208C1.00207 19.0208 1.01386 19.0446 1.03744 19.2157C1.05708 19.3789 1.07673 19.4147 1.1514 19.4266C1.21427 19.4346 1.24178 19.4704 1.24964 19.546C1.26143 19.6336 1.28501 19.6574 1.35967 19.6574C1.43826 19.6574 1.45398 19.6773 1.45398 19.7768C1.45398 19.8763 1.4697 19.8962 1.55222 19.8962C1.64261 19.8962 1.65047 19.9121 1.65047 20.0713C1.65047 20.2344 1.65832 20.2503 1.7605 20.2623C1.84302 20.2702 1.87053 20.2981 1.87839 20.3856C1.89018 20.4692 1.91375 20.4931 1.98842 20.4931C2.06308 20.4931 2.08273 20.513 2.08273 20.5926C2.08273 20.6721 2.10238 20.692 2.18097 20.692C2.25957 20.692 2.27921 20.7119 2.27921 20.7915C2.27921 20.8711 2.29886 20.891 2.37353 20.891C2.44819 20.891 2.47177 20.9149 2.48356 20.9984C2.49142 21.086 2.51892 21.1138 2.60538 21.1218C2.6879 21.1337 2.71148 21.1576 2.71148 21.2332C2.71148 21.3208 2.7272 21.3287 2.90796 21.3287C3.09266 21.3287 3.10445 21.3367 3.10445 21.4282C3.10445 21.5078 3.12409 21.5277 3.20269 21.5277C3.28128 21.5277 3.30093 21.5476 3.30093 21.6232C3.30093 21.7067 3.32451 21.7227 3.49348 21.7465C3.6546 21.7664 3.68997 21.7903 3.70176 21.858C3.70962 21.9216 3.74498 21.9495 3.82358 21.9574C3.9061 21.9694 3.92968 21.9933 3.92968 22.0689C3.92968 22.1564 3.94147 22.1644 4.14581 22.1644C4.35015 22.1644 4.36194 22.1683 4.36194 22.2638C4.36194 22.3514 4.37766 22.3633 4.51127 22.3633C4.79028 22.3633 4.9514 22.4071 4.9514 22.4867C4.9514 22.5424 4.99462 22.5623 5.16753 22.5822C5.3365 22.6061 5.38366 22.626 5.38366 22.6817C5.38366 22.7652 5.54871 22.801 5.9456 22.801C6.20103 22.801 6.20889 22.805 6.20889 22.9005V23H7.66287H9.11686V22.9005C9.11686 22.805 9.12079 22.805 9.52161 22.7931C9.90279 22.7811 9.92244 22.7772 9.93423 22.6896C9.94602 22.618 9.97353 22.6021 10.0914 22.6021C10.3665 22.6021 10.5315 22.5583 10.5315 22.4827C10.5315 22.4071 10.6966 22.3633 10.9756 22.3633C11.1053 22.3633 11.121 22.3514 11.121 22.2638C11.121 22.1683 11.1328 22.1644 11.3371 22.1644C11.5415 22.1644 11.5533 22.1604 11.5533 22.0649C11.5533 21.9813 11.5729 21.9654 11.6711 21.9654C11.7694 21.9654 11.789 21.9495 11.789 21.8699C11.789 21.7863 11.8126 21.7704 11.9855 21.7465C12.1584 21.7227 12.182 21.7067 12.182 21.6232C12.182 21.5436 12.2017 21.5277 12.2999 21.5277C12.3981 21.5277 12.4178 21.5118 12.4178 21.4282C12.4178 21.3486 12.4374 21.3287 12.516 21.3287C12.5946 21.3287 12.6143 21.3088 12.6143 21.2332C12.6143 21.1497 12.6378 21.1337 12.8108 21.1099C12.9837 21.086 13.0072 21.0701 13.0072 20.9865C13.0072 20.9109 13.0269 20.891 13.1055 20.891C13.1841 20.891 13.2037 20.8711 13.2037 20.7915C13.2037 20.7119 13.2234 20.692 13.302 20.692C13.3806 20.692 13.4002 20.6721 13.4002 20.5926C13.4002 20.509 13.4199 20.4931 13.5181 20.4931C13.6321 20.4931 13.636 20.4891 13.636 20.2941C13.636 20.1111 13.6438 20.0952 13.7303 20.0952C13.805 20.0952 13.8285 20.0713 13.8403 19.9877C13.8482 19.9081 13.8757 19.8723 13.9425 19.8644C14.0054 19.8524 14.029 19.8246 14.029 19.7529C14.029 19.6773 14.0486 19.6574 14.1233 19.6574C14.2058 19.6574 14.2215 19.6336 14.2451 19.4625C14.2647 19.2993 14.2883 19.2635 14.3551 19.2516C14.418 19.2436 14.4455 19.2078 14.4534 19.1322C14.4651 19.0446 14.4887 19.0208 14.5634 19.0208C14.6498 19.0208 14.6577 19.0088 14.6577 18.8019C14.6577 18.595 14.6616 18.583 14.7559 18.583C14.8424 18.583 14.8542 18.5671 14.8542 18.4318C14.8542 18.1533 14.8974 17.9862 14.9721 17.9862C15.0467 17.9862 15.09 17.819 15.09 17.5166C15.09 17.3654 15.0978 17.3495 15.1882 17.3495C15.2668 17.3495 15.2865 17.3296 15.2865 17.25V17.1505H15.8956H16.5047V17.25V17.3495H17.0155H17.5264V17.25C17.5264 17.1664 17.546 17.1505 17.6443 17.1505C17.7582 17.1505 17.7621 17.1465 17.7621 16.9555C17.7621 16.7685 17.77 16.7566 17.8722 16.7446C17.9547 16.7367 17.9822 16.7088 17.9901 16.6213C18.0019 16.5377 18.0254 16.5138 18.1001 16.5138C18.1748 16.5138 18.1944 16.4939 18.1944 16.4144C18.1944 16.3348 18.2141 16.3149 18.2927 16.3149C18.3713 16.3149 18.3909 16.295 18.3909 16.2154C18.3909 16.1358 18.4105 16.1159 18.4891 16.1159C18.5717 16.1159 18.5874 16.096 18.5874 15.9965C18.5874 15.8971 18.6031 15.8772 18.6856 15.8772C18.7642 15.8772 18.7839 15.8573 18.7839 15.7777C18.7839 15.6981 18.8035 15.6782 18.8782 15.6782C18.9528 15.6782 18.9764 15.6543 18.9882 15.5668C18.9961 15.4912 19.0236 15.4554 19.0865 15.4474C19.1572 15.4355 19.1768 15.3997 19.2004 15.2564C19.2201 15.1052 19.2397 15.0813 19.3183 15.0813C19.3969 15.0813 19.4126 15.0614 19.4126 14.9619C19.4126 14.8625 19.4283 14.8426 19.5109 14.8426C19.5895 14.8426 19.6091 14.8227 19.6091 14.7431C19.6091 14.6635 19.6287 14.6436 19.7034 14.6436C19.7781 14.6436 19.8017 14.6197 19.8134 14.5322C19.8213 14.4486 19.8488 14.4208 19.9353 14.4128C20.0178 14.4009 20.0414 14.377 20.0414 14.3014C20.0414 14.2258 20.061 14.2059 20.1396 14.2059C20.2182 14.2059 20.2378 14.186 20.2378 14.1064C20.2378 14.0268 20.2575 14.0069 20.3322 14.0069C20.4147 14.0069 20.4265 13.983 20.4501 13.8119C20.4697 13.6488 20.4893 13.613 20.564 13.601C20.6269 13.5931 20.6544 13.5573 20.6623 13.4777C20.674 13.3941 20.6976 13.3702 20.7723 13.3702C20.8469 13.3702 20.8666 13.3503 20.8666 13.2708C20.8666 13.1912 20.8862 13.1713 20.9648 13.1713C21.0434 13.1713 21.0631 13.1514 21.0631 13.0718C21.0631 12.9922 21.0827 12.9723 21.1574 12.9723C21.2321 12.9723 21.2556 12.9484 21.2674 12.8609C21.2753 12.7853 21.3028 12.7495 21.3696 12.7415C21.4325 12.7296 21.456 12.7017 21.456 12.6301C21.456 12.5545 21.4757 12.5346 21.5504 12.5346C21.6329 12.5346 21.6486 12.5107 21.6722 12.3356C21.6958 12.1606 21.7115 12.1367 21.794 12.1367C21.8687 12.1367 21.8883 12.1168 21.8883 12.0412C21.8883 11.9656 21.9119 11.9417 21.9983 11.9298C22.0809 11.9218 22.1084 11.8939 22.1162 11.8064C22.128 11.7228 22.1516 11.699 22.2263 11.699C22.3009 11.699 22.3206 11.6791 22.3206 11.5995C22.3206 11.5199 22.3402 11.5 22.4188 11.5C22.4974 11.5 22.5171 11.4801 22.5171 11.4005C22.5171 11.3209 22.5367 11.301 22.6153 11.301C22.6978 11.301 22.7135 11.2811 22.7135 11.1817C22.7135 11.0822 22.7293 11.0623 22.8118 11.0623C22.8904 11.0623 22.91 11.0424 22.91 10.9628C22.91 10.8832 22.9297 10.8633 23.0043 10.8633C23.0869 10.8633 23.1026 10.8394 23.1262 10.6644C23.1497 10.4893 23.1655 10.4654 23.248 10.4654C23.3226 10.4654 23.3423 10.4455 23.3423 10.3659C23.3423 10.2863 23.3619 10.2664 23.4405 10.2664C23.5231 10.2664 23.5388 10.2465 23.5388 10.1471C23.5388 10.0476 23.5545 10.0277 23.637 10.0277C23.7156 10.0277 23.7353 10.0078 23.7353 9.9282C23.7353 9.84464 23.7549 9.82872 23.8532 9.82872C23.9514 9.82872 23.971 9.8128 23.971 9.73322C23.971 9.66159 23.9946 9.63374 24.0614 9.6218C24.1243 9.61384 24.1518 9.57803 24.1597 9.49844C24.1715 9.41488 24.195 9.391 24.2697 9.391C24.3562 9.391 24.364 9.37509 24.364 9.19602C24.364 9.009 24.3719 8.99706 24.474 8.98512C24.5487 8.97716 24.5841 8.94931 24.5919 8.88564C24.5998 8.82993 24.6352 8.79412 24.6902 8.78616C24.753 8.7782 24.7806 8.74239 24.7884 8.6628C24.8002 8.57924 24.8238 8.55536 24.8984 8.55536C24.9731 8.55536 24.9928 8.53547 24.9928 8.45588C24.9928 8.3763 25.0124 8.3564 25.091 8.3564C25.1696 8.3564 25.1892 8.33651 25.1892 8.25692C25.1892 8.17734 25.2089 8.15744 25.2836 8.15744C25.3582 8.15744 25.3818 8.13356 25.3936 8.04602C25.4014 7.97042 25.429 7.9346 25.4918 7.92664C25.5626 7.91471 25.5822 7.87889 25.6058 7.73962C25.6254 7.60035 25.649 7.56055 25.7158 7.5526C25.7748 7.54464 25.8023 7.50882 25.8101 7.42924C25.8219 7.34568 25.8455 7.3218 25.9202 7.3218C25.9948 7.3218 26.0145 7.3019 26.0145 7.22232C26.0145 7.14273 26.0341 7.12284 26.1088 7.12284C26.1835 7.12284 26.207 7.09896 26.2188 7.01142C26.2267 6.92785 26.2503 6.90398 26.3289 6.90398C26.3996 6.90398 26.431 6.92785 26.4389 6.99152C26.4467 7.04723 26.4821 7.08305 26.5371 7.091C26.6118 7.10294 26.6236 7.1308 26.6354 7.30986C26.6472 7.50484 26.655 7.52076 26.7454 7.52076C26.8358 7.52076 26.8397 7.52872 26.8397 7.81523V8.11367L26.6236 8.13754C26.431 8.1654 26.4074 8.17734 26.4074 8.2609C26.4074 8.34844 26.3917 8.3564 26.211 8.3564C26.0302 8.3564 26.0145 8.36436 26.0145 8.4519C26.0145 8.53547 25.9909 8.55138 25.818 8.57526C25.6451 8.59914 25.6215 8.61505 25.6215 8.69862C25.6215 8.7782 25.6019 8.79412 25.5036 8.79412C25.4054 8.79412 25.3857 8.81003 25.3857 8.8936C25.3857 8.97318 25.3661 8.99308 25.2875 8.99308C25.2089 8.99308 25.1892 9.01298 25.1892 9.09256C25.1892 9.17215 25.1696 9.19204 25.091 9.19204C25.0124 9.19204 24.9928 9.21194 24.9928 9.28754C24.9928 9.36315 24.9692 9.38702 24.8867 9.39896C24.8081 9.40692 24.7727 9.43478 24.7648 9.49844C24.757 9.55415 24.7216 9.58997 24.6666 9.59792C24.6037 9.60588 24.5762 9.6417 24.5684 9.7173C24.5566 9.80484 24.533 9.82872 24.4583 9.82872C24.3837 9.82872 24.364 9.84862 24.364 9.9282C24.364 10.0078 24.3444 10.0277 24.2697 10.0277C24.195 10.0277 24.1715 10.0516 24.1597 10.1351C24.1518 10.2147 24.1243 10.2505 24.0614 10.2585C23.9946 10.2704 23.971 10.2983 23.971 10.3699C23.971 10.4455 23.9514 10.4654 23.8767 10.4654C23.7942 10.4654 23.7785 10.4893 23.7549 10.6644C23.7313 10.8394 23.7156 10.8633 23.6331 10.8633C23.5545 10.8633 23.5388 10.8832 23.5388 10.9827C23.5388 11.0822 23.5231 11.1021 23.4405 11.1021C23.3502 11.1021 23.3423 11.114 23.3423 11.301C23.3423 11.4881 23.3344 11.5 23.2441 11.5C23.1576 11.5 23.1458 11.5159 23.1458 11.6472C23.1458 11.9457 23.1026 12.0929 23.0122 12.1048C22.9415 12.1168 22.9297 12.1486 22.9179 12.3237C22.9061 12.5028 22.8943 12.5306 22.8196 12.5426C22.7371 12.5545 22.7332 12.5784 22.7214 12.9604C22.7096 13.3623 22.7096 13.3702 22.6153 13.3702H22.521L22.5092 14.2536C22.5013 14.7431 22.5013 15.5389 22.5092 16.0244L22.521 16.9118H22.6153C22.7057 16.9118 22.7096 16.9237 22.7214 17.2381C22.7332 17.5445 22.7411 17.5683 22.8236 17.5803C22.8943 17.5922 22.91 17.6201 22.91 17.7394C22.91 18.022 22.9533 18.1851 23.0319 18.1851C23.0869 18.1851 23.1065 18.2289 23.1262 18.404C23.1537 18.599 23.1655 18.6228 23.248 18.6228C23.3344 18.6228 23.3423 18.6388 23.3423 18.8218C23.3423 19.0088 23.3502 19.0208 23.4405 19.0208C23.5309 19.0208 23.5388 19.0327 23.5388 19.2197C23.5388 19.4067 23.5466 19.4187 23.637 19.4187C23.7195 19.4187 23.7353 19.4386 23.7353 19.5381C23.7353 19.6375 23.751 19.6574 23.8296 19.6574C23.9121 19.6574 23.9278 19.6813 23.9514 19.8564C23.975 20.0315 23.9907 20.0554 24.0732 20.0554C24.1518 20.0554 24.1675 20.0753 24.1675 20.1747C24.1675 20.2742 24.1832 20.2941 24.2658 20.2941C24.3444 20.2941 24.364 20.314 24.364 20.3936C24.364 20.4732 24.3837 20.4931 24.4623 20.4931C24.5408 20.4931 24.5605 20.513 24.5605 20.5926C24.5605 20.6761 24.5801 20.692 24.6784 20.692C24.7766 20.692 24.7963 20.708 24.7963 20.7875C24.7963 20.8592 24.8199 20.887 24.8867 20.899C24.9495 20.9069 24.977 20.9427 24.9849 21.0183C24.9967 21.1059 25.0203 21.1298 25.0949 21.1298C25.1696 21.1298 25.1892 21.1497 25.1892 21.2292C25.1892 21.3208 25.201 21.3287 25.3857 21.3287C25.5704 21.3287 25.5822 21.3367 25.5822 21.4282C25.5822 21.5118 25.6019 21.5277 25.7001 21.5277C25.7983 21.5277 25.818 21.5436 25.818 21.6232C25.818 21.7067 25.8416 21.7227 26.0145 21.7465C26.1874 21.7704 26.211 21.7863 26.211 21.8699C26.211 21.9495 26.2306 21.9654 26.3289 21.9654C26.4271 21.9654 26.4467 21.9813 26.4467 22.0649C26.4467 22.1564 26.4585 22.1644 26.6432 22.1644C26.8279 22.1644 26.8397 22.1723 26.8397 22.2638C26.8397 22.3554 26.8554 22.3633 27.0087 22.3633C27.3034 22.3633 27.4685 22.4071 27.4685 22.4827C27.4685 22.5583 27.6335 22.6021 27.9086 22.6021C28.0265 22.6021 28.054 22.618 28.0658 22.6896C28.0776 22.7772 28.0972 22.7811 28.502 22.7931C28.9185 22.805 28.9224 22.805 28.9224 22.9005V23H30.1603H31.3981V22.9005C31.3981 22.801 31.4021 22.801 31.7636 22.801C32.2509 22.801 32.4199 22.7692 32.4199 22.6817C32.4199 22.614 32.6203 22.5623 32.8953 22.5623C32.9779 22.5623 33.0054 22.5424 33.0172 22.4708C33.029 22.3952 33.0565 22.3832 33.2372 22.3713C33.4259 22.3593 33.4416 22.3514 33.4416 22.2599C33.4416 22.1683 33.4534 22.1644 33.6577 22.1644C33.8581 22.1644 33.8738 22.1564 33.8738 22.0689C33.8738 21.9853 33.8974 21.9734 34.0703 21.9495C34.2275 21.9296 34.2668 21.9097 34.2668 21.846C34.2668 21.7943 34.2982 21.7664 34.3768 21.7585C34.4515 21.7505 34.4869 21.7227 34.4947 21.659C34.5065 21.5834 34.5419 21.5635 34.703 21.5436C34.872 21.5197 34.8956 21.5078 34.8956 21.4242C34.8956 21.3486 34.9152 21.3287 34.9938 21.3287C35.0724 21.3287 35.092 21.3088 35.092 21.2292C35.092 21.1457 35.1117 21.1298 35.2099 21.1298C35.3082 21.1298 35.3278 21.1138 35.3278 21.0303C35.3278 20.9507 35.3475 20.9308 35.4261 20.9308C35.5086 20.9308 35.5243 20.9109 35.5243 20.8114C35.5243 20.7119 35.54 20.692 35.6225 20.692C35.7011 20.692 35.7208 20.6721 35.7208 20.5926C35.7208 20.509 35.7404 20.4931 35.8387 20.4931C35.9369 20.4931 35.9566 20.4772 35.9566 20.3936C35.9566 20.314 35.9762 20.2941 36.0548 20.2941C36.1373 20.2941 36.153 20.2742 36.153 20.1747C36.153 20.0753 36.1688 20.0554 36.2513 20.0554C36.3299 20.0554 36.3495 20.0355 36.3495 19.9559C36.3495 19.8763 36.3692 19.8564 36.4478 19.8564C36.5382 19.8564 36.546 19.8445 36.546 19.6574C36.546 19.4744 36.5539 19.4585 36.6403 19.4585C36.715 19.4585 36.7386 19.4346 36.7504 19.351C36.7582 19.2715 36.7857 19.2356 36.8486 19.2277C36.9154 19.2157 36.939 19.1799 36.9586 19.0168C36.9822 18.8457 36.9979 18.8218 37.0805 18.8218C37.1669 18.8218 37.1748 18.8059 37.1748 18.6029C37.1748 18.396 37.1787 18.3841 37.2691 18.3841C37.3595 18.3841 37.3673 18.3682 37.3791 18.1732C37.3909 17.9941 37.4027 17.9663 37.4813 17.9543C37.5481 17.9424 37.5677 17.9145 37.5677 17.831C37.5677 17.5524 37.6188 17.3495 37.6856 17.3495C37.7721 17.3495 37.8035 17.1784 37.8035 16.681C37.8035 16.3189 37.8035 16.3149 37.9018 16.3149H38V14.942V13.5692H37.9018C37.8074 13.5692 37.8074 13.5652 37.7957 13.1593C37.7839 12.7734 37.7799 12.7535 37.6935 12.7415C37.6227 12.7296 37.607 12.7017 37.607 12.5824C37.607 12.5028 37.5952 12.3675 37.5835 12.2839C37.5599 12.1606 37.5402 12.1367 37.4656 12.1367C37.3791 12.1367 37.3713 12.1208 37.3713 11.9178C37.3713 11.7109 37.3673 11.699 37.273 11.699C37.1826 11.699 37.1748 11.687 37.1748 11.5C37.1748 11.317 37.1669 11.301 37.0805 11.301C36.9979 11.301 36.9861 11.2772 36.9626 11.1061C36.9429 10.9429 36.9233 10.9071 36.8486 10.8952C36.7857 10.8872 36.7582 10.8514 36.7504 10.7718C36.7386 10.6882 36.715 10.6644 36.6403 10.6644C36.5539 10.6644 36.546 10.6484 36.546 10.4654C36.546 10.2824 36.5382 10.2664 36.4517 10.2664C36.377 10.2664 36.3535 10.2426 36.3417 10.155C36.3338 10.0794 36.3063 10.0436 36.2434 10.0356C36.1766 10.0237 36.153 9.99585 36.153 9.92422C36.153 9.84464 36.1334 9.82872 36.0352 9.82872C35.9369 9.82872 35.9173 9.8128 35.9173 9.72924C35.9173 9.64965 35.8976 9.62976 35.819 9.62976C35.7404 9.62976 35.7208 9.60986 35.7208 9.53028C35.7208 9.45069 35.7011 9.4308 35.6225 9.4308C35.54 9.4308 35.5243 9.4109 35.5243 9.31142C35.5243 9.20398 35.5125 9.19204 35.4064 9.19204C35.3082 9.19204 35.2885 9.17612 35.2885 9.09654C35.2885 9.01696 35.2649 8.99706 35.1156 8.97716C34.9741 8.95329 34.9388 8.93339 34.927 8.86176C34.9191 8.7981 34.8838 8.77024 34.8091 8.76228C34.7226 8.75035 34.6991 8.72647 34.6991 8.65087C34.6991 8.57128 34.6794 8.55536 34.5812 8.55536C34.4829 8.55536 34.4633 8.53945 34.4633 8.45588C34.4633 8.36436 34.4515 8.3564 34.2668 8.3564C34.0821 8.3564 34.0703 8.34844 34.0703 8.25692C34.0703 8.1654 34.0585 8.15744 33.8738 8.15744C33.6931 8.15744 33.6774 8.14948 33.6774 8.06194C33.6774 7.97042 33.6616 7.96246 33.473 7.95052C33.2962 7.93858 33.2647 7.92664 33.2529 7.85502C33.2412 7.7635 33.0958 7.71972 32.7853 7.71972C32.6321 7.71972 32.6163 7.71177 32.6163 7.62024V7.52076H32.2037H31.7911V7.42128V7.3218H30.2585H28.726V7.42128C28.726 7.52076 28.722 7.52076 28.4116 7.52076C28.1011 7.52076 28.0972 7.52076 28.0972 7.42128C28.0972 7.3417 28.0776 7.3218 28.0029 7.3218C27.9243 7.3218 27.9086 7.29792 27.885 7.13875C27.8732 7.03529 27.8614 6.89204 27.8614 6.82042C27.8614 6.70104 27.8496 6.68512 27.7632 6.68512C27.6689 6.68512 27.6649 6.67716 27.6649 6.38668C27.6649 6.09619 27.661 6.08824 27.5667 6.08824C27.4724 6.08824 27.4685 6.0763 27.4685 5.86938C27.4685 5.66246 27.4645 5.65052 27.3702 5.65052C27.2798 5.65052 27.272 5.6346 27.272 5.47941C27.272 5.18097 27.2287 5.01384 27.1541 5.01384C27.0794 5.01384 27.0362 4.84671 27.0362 4.56419C27.0362 4.43287 27.0244 4.41696 26.938 4.41696C26.8436 4.41696 26.8397 4.40502 26.8397 4.1782C26.8397 3.95138 26.8358 3.93945 26.7415 3.93945C26.6472 3.93945 26.6432 3.93149 26.6432 3.641C26.6432 3.35052 26.6393 3.34256 26.545 3.34256C26.4507 3.34256 26.4467 3.33062 26.4467 3.1237V2.90484H27.2641C27.716 2.90484 28.219 2.91678 28.3841 2.92872C28.667 2.95658 28.6867 2.96055 28.6867 3.0481C28.6867 3.12768 28.7063 3.1436 28.8045 3.1436C28.9028 3.1436 28.9224 3.15952 28.9224 3.24308C28.9224 3.32266 28.9421 3.34256 29.0207 3.34256C29.115 3.34256 29.1189 3.3545 29.1189 3.56142C29.1189 3.76834 29.1229 3.78028 29.2172 3.78028C29.3075 3.78028 29.3154 3.79222 29.3154 3.97924C29.3154 4.16626 29.3075 4.1782 29.2172 4.1782C29.1346 4.1782 29.1189 4.1981 29.1189 4.29758C29.1189 4.39706 29.1032 4.41696 29.0207 4.41696C28.9421 4.41696 28.9224 4.43685 28.9224 4.51644C28.9224 4.61194 28.9107 4.61592 28.7063 4.61592C28.502 4.61592 28.4902 4.6199 28.4902 4.7154C28.4902 4.80692 28.4784 4.81488 28.2976 4.81488C28.1129 4.81488 28.1011 4.82284 28.0893 4.92232C28.0815 5.0019 28.054 5.03772 27.9911 5.04568C27.9047 5.05761 27.9007 5.07751 27.9007 5.35606C27.9007 5.64256 27.9047 5.65052 27.999 5.65052C28.0776 5.65052 28.0972 5.67042 28.0972 5.74602C28.0972 5.82959 28.1208 5.8455 28.2937 5.86938C28.4509 5.89325 28.4902 5.91315 28.4902 5.97284C28.4902 6.02855 28.5177 6.04844 28.6081 6.04844C28.7063 6.04844 28.726 6.03253 28.726 5.94896C28.726 5.85346 28.7338 5.84948 29.0207 5.84948C29.3075 5.84948 29.3154 5.8455 29.3154 5.75C29.3154 5.65848 29.3272 5.65052 29.508 5.65052C29.6927 5.65052 29.7044 5.64256 29.7162 5.5391C29.7241 5.45554 29.7516 5.42768 29.8381 5.41972C29.9206 5.40779 29.9442 5.38391 29.9442 5.30831C29.9442 5.2327 29.9638 5.2128 30.0385 5.2128C30.121 5.2128 30.1367 5.18893 30.1603 5.01384C30.1799 4.85865 30.2035 4.81488 30.2585 4.81488C30.3332 4.81488 30.3764 4.65173 30.3764 4.34533C30.3764 4.20606 30.3882 4.1782 30.455 4.1782C30.5257 4.1782 30.5336 4.15035 30.5336 3.87976C30.5336 3.60917 30.5257 3.58132 30.455 3.58132C30.3882 3.58132 30.3764 3.55346 30.3764 3.41021C30.3764 3.09585 30.3332 2.94862 30.2428 2.93668C30.1839 2.92872 30.1564 2.89291 30.1485 2.81332C30.1367 2.72976 30.1131 2.70588 30.0385 2.70588C29.952 2.70588 29.9442 2.68997 29.9442 2.5109V2.3199L29.7516 2.29204C29.5905 2.27215 29.5551 2.25225 29.5433 2.17664C29.5355 2.11298 29.5001 2.08512 29.4254 2.07716C29.3508 2.0692 29.3154 2.04135 29.3154 1.9936C29.3154 1.91401 29.1543 1.87024 28.8753 1.87024C28.7417 1.87024 28.726 1.8583 28.726 1.77076V1.67128H26.8633H24.9967L24.9849 1.77872C24.977 1.8583 24.9495 1.89412 24.8867 1.90208C24.8002 1.91401 24.7963 1.93391 24.7963 2.21246C24.7963 2.49896 24.8002 2.50692 24.8945 2.50692C24.9888 2.50692 24.9928 2.51488 24.9928 2.80536C24.9928 3.09585 24.9967 3.10381 25.091 3.10381C25.1775 3.10381 25.1853 3.11972 25.1971 3.33062C25.2089 3.53356 25.2207 3.56142 25.2993 3.57336C25.3739 3.58529 25.3857 3.60917 25.3857 3.7564C25.3857 3.92353 25.3818 3.93149 25.2403 3.95536C25.1578 3.9673 24.926 3.97924 24.7295 3.97924C24.3679 3.97924 24.364 3.97924 24.364 4.07872V4.1782H23.8767C23.2833 4.1782 23.1458 4.20208 23.1458 4.30156C23.1458 4.3692 23.1144 4.37716 22.8432 4.37716C22.6742 4.37716 22.3913 4.3891 22.2145 4.40502C21.9433 4.42491 21.8883 4.44083 21.8883 4.49654C21.8883 4.58408 21.7154 4.61592 21.2124 4.61592C20.8627 4.61592 20.8273 4.62388 20.8273 4.69152C20.8273 4.791 20.6898 4.81488 20.0964 4.81488H19.6091V4.91436V5.01384H19.1493C18.5481 5.01384 18.3909 5.0417 18.3909 5.1372C18.3909 5.20485 18.3555 5.2128 18.0412 5.2128C17.5382 5.2128 17.3299 5.24862 17.3299 5.33218C17.3299 5.38789 17.2788 5.40381 17.0273 5.42768C16.8623 5.43962 16.5911 5.45156 16.4221 5.45156C16.1353 5.45156 16.1156 5.45554 16.1038 5.5391C16.092 5.63062 16.0802 5.63062 15.4947 5.64256L14.8935 5.6545V5.75C14.8935 5.83356 14.8738 5.84948 14.7756 5.84948C14.6774 5.84948 14.6577 5.83356 14.6577 5.75C14.6577 5.67042 14.6381 5.65052 14.5595 5.65052C14.4691 5.65052 14.4651 5.63858 14.4534 5.34014C14.4416 5.05761 14.4337 5.03374 14.3551 5.0218C14.2765 5.00986 14.2647 4.98599 14.2647 4.84273C14.2647 4.54429 14.2215 4.37716 14.1468 4.37716C14.0683 4.37716 14.029 4.20606 14.029 3.82803C14.029 3.59325 14.025 3.58132 13.9307 3.58132C13.8325 3.58132 13.8325 3.57734 13.8325 3.26298C13.8325 2.94862 13.8325 2.94464 13.7342 2.94464C13.636 2.94464 13.636 2.94066 13.636 2.6263C13.636 2.31194 13.636 2.30796 13.5377 2.30796C13.4434 2.30796 13.4395 2.3 13.4395 2.03737C13.4395 1.63149 13.4041 1.47232 13.3177 1.47232C13.2666 1.47232 13.243 1.44446 13.243 1.37682C13.243 1.24948 13.3452 1.23356 14.0722 1.23356H14.6577V1.13408C14.6577 1.05052 14.6774 1.0346 14.7756 1.0346C14.8738 1.0346 14.8935 1.01869 14.8935 0.935122C14.8935 0.863495 14.9131 0.83564 14.9721 0.83564C15.0428 0.83564 15.0507 0.807785 15.0507 0.616783C15.0507 0.429758 15.0389 0.397924 14.976 0.397924C14.9171 0.397924 14.8974 0.358131 14.8738 0.198963L14.8463 0H12.571H10.2958V0.0994816ZM25.818 5.13322C25.818 5.2327 25.8337 5.2526 25.9162 5.2526C25.9948 5.2526 26.0145 5.27249 26.0145 5.35208C26.0145 5.43166 25.9948 5.45156 25.9202 5.45156C25.8376 5.45156 25.8219 5.47543 25.7983 5.65052C25.7748 5.82561 25.759 5.84948 25.6765 5.84948C25.6019 5.84948 25.5822 5.86938 25.5822 5.94896C25.5822 6.02855 25.5626 6.04844 25.484 6.04844C25.4014 6.04844 25.3857 6.06834 25.3857 6.16782C25.3857 6.2673 25.37 6.2872 25.2875 6.2872C25.2089 6.2872 25.1892 6.30709 25.1892 6.38668C25.1892 6.46626 25.1696 6.48616 25.091 6.48616C25.0124 6.48616 24.9928 6.50606 24.9928 6.58564C24.9928 6.66523 24.9731 6.68512 24.8984 6.68512C24.8238 6.68512 24.8002 6.709 24.7884 6.79256C24.7806 6.87214 24.753 6.90796 24.6902 6.91592C24.6352 6.92388 24.5998 6.95969 24.5919 7.0154C24.5841 7.07111 24.5487 7.10692 24.4937 7.11488C24.4269 7.12682 24.4033 7.16263 24.3837 7.32578C24.3601 7.49689 24.3444 7.52076 24.2618 7.52076C24.1872 7.52076 24.1675 7.54066 24.1675 7.62024C24.1675 7.69983 24.1479 7.71972 24.0732 7.71972C23.9986 7.71972 23.975 7.7436 23.9632 7.82716C23.9553 7.91471 23.9278 7.94256 23.8453 7.95052C23.7588 7.96246 23.7353 7.98633 23.7353 8.06194C23.7353 8.13754 23.7156 8.15744 23.637 8.15744C23.5584 8.15744 23.5388 8.17734 23.5388 8.25692C23.5388 8.33651 23.5191 8.3564 23.4405 8.3564C23.358 8.3564 23.3423 8.3763 23.3423 8.47578C23.3423 8.57526 23.3266 8.59516 23.248 8.59516C23.1655 8.59516 23.1497 8.61903 23.1262 8.79412C23.1026 8.9692 23.0869 8.99308 23.0043 8.99308C22.9297 8.99308 22.91 9.01298 22.91 9.09256C22.91 9.17215 22.8904 9.19204 22.8118 9.19204C22.7332 9.19204 22.7135 9.21194 22.7135 9.29152C22.7135 9.37111 22.6939 9.391 22.6153 9.391C22.5328 9.391 22.5171 9.4109 22.5171 9.51038C22.5171 9.60986 22.5013 9.62976 22.4188 9.62976C22.3402 9.62976 22.3206 9.64965 22.3206 9.72924C22.3206 9.80882 22.3009 9.82872 22.2263 9.82872C22.1516 9.82872 22.128 9.8526 22.1162 9.93616C22.1084 10.0237 22.0809 10.0516 21.9983 10.0595C21.8962 10.0715 21.8883 10.0874 21.8883 10.2505C21.8883 10.4097 21.8805 10.4256 21.7901 10.4256C21.7075 10.4256 21.6918 10.4455 21.6918 10.545C21.6918 10.6524 21.68 10.6644 21.5739 10.6644C21.4757 10.6644 21.456 10.6803 21.456 10.7638C21.456 10.8434 21.4364 10.8633 21.3578 10.8633C21.2753 10.8633 21.2596 10.8832 21.2596 10.9827C21.2596 11.0822 21.2438 11.1021 21.1613 11.1021C21.0827 11.1021 21.0631 11.122 21.0631 11.2016C21.0631 11.2811 21.0434 11.301 20.9648 11.301C20.8862 11.301 20.8666 11.3209 20.8666 11.4005C20.8666 11.4801 20.8469 11.5 20.7723 11.5C20.6898 11.5 20.674 11.5239 20.6505 11.699C20.6269 11.874 20.6112 11.8979 20.5286 11.8979C20.4501 11.8979 20.4343 11.9178 20.4343 12.0173C20.4343 12.1168 20.4186 12.1367 20.3361 12.1367C20.2575 12.1367 20.2378 12.1566 20.2378 12.2362C20.2378 12.3157 20.2182 12.3356 20.1396 12.3356C20.061 12.3356 20.0414 12.3555 20.0414 12.4351C20.0414 12.5147 20.0217 12.5346 19.9471 12.5346C19.8724 12.5346 19.8488 12.5585 19.837 12.642C19.8292 12.7296 19.8017 12.7574 19.7191 12.7654C19.6327 12.7773 19.6091 12.8012 19.6091 12.8768C19.6091 12.9524 19.5895 12.9723 19.5109 12.9723C19.4205 12.9723 19.4126 12.9843 19.4126 13.1713C19.4126 13.3583 19.4048 13.3702 19.3144 13.3702C19.2358 13.3702 19.2161 13.3901 19.2161 13.4657C19.2161 13.5413 19.1926 13.5652 19.11 13.5772C19.0236 13.5851 18.9961 13.613 18.9882 13.6965C18.9764 13.7841 18.9528 13.808 18.8782 13.808C18.8035 13.808 18.7839 13.8279 18.7839 13.9074C18.7839 13.987 18.7642 14.0069 18.6856 14.0069C18.607 14.0069 18.5874 14.0268 18.5874 14.1064C18.5874 14.186 18.5677 14.2059 18.4891 14.2059C18.4066 14.2059 18.3909 14.2258 18.3909 14.3253C18.3909 14.4247 18.3752 14.4446 18.2966 14.4446C18.2141 14.4446 18.1983 14.4685 18.1748 14.6436C18.1512 14.8187 18.1355 14.8426 18.0529 14.8426C17.9783 14.8426 17.9586 14.8625 17.9586 14.942C17.9586 15.0216 17.939 15.0415 17.8604 15.0415C17.7779 15.0415 17.7621 15.0614 17.7621 15.1609C17.7621 15.2763 17.7582 15.2803 17.5696 15.2803H17.381L17.3535 15.0972C17.3417 14.9938 17.3299 14.8505 17.3299 14.7789C17.3299 14.6595 17.3181 14.6436 17.2316 14.6436C17.1334 14.6436 17.1334 14.6396 17.1334 14.3253C17.1334 14.0109 17.1334 14.0069 17.0352 14.0069C16.9369 14.0069 16.9369 14.0029 16.9369 13.6886C16.9369 13.3742 16.9369 13.3702 16.8387 13.3702C16.7444 13.3702 16.7404 13.3583 16.7404 13.1196C16.7404 12.7455 16.7011 12.5744 16.6225 12.5744C16.5518 12.5744 16.5047 12.3715 16.5047 12.073C16.5047 11.9696 16.4889 11.9417 16.4182 11.9298C16.3357 11.9178 16.3278 11.8939 16.316 11.5875C16.3042 11.2692 16.3042 11.2612 16.2099 11.2612C16.1156 11.2612 16.1117 11.2493 16.1117 11.0106C16.1117 10.6246 16.0763 10.4654 15.9899 10.4654C15.927 10.4654 15.9152 10.4336 15.9152 10.2943C15.9152 9.99585 15.872 9.82872 15.7973 9.82872C15.7226 9.82872 15.6794 9.66159 15.6794 9.35917C15.6794 9.20796 15.6716 9.19204 15.5812 9.19204H15.4829V8.79412C15.4829 8.39619 15.4829 8.39619 15.3847 8.39619C15.2904 8.39619 15.2904 8.38824 15.2786 8.06592C15.2668 7.76747 15.2589 7.73962 15.1843 7.72768C15.1057 7.71574 15.0978 7.68391 15.0703 7.3417C15.0546 7.13478 15.0546 6.94775 15.0703 6.92388C15.086 6.9 15.2589 6.88408 15.5065 6.88408C15.8798 6.88408 15.9152 6.87613 15.9152 6.80848C15.9152 6.71298 16.0724 6.68512 16.6736 6.68512H17.1334V6.58564V6.49014L17.7543 6.4782C18.3595 6.46626 18.3713 6.46626 18.383 6.37474C18.3948 6.29118 18.4145 6.2872 18.7013 6.2872C18.8703 6.2872 19.1415 6.27526 19.3065 6.26332C19.558 6.23945 19.6091 6.22353 19.6091 6.16782C19.6091 6.08426 19.8174 6.04844 20.3204 6.04844C20.6347 6.04844 20.6701 6.04049 20.6701 5.97284C20.6701 5.87734 20.8273 5.84948 21.4285 5.84948H21.8883V5.75V5.6545L22.5092 5.64256C23.1144 5.63062 23.1262 5.63062 23.138 5.5391C23.1497 5.45554 23.1694 5.45156 23.4563 5.45156C23.6252 5.45156 23.8964 5.43962 24.0614 5.42768C24.3129 5.40381 24.364 5.38789 24.364 5.33218C24.364 5.24862 24.5723 5.2128 25.0753 5.2128C25.3936 5.2128 25.425 5.20485 25.425 5.1372C25.425 5.05761 25.4918 5.02976 25.7119 5.01782C25.8062 5.01384 25.818 5.02976 25.818 5.13322ZM14.029 8.10571C14.029 8.38824 14.0722 8.55536 14.1468 8.55536C14.2176 8.55536 14.2647 8.7583 14.2647 9.07664C14.2647 9.2 14.2805 9.23183 14.3394 9.23183C14.4298 9.23183 14.4612 9.37111 14.4612 9.75311C14.4612 10.0197 14.4651 10.0277 14.5595 10.0277C14.6577 10.0277 14.6577 10.0317 14.6577 10.346C14.6577 10.6564 14.6616 10.6644 14.7559 10.6644C14.8463 10.6644 14.8503 10.6763 14.862 10.9708C14.8738 11.2533 14.8817 11.2811 14.9603 11.2931C15.0389 11.305 15.0467 11.3369 15.0703 11.7228C15.0978 12.1247 15.1018 12.1367 15.1921 12.1367C15.2825 12.1367 15.2865 12.1446 15.2865 12.455C15.2865 12.7694 15.2865 12.7734 15.3847 12.7734C15.479 12.7734 15.4829 12.7813 15.4829 13.0479C15.4829 13.4299 15.5144 13.5692 15.6048 13.5692C15.6676 13.5692 15.6794 13.601 15.6794 13.7363C15.6794 14.0388 15.7226 14.2059 15.7973 14.2059C15.872 14.2059 15.9152 14.373 15.9152 14.6715C15.9152 14.8147 15.927 14.8386 16.0056 14.8505C16.0881 14.8625 16.092 14.8824 16.1038 15.2683C16.1156 15.6742 16.1156 15.6782 16.2099 15.6782C16.2885 15.6782 16.3082 15.6981 16.3082 15.7777V15.8772H15.8956H15.4829V14.7431V13.609H15.3847H15.2865V13.1912V12.7734H15.1882C15.0978 12.7734 15.09 12.7574 15.09 12.6022C15.09 12.5107 15.0782 12.3675 15.0664 12.2839C15.0428 12.1606 15.0232 12.1367 14.9485 12.1367C14.862 12.1367 14.8542 12.1208 14.8542 11.9178C14.8542 11.7109 14.8503 11.699 14.7559 11.699C14.6656 11.699 14.6577 11.687 14.6577 11.5C14.6577 11.313 14.6498 11.301 14.5595 11.301C14.4769 11.301 14.4612 11.2811 14.4612 11.1817C14.4612 11.0822 14.4455 11.0623 14.363 11.0623C14.2726 11.0623 14.2647 11.0503 14.2647 10.8633C14.2647 10.6683 14.2608 10.6644 14.1468 10.6644C14.0407 10.6644 14.029 10.6524 14.029 10.545C14.029 10.4455 14.0132 10.4256 13.9307 10.4256C13.8403 10.4256 13.8325 10.4097 13.8325 10.2465C13.8325 10.0834 13.8246 10.0675 13.7342 10.0675C13.6517 10.0675 13.636 10.0476 13.636 9.9481C13.636 9.84862 13.6203 9.82872 13.5377 9.82872C13.4592 9.82872 13.4395 9.80882 13.4395 9.72924C13.4395 9.64567 13.4199 9.62976 13.3216 9.62976C13.2234 9.62976 13.2037 9.61384 13.2037 9.53426C13.2037 9.46263 13.1801 9.43478 13.1173 9.42284C13.0347 9.4109 13.0269 9.38702 13.0269 9.19204C13.0269 8.99706 13.0347 8.97318 13.1094 8.96125C13.1762 8.95329 13.1998 8.9135 13.2194 8.77422C13.243 8.63495 13.2627 8.59914 13.3334 8.5872C13.3963 8.57924 13.4238 8.54343 13.4316 8.46384C13.4434 8.38028 13.467 8.3564 13.5417 8.3564C13.6203 8.3564 13.636 8.33651 13.636 8.23702C13.636 8.13754 13.6517 8.11765 13.7342 8.11765C13.805 8.11765 13.8325 8.09775 13.8325 8.03806C13.8325 7.97837 13.86 7.95848 13.9307 7.95848C14.0172 7.95848 14.029 7.97439 14.029 8.10571ZM8.97146 8.57924C9.22296 8.60311 9.27404 8.61903 9.27404 8.67474C9.27404 8.74637 9.47446 8.79412 9.76918 8.79412C9.87135 8.79412 9.89886 8.81003 9.91065 8.88166C9.92244 8.96523 9.94602 8.97318 10.229 8.98512C10.5198 8.99706 10.5315 9.00104 10.5315 9.09256C10.5315 9.18408 10.5473 9.19204 10.7241 9.19204C10.9088 9.19204 10.9206 9.2 10.9324 9.29948C10.9402 9.38702 10.9677 9.41488 11.0542 9.42284C11.1446 9.43478 11.1642 9.45467 11.1524 9.52232C11.1446 9.57803 11.1092 9.61384 11.0542 9.6218C10.9874 9.63374 10.9638 9.66159 10.9638 9.73322C10.9638 9.8128 10.9442 9.82872 10.8459 9.82872C10.732 9.82872 10.728 9.8327 10.728 10.0277C10.728 10.2147 10.7202 10.2266 10.6298 10.2266C10.5473 10.2266 10.5315 10.2465 10.5315 10.346C10.5315 10.4455 10.5158 10.4654 10.4333 10.4654C10.3547 10.4654 10.3351 10.4853 10.3351 10.5649C10.3351 10.6445 10.3154 10.6644 10.2407 10.6644C10.1582 10.6644 10.1425 10.6882 10.1189 10.8633C10.0953 11.0384 10.0796 11.0623 9.9971 11.0623C9.91851 11.0623 9.90279 11.0822 9.90279 11.1817C9.90279 11.2811 9.88707 11.301 9.80455 11.301C9.72596 11.301 9.70631 11.3209 9.70631 11.4005C9.70631 11.4801 9.68666 11.5 9.612 11.5C9.52947 11.5 9.51768 11.5239 9.49411 11.695C9.47446 11.8581 9.45481 11.8939 9.38014 11.9059C9.31727 11.9138 9.28976 11.9497 9.2819 12.0253C9.27011 12.1128 9.24654 12.1367 9.17187 12.1367C9.09721 12.1367 9.07756 12.1566 9.07756 12.2362C9.07756 12.3157 9.05791 12.3356 8.97932 12.3356C8.88893 12.3356 8.88107 12.3476 8.88107 12.5346C8.88107 12.7176 8.87322 12.7336 8.78676 12.7336C8.7121 12.7336 8.68852 12.7574 8.67673 12.841C8.66887 12.9206 8.64137 12.9564 8.57849 12.9644C8.51169 12.9763 8.48811 13.0042 8.48811 13.0758C8.48811 13.1554 8.46846 13.1713 8.37022 13.1713C8.25626 13.1713 8.25233 13.1753 8.25233 13.3702C8.25233 13.5573 8.24447 13.5692 8.15408 13.5692C8.07156 13.5692 8.05584 13.5891 8.05584 13.6886C8.05584 13.7881 8.04012 13.808 7.9576 13.808C7.87901 13.808 7.85936 13.8279 7.85936 13.9074C7.85936 13.987 7.83971 14.0069 7.76505 14.0069C7.68252 14.0069 7.6668 14.0308 7.64323 14.2059C7.61965 14.381 7.60393 14.4048 7.52141 14.4048C7.44281 14.4048 7.42709 14.4247 7.42709 14.5242C7.42709 14.6237 7.41138 14.6436 7.32885 14.6436C7.23847 14.6436 7.23061 14.6555 7.23061 14.8426C7.23061 15.0296 7.22275 15.0415 7.13237 15.0415C7.04984 15.0415 7.03413 15.0614 7.03413 15.1609C7.03413 15.2604 7.04984 15.2803 7.13237 15.2803C7.22275 15.2803 7.23061 15.2922 7.23061 15.4792V15.6782H7.44674C7.65109 15.6782 7.66287 15.6822 7.66287 15.7777V15.8772H8.09121C8.66887 15.8772 8.88107 15.909 8.88107 15.9965C8.88107 16.0522 8.93609 16.0682 9.20724 16.0881C9.38407 16.104 9.66701 16.1159 9.83599 16.1159C10.1071 16.1159 10.1386 16.1239 10.1386 16.1915C10.1386 16.287 10.2958 16.3149 10.897 16.3149H11.3568V16.4144V16.5138H11.9855H12.6143V16.6133V16.7128H13.078C13.6753 16.7128 13.8325 16.7407 13.8325 16.8362C13.8325 16.8919 13.86 16.9118 13.9307 16.9118C14.0132 16.9118 14.029 16.9317 14.029 17.0311C14.029 17.1306 14.0132 17.1505 13.9307 17.1505C13.8325 17.1505 13.8325 17.1545 13.8325 17.4689C13.8325 17.7832 13.8325 17.7872 13.7342 17.7872C13.6438 17.7872 13.636 17.7991 13.636 17.9862C13.636 18.1692 13.6281 18.1851 13.5417 18.1851C13.4592 18.1851 13.4474 18.209 13.4199 18.404C13.3963 18.6029 13.3845 18.6228 13.298 18.6228C13.2116 18.6228 13.2037 18.6388 13.2037 18.8218C13.2037 19.0088 13.1959 19.0208 13.1055 19.0208C13.0269 19.0208 13.0072 19.0407 13.0072 19.1202C13.0072 19.1998 12.9876 19.2197 12.909 19.2197C12.8265 19.2197 12.8108 19.2396 12.8108 19.3391C12.8108 19.4386 12.795 19.4585 12.7125 19.4585C12.6339 19.4585 12.6143 19.4784 12.6143 19.558C12.6143 19.6375 12.5946 19.6574 12.516 19.6574C12.4374 19.6574 12.4178 19.6773 12.4178 19.7529C12.4178 19.8285 12.3942 19.8524 12.3117 19.8644C12.2252 19.8723 12.1977 19.9002 12.1899 19.9837C12.1781 20.0713 12.1545 20.0952 12.0798 20.0952C12.0052 20.0952 11.9855 20.1151 11.9855 20.1946C11.9855 20.2742 11.9659 20.2941 11.8873 20.2941C11.8087 20.2941 11.789 20.314 11.789 20.3936C11.789 20.4772 11.7694 20.4931 11.6711 20.4931C11.5729 20.4931 11.5533 20.509 11.5533 20.5926C11.5533 20.6841 11.5415 20.692 11.3568 20.692C11.176 20.692 11.1603 20.7 11.1603 20.7875C11.1603 20.8711 11.1367 20.887 10.9677 20.9109C10.8066 20.9308 10.7713 20.9547 10.7595 21.0223C10.7477 21.0979 10.7202 21.1099 10.5433 21.1218C10.3508 21.1337 10.3351 21.1417 10.3351 21.2332C10.3351 21.3247 10.3233 21.3287 10.1189 21.3287C9.91458 21.3287 9.90279 21.3327 9.90279 21.4282C9.90279 21.5237 9.89493 21.5277 9.6395 21.5277C9.24654 21.5277 9.07756 21.5635 9.07756 21.6471C9.07756 21.7067 9.01468 21.7187 8.59814 21.7386C7.99297 21.7744 7.48997 21.7744 6.8848 21.7386C6.46825 21.7187 6.40538 21.7067 6.40538 21.6471C6.40538 21.5635 6.2364 21.5277 5.84736 21.5277C5.588 21.5277 5.58014 21.5237 5.58014 21.4282C5.58014 21.3327 5.56836 21.3287 5.36401 21.3287C5.15967 21.3287 5.14788 21.3247 5.14788 21.2332C5.14788 21.1417 5.13216 21.1337 4.94354 21.1218C4.76277 21.1099 4.73526 21.0979 4.72347 21.0223C4.71169 20.9547 4.67632 20.9308 4.5152 20.9109C4.34623 20.887 4.32265 20.8711 4.32265 20.7875C4.32265 20.7 4.30693 20.692 4.12616 20.692C3.94147 20.692 3.92968 20.6841 3.92968 20.5926C3.92968 20.513 3.91003 20.4931 3.83144 20.4931C3.75284 20.4931 3.7332 20.4732 3.7332 20.3936C3.7332 20.31 3.71355 20.2941 3.6153 20.2941C3.51706 20.2941 3.49741 20.2782 3.49741 20.1946C3.49741 20.1151 3.47777 20.0952 3.39917 20.0952C3.32058 20.0952 3.30093 20.0753 3.30093 19.9997C3.30093 19.924 3.27735 19.9002 3.19483 19.8882C3.10838 19.8803 3.08087 19.8524 3.07301 19.7689C3.06122 19.6813 3.03764 19.6574 2.96298 19.6574C2.88831 19.6574 2.86867 19.6375 2.86867 19.558C2.86867 19.4784 2.84902 19.4585 2.77042 19.4585C2.69183 19.4585 2.67218 19.4386 2.67218 19.363C2.67218 19.2913 2.6486 19.2635 2.58573 19.2516C2.51892 19.2436 2.49142 19.2078 2.48356 19.1322C2.47177 19.0446 2.44819 19.0208 2.37353 19.0208C2.28707 19.0208 2.27921 19.0048 2.27921 18.8218C2.27921 18.6388 2.27135 18.6228 2.1849 18.6228C2.11024 18.6228 2.08666 18.599 2.07487 18.5114C2.06701 18.4358 2.0395 18.4 1.97663 18.392C1.90982 18.3801 1.88625 18.3443 1.8666 18.1851C1.84695 18.026 1.82337 17.9901 1.75657 17.9782C1.67797 17.9663 1.67011 17.9384 1.65832 17.6559C1.64654 17.3614 1.64261 17.3495 1.55222 17.3495C1.45791 17.3495 1.45398 17.3415 1.45398 17.0311C1.45398 16.7247 1.45005 16.7128 1.3636 16.7128C1.27322 16.7128 1.26929 16.7009 1.24571 16.2631C1.21034 15.6901 1.21034 14.6675 1.24571 14.0547C1.26929 13.5811 1.27322 13.5692 1.3636 13.5692C1.45005 13.5692 1.45398 13.5573 1.45398 13.2509C1.45398 12.9365 1.45398 12.9325 1.55222 12.9325C1.64654 12.9325 1.65047 12.9246 1.65047 12.6341C1.65047 12.3436 1.65439 12.3356 1.74478 12.3356C1.8273 12.3356 1.84302 12.3118 1.8666 12.1407C1.88625 11.9775 1.90982 11.9417 1.97663 11.9298C2.0395 11.9218 2.06701 11.886 2.07487 11.8064C2.08273 11.7348 2.11024 11.699 2.16132 11.699C2.21634 11.699 2.23992 11.6552 2.25957 11.5C2.28314 11.3249 2.29886 11.301 2.38139 11.301C2.45998 11.301 2.4757 11.2811 2.4757 11.1817C2.4757 11.0822 2.49142 11.0623 2.57001 11.0623C2.65253 11.0623 2.66825 11.0384 2.69183 10.8633C2.71541 10.6882 2.73113 10.6644 2.81365 10.6644C2.88831 10.6644 2.90796 10.6445 2.90796 10.5649C2.90796 10.4853 2.92761 10.4654 3.0062 10.4654C3.0848 10.4654 3.10445 10.4455 3.10445 10.3699C3.10445 10.2863 3.12802 10.2704 3.30093 10.2465C3.47384 10.2227 3.49741 10.2067 3.49741 10.1232C3.49741 10.0476 3.51706 10.0277 3.59566 10.0277C3.67425 10.0277 3.6939 10.0078 3.6939 9.9282C3.6939 9.84464 3.71355 9.82872 3.81179 9.82872C3.91003 9.82872 3.92968 9.8128 3.92968 9.73322C3.92968 9.64965 3.95326 9.63374 4.12223 9.60986C4.28335 9.58997 4.31872 9.56609 4.33051 9.49844C4.33837 9.43478 4.37373 9.40692 4.45233 9.39896C4.53485 9.38702 4.55843 9.36315 4.55843 9.28754C4.55843 9.2 4.57415 9.19204 4.75491 9.19204C4.93961 9.19204 4.9514 9.18408 4.9514 9.09256C4.9514 9.00104 4.96711 8.99308 5.12037 8.99308C5.42296 8.99308 5.58014 8.94931 5.58014 8.86972C5.58014 8.81003 5.60765 8.79412 5.71375 8.79412C6.01241 8.79412 6.20889 8.74637 6.20889 8.67076C6.20889 8.62301 6.24426 8.59516 6.31892 8.58322C6.49969 8.55536 8.65315 8.55536 8.97146 8.57924ZM31.6457 8.57924C31.7479 8.59914 31.7911 8.62699 31.7911 8.67474C31.7911 8.74637 31.9915 8.79412 32.2862 8.79412C32.3923 8.79412 32.4199 8.81003 32.4199 8.86972C32.4199 8.94931 32.577 8.99308 32.8836 8.99308C33.0329 8.99308 33.0486 9.00104 33.0486 9.09256C33.0486 9.18408 33.0604 9.19204 33.2451 9.19204C33.4259 9.19204 33.4416 9.2 33.4416 9.28754C33.4416 9.37111 33.4651 9.38702 33.6341 9.4109C33.7952 9.4308 33.8306 9.45467 33.8424 9.52232C33.8503 9.58599 33.8856 9.61384 33.9642 9.6218C34.0467 9.63374 34.0703 9.65761 34.0703 9.73322C34.0703 9.8128 34.09 9.82872 34.1882 9.82872C34.2865 9.82872 34.3061 9.84464 34.3061 9.92422C34.3061 10.0078 34.3297 10.0237 34.5026 10.0476C34.6755 10.0715 34.6991 10.0874 34.6991 10.1709C34.6991 10.2465 34.7187 10.2664 34.7973 10.2664C34.8759 10.2664 34.8956 10.2863 34.8956 10.3659C34.8956 10.4455 34.9152 10.4654 34.9938 10.4654C35.0724 10.4654 35.092 10.4853 35.092 10.5649C35.092 10.6445 35.1117 10.6644 35.1863 10.6644C35.2689 10.6644 35.2846 10.6882 35.3082 10.8633C35.3317 11.0384 35.3475 11.0623 35.43 11.0623C35.5086 11.0623 35.5243 11.0822 35.5243 11.1817C35.5243 11.2811 35.54 11.301 35.6225 11.301C35.7011 11.301 35.7208 11.3209 35.7208 11.4005C35.7208 11.4801 35.7404 11.5 35.8151 11.5C35.8976 11.5 35.9094 11.5239 35.933 11.699C35.9526 11.8581 35.9723 11.8979 36.0352 11.8979C36.0941 11.8979 36.1138 11.9377 36.1334 12.1168C36.1609 12.3118 36.1727 12.3356 36.2552 12.3356C36.3417 12.3356 36.3495 12.3516 36.3495 12.5545C36.3495 12.7614 36.3535 12.7734 36.4478 12.7734C36.5421 12.7734 36.546 12.7813 36.546 13.0479C36.546 13.422 36.5775 13.5692 36.6639 13.5692C36.7268 13.5692 36.7346 13.6369 36.7621 14.2059C36.7779 14.56 36.7779 15.2644 36.7621 15.7777L36.7307 16.7128H36.6403C36.5499 16.7128 36.546 16.7247 36.546 17.0311C36.546 17.3455 36.546 17.3495 36.4478 17.3495C36.3535 17.3495 36.3495 17.3614 36.3495 17.5683C36.3495 17.7753 36.3456 17.7872 36.2552 17.7872C36.1648 17.7872 36.157 17.8031 36.1452 17.9941C36.1334 18.1772 36.1216 18.205 36.0469 18.217C35.9723 18.2289 35.9526 18.2647 35.933 18.4279C35.9094 18.599 35.8976 18.6228 35.8151 18.6228C35.7286 18.6228 35.7208 18.6388 35.7208 18.8218C35.7208 19.0088 35.7129 19.0208 35.6225 19.0208C35.5439 19.0208 35.5243 19.0407 35.5243 19.1202C35.5243 19.1998 35.5047 19.2197 35.43 19.2197C35.3553 19.2197 35.3317 19.2436 35.32 19.3272C35.3121 19.4067 35.2846 19.4426 35.2217 19.4505C35.1667 19.4585 35.1313 19.4943 35.1235 19.55C35.1156 19.6137 35.0802 19.6415 35.0056 19.6495C34.9113 19.6614 34.8956 19.6813 34.8956 19.7808C34.8956 19.8763 34.8798 19.8962 34.7973 19.8962C34.7187 19.8962 34.6991 19.9161 34.6991 19.9957C34.6991 20.0753 34.6794 20.0952 34.6008 20.0952C34.5222 20.0952 34.5026 20.1151 34.5026 20.1946C34.5026 20.2782 34.4829 20.2941 34.3847 20.2941C34.2865 20.2941 34.2668 20.31 34.2668 20.3936C34.2668 20.4732 34.2472 20.4931 34.1686 20.4931C34.09 20.4931 34.0703 20.513 34.0703 20.5926C34.0703 20.6841 34.0585 20.692 33.8738 20.692C33.6931 20.692 33.6774 20.7 33.6774 20.7875C33.6774 20.8751 33.6577 20.887 33.4612 20.9109C33.2687 20.9388 33.2451 20.9507 33.2451 21.0343C33.2451 21.1218 33.2294 21.1298 33.0486 21.1298C32.8639 21.1298 32.8521 21.1377 32.8521 21.2292C32.8521 21.3247 32.8403 21.3287 32.636 21.3287C32.4316 21.3287 32.4199 21.3327 32.4199 21.4282C32.4199 21.5237 32.412 21.5277 32.1566 21.5277C31.7636 21.5277 31.5946 21.5635 31.5946 21.6471C31.5946 21.7067 31.5317 21.7187 31.1152 21.7386C30.51 21.7744 30.007 21.7744 29.4019 21.7386C28.9853 21.7187 28.9224 21.7067 28.9224 21.6471C28.9224 21.5635 28.7535 21.5277 28.3644 21.5277C28.1051 21.5277 28.0972 21.5237 28.0972 21.4282C28.0972 21.3327 28.0854 21.3287 27.8811 21.3287C27.6767 21.3287 27.6649 21.3247 27.6649 21.2292C27.6649 21.1377 27.6532 21.1298 27.4685 21.1298C27.2877 21.1298 27.272 21.1218 27.272 21.0343C27.272 20.9507 27.2484 20.9388 27.0558 20.9109C26.8594 20.887 26.8397 20.8751 26.8397 20.7875C26.8397 20.7 26.824 20.692 26.6432 20.692C26.4585 20.692 26.4467 20.6841 26.4467 20.5926C26.4467 20.509 26.4271 20.4931 26.3289 20.4931C26.2306 20.4931 26.211 20.4772 26.211 20.3936C26.211 20.314 26.1913 20.2941 26.1127 20.2941C26.0341 20.2941 26.0145 20.2742 26.0145 20.1946C26.0145 20.1151 25.9948 20.0952 25.9202 20.0952C25.8455 20.0952 25.8219 20.0713 25.8101 19.9877C25.8023 19.9002 25.7748 19.8723 25.6922 19.8644C25.6058 19.8524 25.5822 19.8285 25.5822 19.7529C25.5822 19.6773 25.5626 19.6574 25.484 19.6574C25.4054 19.6574 25.3857 19.6375 25.3857 19.558C25.3857 19.4784 25.3661 19.4585 25.2875 19.4585C25.205 19.4585 25.1892 19.4386 25.1892 19.3391C25.1892 19.2396 25.1735 19.2197 25.091 19.2197C25.0124 19.2197 24.9928 19.1998 24.9928 19.1202C24.9928 19.0407 24.9731 19.0208 24.8984 19.0208C24.8159 19.0208 24.8002 18.9969 24.7766 18.8258C24.757 18.6626 24.7334 18.6268 24.6666 18.6149C24.5919 18.6029 24.5801 18.5711 24.5684 18.4159C24.5566 18.2607 24.5448 18.2289 24.4701 18.217C24.3954 18.205 24.3837 18.1772 24.3719 17.9941C24.3601 17.8031 24.3522 17.7872 24.2618 17.7872C24.1715 17.7872 24.1675 17.7753 24.1675 17.5683C24.1675 17.3654 24.1597 17.3495 24.0732 17.3495C23.9828 17.3495 23.9789 17.3375 23.9514 16.9516C23.9278 16.6054 23.916 16.5536 23.8571 16.5536C23.751 16.5536 23.7353 16.3467 23.7353 15.145C23.7353 13.9791 23.751 13.808 23.8532 13.808C23.9317 13.808 23.971 13.601 23.971 13.2071C23.971 12.9843 23.975 12.9723 24.0693 12.9723C24.1636 12.9723 24.1675 12.9604 24.1675 12.7535C24.1675 12.5465 24.1715 12.5346 24.2658 12.5346C24.3601 12.5346 24.364 12.5227 24.364 12.3157C24.364 12.1088 24.3679 12.0969 24.4583 12.0969C24.5487 12.0969 24.5566 12.077 24.5684 11.9059C24.5801 11.7507 24.5919 11.7189 24.6666 11.7069C24.7334 11.695 24.757 11.6592 24.7766 11.496C24.8002 11.3249 24.8159 11.301 24.8984 11.301C24.977 11.301 24.9928 11.2811 24.9928 11.1817C24.9928 11.0822 25.0085 11.0623 25.091 11.0623C25.1696 11.0623 25.1892 11.0424 25.1892 10.9628C25.1892 10.8832 25.2089 10.8633 25.2875 10.8633C25.3661 10.8633 25.3857 10.8434 25.3857 10.7638C25.3857 10.6843 25.4054 10.6644 25.48 10.6644C25.5626 10.6644 25.5783 10.6405 25.6019 10.4694L25.6294 10.2744L25.8219 10.2465C25.9909 10.2227 26.0145 10.2067 26.0145 10.1232C26.0145 10.0476 26.0341 10.0277 26.1127 10.0277C26.1913 10.0277 26.211 10.0078 26.211 9.9282C26.211 9.84464 26.2306 9.82872 26.3289 9.82872C26.4271 9.82872 26.4467 9.8128 26.4467 9.73322C26.4467 9.64965 26.4703 9.63374 26.6432 9.60986C26.8161 9.58599 26.8397 9.57007 26.8397 9.48651C26.8397 9.40692 26.8594 9.391 26.9576 9.391C27.0558 9.391 27.0755 9.37509 27.0755 9.29152C27.0755 9.2 27.0873 9.19204 27.272 9.19204H27.4685V9.4109C27.4685 9.61782 27.4724 9.62976 27.5667 9.62976C27.6571 9.62976 27.6649 9.64567 27.6649 9.80484C27.6649 10.0834 27.7042 10.2266 27.7828 10.2266C27.8536 10.2266 27.9007 10.4296 27.9007 10.728C27.9007 10.8474 27.9125 10.8633 27.999 10.8633C28.0933 10.8633 28.0972 10.8753 28.0972 11.0822C28.0972 11.2891 28.1011 11.301 28.1954 11.301C28.2898 11.301 28.2937 11.309 28.2937 11.5995C28.2937 11.89 28.2976 11.8979 28.3919 11.8979C28.4823 11.8979 28.4902 11.9138 28.4902 12.0651C28.4902 12.3715 28.5334 12.5346 28.612 12.5346C28.667 12.5346 28.6867 12.5784 28.7063 12.7535C28.7299 12.9246 28.7495 12.9723 28.8045 12.9723C28.8792 12.9723 28.9224 13.1355 28.9224 13.418C28.9224 13.5533 28.9342 13.5692 29.0207 13.5692C29.1189 13.5692 29.1189 13.5732 29.1189 13.8875C29.1189 14.2019 29.1189 14.2059 29.2172 14.2059C29.3115 14.2059 29.3154 14.2178 29.3154 14.4247C29.3154 14.6317 29.3193 14.6436 29.4136 14.6436C29.5001 14.6436 29.5119 14.6595 29.5119 14.7789C29.5119 14.8505 29.5237 14.9938 29.5355 15.0972C29.559 15.2564 29.5748 15.2803 29.6534 15.2803C29.7398 15.2803 29.7477 15.2962 29.7477 15.4792C29.7477 15.6663 29.7555 15.6782 29.8459 15.6782C29.9284 15.6782 29.9442 15.6981 29.9442 15.7976C29.9442 15.8971 29.9599 15.917 30.0424 15.917C30.1131 15.917 30.1406 15.9369 30.1406 15.9965C30.1406 16.0682 30.1681 16.0761 30.3568 16.0761C30.5454 16.0761 30.5729 16.0682 30.5729 15.9965C30.5729 15.9369 30.6004 15.917 30.6711 15.917C30.7537 15.917 30.7694 15.8971 30.7694 15.7976C30.7694 15.6981 30.7851 15.6782 30.8676 15.6782C30.9659 15.6782 30.9659 15.6742 30.9659 15.3599C30.9659 15.0455 30.9659 15.0415 30.8676 15.0415C30.7733 15.0415 30.7694 15.0336 30.7694 14.7431C30.7694 14.4526 30.7655 14.4446 30.6711 14.4446C30.5768 14.4446 30.5729 14.4327 30.5729 14.2258C30.5729 14.0189 30.569 14.0069 30.4747 14.0069C30.3882 14.0069 30.3764 13.991 30.3764 13.8716C30.3764 13.8 30.3646 13.6567 30.3528 13.5533C30.3293 13.3941 30.3135 13.3702 30.235 13.3702C30.1446 13.3702 30.1406 13.3583 30.1406 13.0718C30.1406 12.7813 30.1367 12.7734 30.0424 12.7734C29.9481 12.7734 29.9442 12.7614 29.9442 12.5545C29.9442 12.3476 29.9402 12.3356 29.8459 12.3356C29.7555 12.3356 29.7516 12.3237 29.7398 12.0253C29.728 11.7467 29.7202 11.7189 29.6455 11.7069C29.5551 11.695 29.5119 11.5478 29.5119 11.2533C29.5119 11.1339 29.4962 11.1061 29.4254 11.0941C29.3468 11.0822 29.3351 11.0543 29.3233 10.8713C29.3115 10.6803 29.3036 10.6644 29.2132 10.6644C29.1229 10.6644 29.1189 10.6564 29.1189 10.346C29.1189 10.0317 29.1189 10.0277 29.0207 10.0277C28.9342 10.0277 28.9224 10.0118 28.9224 9.87647C28.9224 9.59394 28.8792 9.4308 28.8045 9.4308C28.7495 9.4308 28.7299 9.38305 28.7063 9.21194C28.6867 9.03287 28.667 8.99308 28.6041 8.99308C28.4902 8.99308 28.502 8.80208 28.6199 8.78616C28.6749 8.7782 28.7102 8.74239 28.7181 8.68668C28.7299 8.61107 28.7613 8.59516 28.9342 8.58322C29.2997 8.55934 31.4925 8.55536 31.6457 8.57924ZM12.182 10.342C12.182 10.3978 12.2134 10.4256 12.292 10.4336C12.3746 10.4415 12.4021 10.4694 12.4099 10.5529C12.4217 10.6405 12.4453 10.6644 12.52 10.6644C12.5946 10.6644 12.6143 10.6843 12.6143 10.7638C12.6143 10.8434 12.6339 10.8633 12.7125 10.8633C12.795 10.8633 12.8108 10.8832 12.8108 10.9827C12.8108 11.0822 12.8265 11.1021 12.909 11.1021C12.9876 11.1021 13.0072 11.122 13.0072 11.2016C13.0072 11.2811 13.0269 11.301 13.1016 11.301C13.1841 11.301 13.1998 11.3249 13.2234 11.496C13.243 11.6592 13.2666 11.695 13.3334 11.7069C13.4081 11.7189 13.4199 11.7507 13.4316 11.9059C13.4434 12.0611 13.4552 12.0929 13.5299 12.1048C13.6045 12.1168 13.6163 12.1446 13.6281 12.3237C13.6399 12.5187 13.6478 12.5346 13.7382 12.5346C13.8285 12.5346 13.8325 12.5465 13.8325 12.7535C13.8325 12.9604 13.8364 12.9723 13.9307 12.9723C14.025 12.9723 14.029 12.9843 14.029 13.2071C14.029 13.601 14.0683 13.808 14.1468 13.808C14.2019 13.808 14.2176 13.8597 14.2412 14.1144C14.2726 14.4964 14.2726 15.332 14.2412 15.527C14.2215 15.6384 14.1979 15.6782 14.1429 15.6782C14.0879 15.6782 14.0683 15.6503 14.0683 15.5787V15.4792H13.5888C12.9679 15.4792 12.8108 15.4514 12.8108 15.3559C12.8108 15.2882 12.7793 15.2803 12.5042 15.2803C12.3313 15.2803 12.0602 15.2683 11.8951 15.2564C11.6436 15.2325 11.5926 15.2166 11.5926 15.1609C11.5926 15.0734 11.3804 15.0415 10.783 15.0415H10.3351V14.942V14.8426H9.72596H9.11686V14.7431C9.11686 14.6595 9.09721 14.6436 8.99897 14.6436C8.89286 14.6436 8.88107 14.6317 8.88107 14.5242C8.88107 14.4247 8.89679 14.4048 8.97932 14.4048C9.05791 14.4048 9.07756 14.3849 9.07756 14.3054C9.07756 14.2258 9.09721 14.2059 9.17187 14.2059C9.25439 14.2059 9.27011 14.182 9.29369 14.0069C9.31727 13.8318 9.33299 13.808 9.41551 13.808C9.49411 13.808 9.50982 13.7881 9.50982 13.6886C9.50982 13.5891 9.52554 13.5692 9.60807 13.5692C9.68666 13.5692 9.70631 13.5493 9.70631 13.4697C9.70631 13.3901 9.72596 13.3702 9.80062 13.3702C9.88314 13.3702 9.89886 13.3464 9.92244 13.1753C9.94209 13.0121 9.96567 12.9763 10.0325 12.9644C10.0953 12.9564 10.1229 12.9206 10.1307 12.841C10.1425 12.7574 10.1661 12.7336 10.2407 12.7336C10.3154 12.7336 10.3351 12.7137 10.3351 12.6341C10.3351 12.5545 10.3547 12.5346 10.4333 12.5346C10.5237 12.5346 10.5315 12.5227 10.5315 12.3356C10.5315 12.1526 10.5394 12.1367 10.6259 12.1367C10.7005 12.1367 10.7241 12.1128 10.7359 12.0253C10.7437 11.9497 10.7713 11.9138 10.8341 11.9059C10.8891 11.8979 10.9245 11.8621 10.9324 11.8064C10.9402 11.7507 10.9756 11.7149 11.0306 11.7069C11.0974 11.695 11.121 11.6592 11.1406 11.496C11.1642 11.3249 11.1799 11.301 11.2625 11.301C11.3411 11.301 11.3568 11.2811 11.3568 11.1817C11.3568 11.0822 11.3725 11.0623 11.455 11.0623C11.5336 11.0623 11.5533 11.0424 11.5533 10.9628C11.5533 10.8832 11.5729 10.8633 11.6476 10.8633C11.7301 10.8633 11.7458 10.8394 11.7694 10.6644C11.793 10.4893 11.8087 10.4654 11.8912 10.4654C11.9659 10.4654 11.9855 10.4455 11.9855 10.3659C11.9855 10.2863 12.0052 10.2664 12.0838 10.2664C12.1545 10.2664 12.182 10.2863 12.182 10.342Z" fill="#0046C0" fill-opacity="0.6"/>
</g>
</svg>
