<svg width="55" height="33" viewBox="0 0 55 33" fill="none" xmlns="http://www.w3.org/2000/svg">
<g id="ICONE BIKE PERFORMANCE">
<path id="Vector" d="M12.4633 0.121107C12.4633 0.217993 12.4395 0.242214 12.3444 0.242214C12.2445 0.242214 12.2254 0.266436 12.2254 0.387543C12.2254 0.498962 12.2064 0.532871 12.1303 0.532871C12.0494 0.532871 12.0352 0.566782 12.0352 0.775087C12.0352 0.983391 12.0494 1.0173 12.1303 1.0173C12.2017 1.0173 12.2254 1.05121 12.2254 1.13841C12.2254 1.24014 12.2492 1.25952 12.3681 1.25952C12.4871 1.25952 12.5109 1.27889 12.5109 1.38062V1.50173L13.5003 1.51142L14.485 1.52595L14.4993 1.77785C14.5135 2.01522 14.5231 2.0346 14.6325 2.0346C14.7419 2.0346 14.7466 2.04429 14.7466 2.42215C14.7466 2.80484 14.7466 2.80969 14.8656 2.80969C14.9797 2.80969 14.9845 2.82422 14.9845 3.0955C14.9845 3.57509 15.0321 3.82699 15.1272 3.82699C15.2176 3.82699 15.2699 4.03045 15.2699 4.39377C15.2699 4.5827 15.2794 4.60208 15.3888 4.60208C15.5078 4.60208 15.5078 4.60692 15.5078 4.98962C15.5078 5.37232 15.5078 5.37716 15.6267 5.37716H15.7456V5.86159V6.34602H15.8645C15.9739 6.34602 15.9835 6.3654 15.9835 6.54948C15.9835 6.91765 16.0358 7.12111 16.1262 7.12111C16.2118 7.12111 16.2689 7.36817 16.2689 7.73149C16.2689 7.87197 16.2546 7.89619 16.1547 7.89619C16.0548 7.89619 16.0358 7.92526 16.0072 8.13841C15.9787 8.35156 15.9597 8.38062 15.8598 8.38062C15.7646 8.38062 15.7456 8.40484 15.7456 8.52595C15.7456 8.64706 15.7266 8.67128 15.6267 8.67128C15.5315 8.67128 15.5078 8.6955 15.5078 8.79239C15.5078 8.88927 15.484 8.91349 15.3936 8.91349C15.2937 8.91349 15.2747 8.94256 15.2461 9.15571C15.2176 9.36886 15.1986 9.39792 15.0987 9.39792C15.0035 9.39792 14.9845 9.42215 14.9845 9.54325C14.9845 9.66436 14.9655 9.68858 14.8656 9.68858C14.7704 9.68858 14.7466 9.7128 14.7466 9.80969C14.7466 9.90657 14.7229 9.9308 14.6277 9.9308C14.5326 9.9308 14.5088 9.95502 14.5088 10.0519C14.5088 10.1682 14.4945 10.173 14.2472 10.173C13.9998 10.173 13.9855 10.1682 13.9855 10.0519C13.9855 9.94049 13.9713 9.9308 13.7477 9.9308C13.5289 9.9308 13.5098 9.92111 13.5098 9.81453C13.5098 9.7128 13.4813 9.69827 13.2482 9.66436C13.0389 9.64014 12.9866 9.61592 12.9866 9.5481C12.9866 9.45121 12.7915 9.39792 12.4538 9.39792C12.292 9.39792 12.273 9.38339 12.273 9.27682C12.273 9.15571 12.2683 9.15571 11.8925 9.15571C11.5167 9.15571 11.5119 9.15571 11.5119 9.0346V8.91349H9.39504H7.27818V9.0346C7.27818 9.15571 7.27342 9.15571 6.87384 9.15571C6.47425 9.15571 6.46949 9.15571 6.46949 9.27682C6.46949 9.38339 6.45047 9.39792 6.29349 9.39792C5.95098 9.39792 5.75595 9.45121 5.75595 9.5481C5.75595 9.61592 5.70362 9.64014 5.49431 9.66436C5.26122 9.69827 5.23268 9.7128 5.23268 9.81453C5.23268 9.92111 5.21365 9.9308 4.99483 9.9308C4.77125 9.9308 4.75698 9.94049 4.75698 10.0519C4.75698 10.1633 4.74271 10.173 4.51913 10.173C4.29555 10.173 4.28128 10.1827 4.28128 10.2941C4.28128 10.3958 4.2575 10.4152 4.13857 10.4152C4.01965 10.4152 3.99586 10.4346 3.99586 10.5315C3.99586 10.6332 3.96732 10.6526 3.75801 10.6817C3.54871 10.7107 3.52017 10.7301 3.52017 10.8318C3.52017 10.9287 3.49638 10.9481 3.37746 10.9481C3.25853 10.9481 3.23475 10.9675 3.23475 11.0692C3.23475 11.1661 3.21096 11.1903 3.11582 11.1903C3.02068 11.1903 2.9969 11.2145 2.9969 11.3114C2.9969 11.4083 2.97311 11.4325 2.87797 11.4325C2.77808 11.4325 2.75905 11.4567 2.75905 11.5779C2.75905 11.699 2.74002 11.7232 2.64012 11.7232C2.54498 11.7232 2.5212 11.7474 2.5212 11.8443C2.5212 11.946 2.49741 11.9654 2.37849 11.9654C2.25957 11.9654 2.23578 11.9848 2.23578 12.0865C2.23578 12.1834 2.212 12.2076 2.11686 12.2076C2.01696 12.2076 1.99793 12.2318 1.99793 12.3529C1.99793 12.474 1.9789 12.4983 1.87901 12.4983C1.7696 12.4983 1.76008 12.5128 1.76008 12.7405C1.76008 12.9779 1.75533 12.9827 1.61737 12.9827C1.49845 12.9827 1.47466 13.0021 1.47466 13.099C1.47466 13.1862 1.44612 13.2201 1.36525 13.2346C1.27487 13.2491 1.2606 13.283 1.24633 13.501C1.23206 13.7384 1.22254 13.7578 1.11313 13.7578C1.00848 13.7578 0.998966 13.7772 0.998966 14C0.998966 14.2228 0.989452 14.2422 0.884798 14.2422C0.775388 14.2422 0.765874 14.2616 0.751603 14.4941C0.737332 14.7121 0.723061 14.7509 0.637435 14.7654C0.528025 14.7799 0.475698 14.9592 0.475698 15.3176C0.475698 15.463 0.45667 15.4969 0.371044 15.5114C0.271148 15.526 0.261634 15.555 0.247363 15.9232C0.233092 16.3156 0.233092 16.3253 0.118925 16.3253H0V18.4567V20.5882H0.118925C0.233092 20.5882 0.233092 20.5979 0.247363 20.9855C0.261634 21.3585 0.271148 21.3875 0.371044 21.4021C0.451913 21.4166 0.475698 21.4505 0.475698 21.5522C0.475698 21.6298 0.489969 21.7896 0.50424 21.9156C0.532782 22.1093 0.55181 22.1384 0.646949 22.1384C0.751603 22.1384 0.761117 22.1578 0.761117 22.4048C0.761117 22.6567 0.765874 22.6713 0.880041 22.6713C0.989452 22.6713 0.998966 22.6858 0.998966 22.9135C0.998966 23.1363 1.00848 23.1557 1.11313 23.1557C1.21303 23.1557 1.2273 23.1848 1.25584 23.3931C1.27963 23.5917 1.30341 23.6353 1.3938 23.6498C1.46991 23.6595 1.50321 23.7031 1.51272 23.7952C1.52699 23.9017 1.55553 23.9308 1.64592 23.9308C1.74105 23.9308 1.76008 23.955 1.76008 24.0761C1.76008 24.1972 1.77911 24.2215 1.87901 24.2215C1.98842 24.2215 1.99793 24.2408 1.99793 24.4346C1.99793 24.6332 2.00745 24.6526 2.13113 24.6671C2.23102 24.6768 2.26432 24.7107 2.27384 24.8173C2.28811 24.919 2.31665 24.9481 2.40703 24.9481C2.49741 24.9481 2.5212 24.9723 2.5212 25.0692C2.5212 25.1661 2.54498 25.1903 2.64012 25.1903C2.73526 25.1903 2.75905 25.2145 2.75905 25.3114C2.75905 25.4083 2.78283 25.4325 2.87322 25.4325C2.9636 25.4325 2.99214 25.4616 3.00641 25.5633C3.01593 25.6699 3.04922 25.7038 3.15388 25.7135C3.25377 25.728 3.28232 25.7571 3.28232 25.8491C3.28232 25.9557 3.30134 25.9654 3.52017 25.9654C3.74374 25.9654 3.75801 25.9751 3.75801 26.0865C3.75801 26.1834 3.7818 26.2076 3.87694 26.2076C3.97208 26.2076 3.99586 26.2318 3.99586 26.3239C3.99586 26.4256 4.02441 26.445 4.22896 26.474C4.42399 26.4983 4.4668 26.5273 4.48108 26.6097C4.49059 26.6872 4.5334 26.7211 4.62854 26.7308C4.72844 26.7453 4.75698 26.7744 4.75698 26.8664C4.75698 26.973 4.77125 26.9827 5.01861 26.9827C5.26598 26.9827 5.28025 26.9875 5.28025 27.1038C5.28025 27.2104 5.29928 27.2249 5.46101 27.2249C5.79876 27.2249 5.9938 27.2782 5.9938 27.3751C5.9938 27.4429 6.04612 27.4671 6.25543 27.4913C6.45998 27.5204 6.51706 27.5446 6.51706 27.6125C6.51706 27.7142 6.71686 27.7578 7.19731 27.7578C7.50652 27.7578 7.51603 27.7626 7.51603 27.8789V28H9.27611H11.0362V27.8789C11.0362 27.7626 11.041 27.7626 11.5262 27.7481C11.9876 27.7336 12.0114 27.7287 12.0256 27.6221C12.0399 27.5349 12.0732 27.5156 12.2159 27.5156C12.5489 27.5156 12.7487 27.4623 12.7487 27.3702C12.7487 27.2782 12.9485 27.2249 13.2862 27.2249C13.4432 27.2249 13.4623 27.2104 13.4623 27.1038C13.4623 26.9875 13.4765 26.9827 13.7239 26.9827C13.9713 26.9827 13.9855 26.9779 13.9855 26.8616C13.9855 26.7599 14.0093 26.7405 14.1282 26.7405C14.2472 26.7405 14.2709 26.7211 14.2709 26.6242C14.2709 26.5225 14.2995 26.5031 14.5088 26.474C14.7181 26.445 14.7466 26.4256 14.7466 26.3239C14.7466 26.227 14.7704 26.2076 14.8893 26.2076C15.0083 26.2076 15.0321 26.1882 15.0321 26.0865C15.0321 25.9896 15.0558 25.9654 15.151 25.9654C15.2461 25.9654 15.2699 25.9412 15.2699 25.8491C15.2699 25.7474 15.2984 25.728 15.5078 25.699C15.7171 25.6699 15.7456 25.6505 15.7456 25.5488C15.7456 25.4567 15.7694 25.4325 15.8645 25.4325C15.9597 25.4325 15.9835 25.4083 15.9835 25.3114C15.9835 25.2145 16.0072 25.1903 16.1024 25.1903C16.1975 25.1903 16.2213 25.1661 16.2213 25.0692C16.2213 24.9675 16.2451 24.9481 16.364 24.9481C16.502 24.9481 16.5067 24.9433 16.5067 24.7059C16.5067 24.483 16.5162 24.4637 16.6209 24.4637C16.7113 24.4637 16.7398 24.4346 16.7541 24.3329C16.7636 24.236 16.7969 24.1924 16.8778 24.1827C16.9539 24.1682 16.9824 24.1343 16.9824 24.0471C16.9824 23.955 17.0062 23.9308 17.0966 23.9308C17.1965 23.9308 17.2155 23.9017 17.2441 23.6934C17.2678 23.4948 17.2964 23.4512 17.3773 23.4367C17.4534 23.427 17.4867 23.3834 17.4962 23.2913C17.5104 23.1848 17.539 23.1557 17.6294 23.1557C17.734 23.1557 17.7435 23.1412 17.7435 22.8893C17.7435 22.6374 17.7483 22.6228 17.8625 22.6228C17.9671 22.6228 17.9814 22.6035 17.9814 22.4388C17.9814 22.0997 18.0337 21.8962 18.1241 21.8962C18.2145 21.8962 18.2668 21.6927 18.2668 21.3246C18.2668 21.1405 18.2763 21.1211 18.3857 21.1211C18.4809 21.1211 18.5047 21.0969 18.5047 21V20.8789H19.242H19.9793V21V21.1211H20.5977H21.2161V21C21.2161 20.8983 21.2399 20.8789 21.3588 20.8789C21.4968 20.8789 21.5016 20.874 21.5016 20.6415C21.5016 20.4138 21.5111 20.3993 21.6347 20.3848C21.7346 20.3751 21.7679 20.3412 21.7775 20.2346C21.7917 20.1329 21.8203 20.1038 21.9107 20.1038C22.001 20.1038 22.0248 20.0796 22.0248 19.9827C22.0248 19.8858 22.0486 19.8616 22.1437 19.8616C22.2389 19.8616 22.2627 19.8374 22.2627 19.7405C22.2627 19.6436 22.2865 19.6194 22.3816 19.6194C22.4815 19.6194 22.5005 19.5952 22.5005 19.474C22.5005 19.3529 22.5195 19.3287 22.6194 19.3287C22.7146 19.3287 22.7384 19.3045 22.7384 19.2076C22.7384 19.1107 22.7622 19.0865 22.8525 19.0865C22.9429 19.0865 22.9715 19.0574 22.9857 18.9509C22.9952 18.8588 23.0285 18.8152 23.1047 18.8055C23.1903 18.791 23.2141 18.7474 23.2426 18.573C23.2664 18.3889 23.2902 18.3599 23.3853 18.3599C23.4805 18.3599 23.4995 18.3356 23.4995 18.2145C23.4995 18.0934 23.5185 18.0692 23.6184 18.0692C23.7135 18.0692 23.7373 18.045 23.7373 17.9481C23.7373 17.8512 23.7611 17.827 23.8515 17.827C23.9419 17.827 23.9704 17.7979 23.9847 17.6913C23.9942 17.5896 24.0275 17.5557 24.1322 17.546C24.2321 17.5315 24.2606 17.5024 24.2606 17.4104C24.2606 17.3183 24.2844 17.2941 24.3795 17.2941C24.4747 17.2941 24.4984 17.2699 24.4984 17.173C24.4984 17.0761 24.5222 17.0519 24.6126 17.0519C24.7125 17.0519 24.7268 17.0228 24.7553 16.8145C24.7791 16.6159 24.8029 16.5723 24.8933 16.5578C24.9694 16.5481 25.0027 16.5045 25.0122 16.4076C25.0265 16.3059 25.055 16.2768 25.1454 16.2768C25.2358 16.2768 25.2596 16.2526 25.2596 16.1557C25.2596 16.0588 25.2834 16.0346 25.3785 16.0346C25.4736 16.0346 25.4974 16.0104 25.4974 15.9135C25.4974 15.8166 25.5212 15.7924 25.6116 15.7924C25.702 15.7924 25.7305 15.7633 25.7448 15.6567C25.7543 15.5647 25.7876 15.5211 25.8685 15.5114C25.9446 15.4969 25.9731 15.463 25.9731 15.3758C25.9731 15.2837 25.9969 15.2595 26.0873 15.2595C26.1872 15.2595 26.2062 15.2304 26.2347 15.0173C26.2633 14.8042 26.2823 14.7751 26.3822 14.7751C26.4726 14.7751 26.4964 14.7509 26.4964 14.6588C26.4964 14.5668 26.5249 14.5377 26.6296 14.5232C26.7295 14.5135 26.7628 14.4796 26.7723 14.373C26.7866 14.2713 26.8151 14.2422 26.9055 14.2422C26.9959 14.2422 27.0196 14.218 27.0196 14.1211C27.0196 14.0242 27.0434 14 27.1386 14C27.2337 14 27.2575 13.9758 27.2575 13.8789C27.2575 13.782 27.2813 13.7578 27.3764 13.7578C27.4763 13.7578 27.4953 13.7336 27.4953 13.6125C27.4953 13.4913 27.5144 13.4671 27.6143 13.4671C27.7094 13.4671 27.7332 13.4429 27.7332 13.346C27.7332 13.2491 27.757 13.2249 27.8474 13.2249C27.9473 13.2249 27.9663 13.1958 27.9948 12.9827C28.0234 12.7696 28.0424 12.7405 28.1423 12.7405C28.2327 12.7405 28.2565 12.7163 28.2565 12.6194C28.2565 12.5225 28.2802 12.4983 28.3754 12.4983C28.4753 12.4983 28.4943 12.474 28.4943 12.3529C28.4943 12.2318 28.5133 12.2076 28.6132 12.2076C28.7084 12.2076 28.7322 12.1834 28.7322 12.0865C28.7322 11.9848 28.7559 11.9654 28.8749 11.9654C28.9938 11.9654 29.0176 11.946 29.0176 11.8491C29.0176 11.7619 29.0461 11.728 29.127 11.7135C29.2031 11.7038 29.2364 11.6602 29.2459 11.5633C29.2602 11.4616 29.2887 11.4325 29.3791 11.4325C29.4838 11.4325 29.4933 11.4131 29.4933 11.1952C29.4933 10.9675 29.5028 10.9529 29.6265 10.9384C29.7169 10.9287 29.7597 10.8948 29.7692 10.8173C29.7787 10.7495 29.8215 10.7059 29.8881 10.6962C29.9642 10.6865 29.9975 10.6429 30.007 10.546C30.0213 10.4443 30.0498 10.4152 30.1402 10.4152C30.2306 10.4152 30.2544 10.391 30.2544 10.2941C30.2544 10.1972 30.2782 10.173 30.3733 10.173C30.4685 10.173 30.4922 10.1488 30.4922 10.0519C30.4922 9.95502 30.516 9.9308 30.6064 9.9308C30.6968 9.9308 30.7253 9.90173 30.7396 9.79516C30.7491 9.70311 30.7824 9.65952 30.8585 9.64983C30.9442 9.63529 30.9679 9.5917 30.9965 9.42215C31.0203 9.2526 31.0488 9.20415 31.1297 9.19446C31.201 9.18477 31.2343 9.14118 31.2438 9.04429C31.2581 8.94256 31.2867 8.91349 31.377 8.91349C31.4674 8.91349 31.4912 8.88927 31.4912 8.79239C31.4912 8.6955 31.515 8.67128 31.6054 8.67128C31.6958 8.67128 31.7243 8.64221 31.7386 8.53564C31.7481 8.43391 31.7766 8.40484 31.8718 8.40484C31.9574 8.40484 31.9955 8.43391 32.005 8.51142C32.0145 8.57924 32.0573 8.62284 32.1239 8.63253C32.2143 8.64706 32.2285 8.68097 32.2428 8.89896C32.2571 9.13633 32.2666 9.15571 32.376 9.15571C32.4854 9.15571 32.4902 9.1654 32.4902 9.51419V9.87751L32.2285 9.90657C31.9955 9.94049 31.9669 9.95502 31.9669 10.0567C31.9669 10.1633 31.9479 10.173 31.7291 10.173C31.5102 10.173 31.4912 10.1827 31.4912 10.2893C31.4912 10.391 31.4627 10.4104 31.2534 10.4394C31.0441 10.4685 31.0155 10.4879 31.0155 10.5896C31.0155 10.6865 30.9917 10.7059 30.8728 10.7059C30.7539 10.7059 30.7301 10.7253 30.7301 10.827C30.7301 10.9239 30.7063 10.9481 30.6112 10.9481C30.516 10.9481 30.4922 10.9723 30.4922 11.0692C30.4922 11.1661 30.4685 11.1903 30.3733 11.1903C30.2782 11.1903 30.2544 11.2145 30.2544 11.3066C30.2544 11.3986 30.2259 11.4277 30.126 11.4422C30.0308 11.4519 29.988 11.4858 29.9785 11.5633C29.969 11.6311 29.9262 11.6747 29.8596 11.6844C29.7835 11.6941 29.7502 11.7377 29.7406 11.8298C29.7264 11.9363 29.6978 11.9654 29.6074 11.9654C29.5171 11.9654 29.4933 11.9896 29.4933 12.0865C29.4933 12.1834 29.4695 12.2076 29.3791 12.2076C29.2887 12.2076 29.2602 12.2367 29.2459 12.3384C29.2364 12.4353 29.2031 12.4789 29.127 12.4886C29.0461 12.5031 29.0176 12.537 29.0176 12.6242C29.0176 12.7163 28.9938 12.7405 28.9034 12.7405C28.8035 12.7405 28.7845 12.7696 28.7559 12.9827C28.7274 13.1958 28.7084 13.2249 28.6085 13.2249C28.5133 13.2249 28.4943 13.2491 28.4943 13.3702C28.4943 13.4913 28.4753 13.5156 28.3754 13.5156C28.266 13.5156 28.2565 13.5301 28.2565 13.7578C28.2565 13.9855 28.247 14 28.1375 14C28.0329 14 28.0186 14.0194 28.0186 14.1792C28.0186 14.5426 27.9663 14.7218 27.8569 14.7363C27.7713 14.7509 27.757 14.7896 27.7427 15.0028C27.7284 15.2208 27.7142 15.2547 27.6238 15.2692C27.5239 15.2837 27.5191 15.3128 27.5049 15.7779C27.4906 16.2671 27.4906 16.2768 27.3764 16.2768H27.2623L27.248 17.3522C27.2385 17.9481 27.2385 18.917 27.248 19.508L27.2623 20.5882H27.3764C27.4858 20.5882 27.4906 20.6028 27.5049 20.9855C27.5191 21.3585 27.5286 21.3875 27.6285 21.4021C27.7142 21.4166 27.7332 21.4505 27.7332 21.5958C27.7332 21.9398 27.7855 22.1384 27.8807 22.1384C27.9473 22.1384 27.971 22.1917 27.9948 22.4048C28.0281 22.6422 28.0424 22.6713 28.1423 22.6713C28.247 22.6713 28.2565 22.6907 28.2565 22.9135C28.2565 23.1412 28.266 23.1557 28.3754 23.1557C28.4848 23.1557 28.4943 23.1702 28.4943 23.3979C28.4943 23.6256 28.5038 23.6401 28.6132 23.6401C28.7131 23.6401 28.7322 23.6644 28.7322 23.7855C28.7322 23.9066 28.7512 23.9308 28.8463 23.9308C28.9462 23.9308 28.9653 23.9599 28.9938 24.173C29.0223 24.3862 29.0414 24.4152 29.1413 24.4152C29.2364 24.4152 29.2554 24.4394 29.2554 24.5606C29.2554 24.6817 29.2745 24.7059 29.3744 24.7059C29.4695 24.7059 29.4933 24.7301 29.4933 24.827C29.4933 24.9239 29.5171 24.9481 29.6122 24.9481C29.7073 24.9481 29.7311 24.9723 29.7311 25.0692C29.7311 25.1709 29.7549 25.1903 29.8738 25.1903C29.9928 25.1903 30.0165 25.2097 30.0165 25.3066C30.0165 25.3938 30.0451 25.4277 30.126 25.4422C30.2021 25.4519 30.2354 25.4955 30.2449 25.5875C30.2592 25.6941 30.2877 25.7232 30.3781 25.7232C30.4685 25.7232 30.4922 25.7474 30.4922 25.8443C30.4922 25.9557 30.5065 25.9654 30.7301 25.9654C30.9537 25.9654 30.9679 25.9751 30.9679 26.0865C30.9679 26.1882 30.9917 26.2076 31.1107 26.2076C31.2296 26.2076 31.2534 26.227 31.2534 26.3239C31.2534 26.4256 31.2819 26.445 31.4912 26.474C31.7005 26.5031 31.7291 26.5225 31.7291 26.6242C31.7291 26.7211 31.7528 26.7405 31.8718 26.7405C31.9907 26.7405 32.0145 26.7599 32.0145 26.8616C32.0145 26.973 32.0288 26.9827 32.2523 26.9827C32.4759 26.9827 32.4902 26.9924 32.4902 27.1038C32.4902 27.2152 32.5092 27.2249 32.6947 27.2249C33.0515 27.2249 33.2513 27.2782 33.2513 27.3702C33.2513 27.4623 33.4511 27.5156 33.7841 27.5156C33.9268 27.5156 33.9601 27.5349 33.9744 27.6221C33.9886 27.7287 34.0124 27.7336 34.5024 27.7481C35.0066 27.7626 35.0114 27.7626 35.0114 27.8789V28H36.5098H38.0083V27.8789C38.0083 27.7578 38.013 27.7578 38.4507 27.7578C39.0405 27.7578 39.2451 27.719 39.2451 27.6125C39.2451 27.5301 39.4877 27.4671 39.8207 27.4671C39.9206 27.4671 39.9539 27.4429 39.9682 27.3557C39.9824 27.2637 40.0157 27.2491 40.2345 27.2346C40.4629 27.2201 40.4819 27.2104 40.4819 27.099C40.4819 26.9875 40.4962 26.9827 40.7435 26.9827C40.9861 26.9827 41.0052 26.973 41.0052 26.8664C41.0052 26.7647 41.0337 26.7502 41.243 26.7211C41.4333 26.6969 41.4809 26.6727 41.4809 26.5952C41.4809 26.5322 41.5189 26.4983 41.6141 26.4886C41.7044 26.4789 41.7473 26.445 41.7568 26.3675C41.771 26.2754 41.8139 26.2512 42.0089 26.227C42.2134 26.1979 42.242 26.1834 42.242 26.0817C42.242 25.9896 42.2658 25.9654 42.3609 25.9654C42.4561 25.9654 42.4798 25.9412 42.4798 25.8443C42.4798 25.7426 42.5036 25.7232 42.6225 25.7232C42.7415 25.7232 42.7653 25.7038 42.7653 25.6021C42.7653 25.5052 42.789 25.481 42.8842 25.481C42.9841 25.481 43.0031 25.4567 43.0031 25.3356C43.0031 25.2145 43.0221 25.1903 43.122 25.1903C43.2172 25.1903 43.241 25.1661 43.241 25.0692C43.241 24.9675 43.2647 24.9481 43.3837 24.9481C43.5026 24.9481 43.5264 24.9287 43.5264 24.827C43.5264 24.7301 43.5502 24.7059 43.6453 24.7059C43.7452 24.7059 43.7642 24.6817 43.7642 24.5606C43.7642 24.4394 43.7832 24.4152 43.8831 24.4152C43.9783 24.4152 44.0021 24.391 44.0021 24.2941C44.0021 24.1972 44.0259 24.173 44.121 24.173C44.2304 24.173 44.2399 24.1585 44.2399 23.9308C44.2399 23.708 44.2494 23.6886 44.3541 23.6886C44.4445 23.6886 44.473 23.6595 44.4873 23.5578C44.4968 23.4609 44.5301 23.4173 44.6062 23.4076C44.6871 23.3931 44.7156 23.3495 44.7394 23.1509C44.7679 22.9426 44.787 22.9135 44.8869 22.9135C44.9915 22.9135 45.001 22.8941 45.001 22.6471C45.001 22.3952 45.0058 22.3806 45.1152 22.3806C45.2246 22.3806 45.2341 22.3612 45.2484 22.1239C45.2627 21.9059 45.2769 21.872 45.3721 21.8574C45.4529 21.8429 45.4767 21.809 45.4767 21.7073C45.4767 21.3682 45.5386 21.1211 45.6194 21.1211C45.7241 21.1211 45.7622 20.9128 45.7622 20.3073C45.7622 19.8664 45.7622 19.8616 45.8811 19.8616H46V18.1903V16.519H45.8811C45.7669 16.519 45.7669 16.5142 45.7526 16.0201C45.7384 15.5502 45.7336 15.526 45.629 15.5114C45.5433 15.4969 45.5243 15.463 45.5243 15.3176C45.5243 15.2208 45.51 15.0561 45.4958 14.9543C45.4672 14.8042 45.4434 14.7751 45.3531 14.7751C45.2484 14.7751 45.2389 14.7557 45.2389 14.5087C45.2389 14.2567 45.2341 14.2422 45.12 14.2422C45.0106 14.2422 45.001 14.2277 45.001 14C45.001 13.7772 44.9915 13.7578 44.8869 13.7578C44.787 13.7578 44.7727 13.7287 44.7442 13.5204C44.7204 13.3218 44.6966 13.2782 44.6062 13.2637C44.5301 13.254 44.4968 13.2104 44.4873 13.1135C44.473 13.0118 44.4445 12.9827 44.3541 12.9827C44.2494 12.9827 44.2399 12.9633 44.2399 12.7405C44.2399 12.5176 44.2304 12.4983 44.1258 12.4983C44.0354 12.4983 44.0068 12.4692 43.9926 12.3626C43.983 12.2706 43.9497 12.227 43.8736 12.2173C43.7928 12.2028 43.7642 12.1689 43.7642 12.0817C43.7642 11.9848 43.7404 11.9654 43.6215 11.9654C43.5026 11.9654 43.4788 11.946 43.4788 11.8443C43.4788 11.7474 43.455 11.7232 43.3599 11.7232C43.2647 11.7232 43.241 11.699 43.241 11.6021C43.241 11.5052 43.2172 11.481 43.122 11.481C43.0221 11.481 43.0031 11.4567 43.0031 11.3356C43.0031 11.2048 42.9888 11.1903 42.8604 11.1903C42.7415 11.1903 42.7177 11.1709 42.7177 11.074C42.7177 10.9772 42.6891 10.9529 42.5084 10.9287C42.3371 10.8997 42.2943 10.8754 42.28 10.7882C42.2705 10.7107 42.2277 10.6768 42.1373 10.6671C42.0327 10.6526 42.0041 10.6235 42.0041 10.5315C42.0041 10.4346 41.9804 10.4152 41.8614 10.4152C41.7425 10.4152 41.7187 10.3958 41.7187 10.2941C41.7187 10.1827 41.7044 10.173 41.4809 10.173C41.2573 10.173 41.243 10.1633 41.243 10.0519C41.243 9.94049 41.2288 9.9308 41.0052 9.9308C40.7864 9.9308 40.7673 9.92111 40.7673 9.81453C40.7673 9.70311 40.7483 9.69343 40.52 9.67889C40.3059 9.66436 40.2678 9.64983 40.2536 9.56263C40.2393 9.45121 40.0633 9.39792 39.6875 9.39792C39.502 9.39792 39.4829 9.38824 39.4829 9.27682V9.15571H38.9835H38.484V9.0346V8.91349H36.6287H34.7735V9.0346C34.7735 9.15571 34.7688 9.15571 34.393 9.15571C34.0172 9.15571 34.0124 9.15571 34.0124 9.0346C34.0124 8.93772 33.9886 8.91349 33.8982 8.91349C33.8031 8.91349 33.7841 8.88443 33.7555 8.69066C33.7413 8.5647 33.727 8.39031 33.727 8.30311C33.727 8.15779 33.7127 8.13841 33.6081 8.13841C33.4939 8.13841 33.4891 8.12872 33.4891 7.77509C33.4891 7.42145 33.4844 7.41176 33.3702 7.41176C33.2561 7.41176 33.2513 7.39723 33.2513 7.14533C33.2513 6.89342 33.2465 6.87889 33.1324 6.87889C33.023 6.87889 33.0134 6.85952 33.0134 6.67059C33.0134 6.30727 32.9611 6.10381 32.8707 6.10381C32.7804 6.10381 32.728 5.90035 32.728 5.5564C32.728 5.39654 32.7138 5.37716 32.6091 5.37716C32.4949 5.37716 32.4902 5.36263 32.4902 5.08651C32.4902 4.81038 32.4854 4.79585 32.3713 4.79585C32.2571 4.79585 32.2523 4.78616 32.2523 4.43253C32.2523 4.07889 32.2476 4.0692 32.1334 4.0692C32.0192 4.0692 32.0145 4.05467 32.0145 3.80277V3.53633H33.0039C33.551 3.53633 34.1599 3.55087 34.3597 3.5654C34.7022 3.59931 34.726 3.60415 34.726 3.71073C34.726 3.80761 34.7497 3.82699 34.8687 3.82699C34.9876 3.82699 35.0114 3.84637 35.0114 3.9481C35.0114 4.04498 35.0352 4.0692 35.1303 4.0692C35.2445 4.0692 35.2492 4.08374 35.2492 4.33564C35.2492 4.58754 35.254 4.60208 35.3681 4.60208C35.4776 4.60208 35.4871 4.61661 35.4871 4.84429C35.4871 5.07197 35.4776 5.08651 35.3681 5.08651C35.2683 5.08651 35.2492 5.11073 35.2492 5.23183C35.2492 5.35294 35.2302 5.37716 35.1303 5.37716C35.0352 5.37716 35.0114 5.40138 35.0114 5.49827C35.0114 5.61453 34.9971 5.61938 34.7497 5.61938C34.5024 5.61938 34.4881 5.62422 34.4881 5.74048C34.4881 5.8519 34.4738 5.86159 34.255 5.86159C34.0314 5.86159 34.0172 5.87128 34.0029 5.99239C33.9934 6.08927 33.9601 6.13287 33.884 6.14256C33.7793 6.15709 33.7746 6.18131 33.7746 6.52041C33.7746 6.8692 33.7793 6.87889 33.8935 6.87889C33.9886 6.87889 34.0124 6.90311 34.0124 6.99516C34.0124 7.09689 34.041 7.11626 34.2503 7.14533C34.4405 7.17439 34.4881 7.19862 34.4881 7.27128C34.4881 7.3391 34.5214 7.36332 34.6308 7.36332C34.7497 7.36332 34.7735 7.34394 34.7735 7.24221C34.7735 7.12595 34.783 7.12111 35.1303 7.12111C35.4776 7.12111 35.4871 7.11626 35.4871 7C35.4871 6.88858 35.5013 6.87889 35.7202 6.87889C35.9437 6.87889 35.958 6.8692 35.9723 6.74325C35.9818 6.64152 36.0151 6.60761 36.1198 6.59792C36.2197 6.58339 36.2482 6.55433 36.2482 6.46228C36.2482 6.37024 36.272 6.34602 36.3624 6.34602C36.4623 6.34602 36.4813 6.31696 36.5098 6.10381C36.5336 5.91488 36.5622 5.86159 36.6287 5.86159C36.7191 5.86159 36.7715 5.66298 36.7715 5.28996C36.7715 5.12041 36.7857 5.08651 36.8666 5.08651C36.9522 5.08651 36.9617 5.0526 36.9617 4.72318C36.9617 4.39377 36.9522 4.35986 36.8666 4.35986C36.7857 4.35986 36.7715 4.32595 36.7715 4.15156C36.7715 3.76886 36.7191 3.58962 36.6097 3.57509C36.5384 3.5654 36.5051 3.5218 36.4956 3.42491C36.4813 3.32318 36.4527 3.29412 36.3624 3.29412C36.2577 3.29412 36.2482 3.27474 36.2482 3.05675V2.82422L36.0151 2.79031C35.8201 2.76609 35.7773 2.74187 35.763 2.64983C35.7535 2.57232 35.7107 2.53841 35.6203 2.52872C35.5299 2.51903 35.4871 2.48512 35.4871 2.42699C35.4871 2.3301 35.292 2.27682 34.9543 2.27682C34.7926 2.27682 34.7735 2.26228 34.7735 2.15571V2.0346H32.5187H30.2592L30.2449 2.1654C30.2354 2.26228 30.2021 2.30588 30.126 2.31557C30.0213 2.3301 30.0165 2.35432 30.0165 2.69343C30.0165 3.04222 30.0213 3.0519 30.1355 3.0519C30.2496 3.0519 30.2544 3.06159 30.2544 3.41522C30.2544 3.76886 30.2592 3.77855 30.3733 3.77855C30.478 3.77855 30.4875 3.79792 30.5018 4.05467C30.516 4.30173 30.5303 4.33564 30.6254 4.35017C30.7158 4.36471 30.7301 4.39377 30.7301 4.57301C30.7301 4.77647 30.7253 4.78616 30.5541 4.81523C30.4542 4.82976 30.1735 4.84429 29.9357 4.84429C29.498 4.84429 29.4933 4.84429 29.4933 4.9654V5.08651H28.9034C28.1851 5.08651 28.0186 5.11557 28.0186 5.23668C28.0186 5.31903 27.9806 5.32872 27.6523 5.32872C27.4478 5.32872 27.1053 5.34325 26.8912 5.36263C26.563 5.38685 26.4964 5.40623 26.4964 5.47405C26.4964 5.58062 26.2871 5.61938 25.6782 5.61938C25.2548 5.61938 25.212 5.62907 25.212 5.71142C25.212 5.83253 25.0455 5.86159 24.3272 5.86159H23.7373V5.9827V6.10381H23.1808C22.4529 6.10381 22.2627 6.13772 22.2627 6.25398C22.2627 6.33633 22.2199 6.34602 21.8393 6.34602C21.2304 6.34602 20.9783 6.38962 20.9783 6.49135C20.9783 6.55917 20.9164 6.57855 20.612 6.60761C20.4122 6.62214 20.084 6.63668 19.8794 6.63668C19.5322 6.63668 19.5084 6.64152 19.4941 6.74325C19.4798 6.85467 19.4656 6.85467 18.7568 6.8692L18.029 6.88374V7C18.029 7.10173 18.0052 7.12111 17.8862 7.12111C17.7673 7.12111 17.7435 7.10173 17.7435 7C17.7435 6.90311 17.7198 6.87889 17.6246 6.87889C17.5152 6.87889 17.5104 6.86436 17.4962 6.50104C17.4819 6.15709 17.4724 6.12803 17.3773 6.11349C17.2821 6.09896 17.2678 6.0699 17.2678 5.8955C17.2678 5.53218 17.2155 5.32872 17.1251 5.32872C17.03 5.32872 16.9824 5.12041 16.9824 4.66021C16.9824 4.37439 16.9777 4.35986 16.8635 4.35986C16.7446 4.35986 16.7446 4.35502 16.7446 3.97232C16.7446 3.58962 16.7446 3.58478 16.6256 3.58478C16.5067 3.58478 16.5067 3.57993 16.5067 3.19723C16.5067 2.81453 16.5067 2.80969 16.3878 2.80969C16.2736 2.80969 16.2689 2.8 16.2689 2.48028C16.2689 1.98616 16.2261 1.79239 16.1214 1.79239C16.0596 1.79239 16.031 1.75848 16.031 1.67612C16.031 1.52111 16.1547 1.50173 17.0347 1.50173H17.7435V1.38062C17.7435 1.27889 17.7673 1.25952 17.8862 1.25952C18.0052 1.25952 18.029 1.24014 18.029 1.13841C18.029 1.05121 18.0527 1.0173 18.1241 1.0173C18.2097 1.0173 18.2192 0.983391 18.2192 0.750864C18.2192 0.523184 18.205 0.484428 18.1289 0.484428C18.0575 0.484428 18.0337 0.435986 18.0052 0.242214L17.9719 0H15.2176H12.4633V0.121107ZM31.2534 6.24913C31.2534 6.37024 31.2724 6.39446 31.3723 6.39446C31.4674 6.39446 31.4912 6.41869 31.4912 6.51557C31.4912 6.61246 31.4674 6.63668 31.377 6.63668C31.2771 6.63668 31.2581 6.66574 31.2296 6.87889C31.201 7.09204 31.182 7.12111 31.0821 7.12111C30.9917 7.12111 30.9679 7.14533 30.9679 7.24221C30.9679 7.3391 30.9442 7.36332 30.849 7.36332C30.7491 7.36332 30.7301 7.38754 30.7301 7.50865C30.7301 7.62976 30.7111 7.65398 30.6112 7.65398C30.516 7.65398 30.4922 7.6782 30.4922 7.77509C30.4922 7.87197 30.4685 7.89619 30.3733 7.89619C30.2782 7.89619 30.2544 7.92042 30.2544 8.0173C30.2544 8.11419 30.2306 8.13841 30.1402 8.13841C30.0498 8.13841 30.0213 8.16747 30.007 8.2692C29.9975 8.36609 29.9642 8.40969 29.8881 8.41938C29.8215 8.42907 29.7787 8.47266 29.7692 8.54048C29.7597 8.6083 29.7169 8.6519 29.6503 8.66159C29.5694 8.67612 29.5408 8.71972 29.5171 8.91834C29.4885 9.12664 29.4695 9.15571 29.3696 9.15571C29.2792 9.15571 29.2554 9.17993 29.2554 9.27682C29.2554 9.3737 29.2316 9.39792 29.1413 9.39792C29.0509 9.39792 29.0223 9.42699 29.0081 9.52872C28.9986 9.63529 28.9653 9.6692 28.8654 9.67889C28.7607 9.69343 28.7322 9.72249 28.7322 9.81453C28.7322 9.90657 28.7084 9.9308 28.6132 9.9308C28.5181 9.9308 28.4943 9.95502 28.4943 10.0519C28.4943 10.1488 28.4705 10.173 28.3754 10.173C28.2755 10.173 28.2565 10.1972 28.2565 10.3183C28.2565 10.4394 28.2374 10.4637 28.1423 10.4637C28.0424 10.4637 28.0234 10.4927 27.9948 10.7059C27.9663 10.919 27.9473 10.9481 27.8474 10.9481C27.757 10.9481 27.7332 10.9723 27.7332 11.0692C27.7332 11.1661 27.7094 11.1903 27.6143 11.1903C27.5191 11.1903 27.4953 11.2145 27.4953 11.3114C27.4953 11.4083 27.4716 11.4325 27.3764 11.4325C27.2765 11.4325 27.2575 11.4567 27.2575 11.5779C27.2575 11.699 27.2385 11.7232 27.1386 11.7232C27.0434 11.7232 27.0196 11.7474 27.0196 11.8443C27.0196 11.9412 26.9959 11.9654 26.9055 11.9654C26.8151 11.9654 26.7866 11.9945 26.7723 12.0962C26.7628 12.2028 26.7295 12.2367 26.6296 12.2464C26.5059 12.2609 26.4964 12.2803 26.4964 12.4789C26.4964 12.6727 26.4869 12.692 26.3775 12.692C26.2776 12.692 26.2585 12.7163 26.2585 12.8374C26.2585 12.9682 26.2443 12.9827 26.1158 12.9827C25.9969 12.9827 25.9731 13.0021 25.9731 13.1038C25.9731 13.2007 25.9493 13.2249 25.8542 13.2249C25.7543 13.2249 25.7353 13.2491 25.7353 13.3702C25.7353 13.4913 25.7162 13.5156 25.6163 13.5156C25.5212 13.5156 25.4974 13.5398 25.4974 13.6367C25.4974 13.7336 25.4736 13.7578 25.3785 13.7578C25.2834 13.7578 25.2596 13.782 25.2596 13.8789C25.2596 13.9758 25.2358 14 25.1454 14C25.0455 14 25.0265 14.0291 24.9979 14.2422C24.9694 14.4554 24.9504 14.4844 24.8505 14.4844C24.7553 14.4844 24.7363 14.5087 24.7363 14.6298C24.7363 14.7509 24.7173 14.7751 24.6174 14.7751C24.5222 14.7751 24.4984 14.7993 24.4984 14.8962C24.4984 14.9931 24.4747 15.0173 24.3795 15.0173C24.2844 15.0173 24.2606 15.0415 24.2606 15.1384C24.2606 15.2353 24.2368 15.2595 24.1464 15.2595C24.0561 15.2595 24.0275 15.2886 24.0132 15.3903C24.0037 15.4969 23.9704 15.5308 23.8705 15.5405C23.7659 15.555 23.7373 15.5841 23.7373 15.6761C23.7373 15.7682 23.7135 15.7924 23.6184 15.7924C23.509 15.7924 23.4995 15.8069 23.4995 16.0346C23.4995 16.2623 23.49 16.2768 23.3806 16.2768C23.2854 16.2768 23.2616 16.301 23.2616 16.3931C23.2616 16.4851 23.2331 16.5142 23.1332 16.5287C23.0285 16.5384 22.9952 16.5723 22.9857 16.674C22.9715 16.7806 22.9429 16.8097 22.8525 16.8097C22.7622 16.8097 22.7384 16.8339 22.7384 16.9308C22.7384 17.0277 22.7146 17.0519 22.6194 17.0519C22.5243 17.0519 22.5005 17.0761 22.5005 17.173C22.5005 17.2699 22.4767 17.2941 22.3816 17.2941C22.2817 17.2941 22.2627 17.3183 22.2627 17.4394C22.2627 17.5606 22.2436 17.5848 22.1485 17.5848C22.0486 17.5848 22.0296 17.6138 22.001 17.827C21.9725 18.0401 21.9535 18.0692 21.8536 18.0692C21.7632 18.0692 21.7394 18.0934 21.7394 18.1903C21.7394 18.2872 21.7156 18.3114 21.6205 18.3114C21.5206 18.3114 21.5016 18.3356 21.5016 18.4567C21.5016 18.5972 21.4968 18.6021 21.2685 18.6021H21.0401L21.0068 18.3792C20.9926 18.2533 20.9783 18.0789 20.9783 17.9917C20.9783 17.8464 20.964 17.827 20.8594 17.827C20.7404 17.827 20.7404 17.8221 20.7404 17.4394C20.7404 17.0567 20.7404 17.0519 20.6215 17.0519C20.5026 17.0519 20.5026 17.0471 20.5026 16.6644C20.5026 16.2817 20.5026 16.2768 20.3837 16.2768C20.2695 16.2768 20.2647 16.2623 20.2647 15.9716C20.2647 15.5163 20.2172 15.308 20.122 15.308C20.0364 15.308 19.9793 15.0609 19.9793 14.6976C19.9793 14.5716 19.9603 14.5377 19.8747 14.5232C19.7748 14.5087 19.7653 14.4796 19.751 14.1066C19.7367 13.719 19.7367 13.7093 19.6225 13.7093C19.5084 13.7093 19.5036 13.6948 19.5036 13.4042C19.5036 12.9343 19.4608 12.7405 19.3562 12.7405C19.28 12.7405 19.2658 12.7017 19.2658 12.5322C19.2658 12.1689 19.2134 11.9654 19.1231 11.9654C19.0327 11.9654 18.9804 11.7619 18.9804 11.3938C18.9804 11.2097 18.9708 11.1903 18.8614 11.1903H18.7425V10.7059C18.7425 10.2215 18.7425 10.2215 18.6236 10.2215C18.5094 10.2215 18.5094 10.2118 18.4951 9.81938C18.4809 9.45605 18.4714 9.42215 18.381 9.40761C18.2858 9.39308 18.2763 9.35432 18.243 8.93772C18.224 8.68581 18.224 8.45813 18.243 8.42907C18.262 8.4 18.4714 8.38062 18.771 8.38062C19.223 8.38062 19.2658 8.37093 19.2658 8.28858C19.2658 8.17232 19.4561 8.13841 20.1839 8.13841H20.7404V8.0173V7.90104L21.492 7.88651C22.2246 7.87197 22.2389 7.87197 22.2532 7.76055C22.2674 7.65882 22.2912 7.65398 22.6385 7.65398C22.843 7.65398 23.1713 7.63945 23.371 7.62491C23.6755 7.59585 23.7373 7.57647 23.7373 7.50865C23.7373 7.40692 23.9895 7.36332 24.5983 7.36332C24.9789 7.36332 25.0217 7.35363 25.0217 7.27128C25.0217 7.15502 25.212 7.12111 25.9398 7.12111H26.4964V7V6.88374L27.248 6.8692C27.9806 6.85467 27.9948 6.85467 28.0091 6.74325C28.0234 6.64152 28.0472 6.63668 28.3944 6.63668C28.599 6.63668 28.9272 6.62214 29.127 6.60761C29.4314 6.57855 29.4933 6.55917 29.4933 6.49135C29.4933 6.38962 29.7454 6.34602 30.3543 6.34602C30.7396 6.34602 30.7777 6.33633 30.7777 6.25398C30.7777 6.15709 30.8585 6.12318 31.1249 6.10865C31.2391 6.10381 31.2534 6.12318 31.2534 6.24913ZM16.9824 9.86782C16.9824 10.2118 17.0347 10.4152 17.1251 10.4152C17.2108 10.4152 17.2678 10.6623 17.2678 11.0498C17.2678 11.2 17.2869 11.2388 17.3582 11.2388C17.4676 11.2388 17.5057 11.4083 17.5057 11.8734C17.5057 12.1979 17.5104 12.2076 17.6246 12.2076C17.7435 12.2076 17.7435 12.2125 17.7435 12.5952C17.7435 12.973 17.7483 12.9827 17.8625 12.9827C17.9719 12.9827 17.9766 12.9972 17.9909 13.3557C18.0052 13.6997 18.0147 13.7336 18.1098 13.7481C18.205 13.7626 18.2145 13.8014 18.243 14.2713C18.2763 14.7606 18.2811 14.7751 18.3905 14.7751C18.4999 14.7751 18.5047 14.7848 18.5047 15.1626C18.5047 15.5453 18.5047 15.5502 18.6236 15.5502C18.7377 15.5502 18.7425 15.5599 18.7425 15.8844C18.7425 16.3495 18.7806 16.519 18.89 16.519C18.9661 16.519 18.9804 16.5578 18.9804 16.7225C18.9804 17.0907 19.0327 17.2941 19.1231 17.2941C19.2134 17.2941 19.2658 17.4976 19.2658 17.8609C19.2658 18.0353 19.28 18.0644 19.3752 18.0789C19.4751 18.0934 19.4798 18.1176 19.4941 18.5875C19.5084 19.0817 19.5084 19.0865 19.6225 19.0865C19.7177 19.0865 19.7415 19.1107 19.7415 19.2076V19.3287H19.242H18.7425V17.9481V16.5675H18.6236H18.5047V16.0588V15.5502H18.3857C18.2763 15.5502 18.2668 15.5308 18.2668 15.3419C18.2668 15.2304 18.2525 15.0561 18.2383 14.9543C18.2097 14.8042 18.1859 14.7751 18.0956 14.7751C17.9909 14.7751 17.9814 14.7557 17.9814 14.5087C17.9814 14.2567 17.9766 14.2422 17.8625 14.2422C17.7531 14.2422 17.7435 14.2277 17.7435 14C17.7435 13.7723 17.734 13.7578 17.6246 13.7578C17.5247 13.7578 17.5057 13.7336 17.5057 13.6125C17.5057 13.4913 17.4867 13.4671 17.3868 13.4671C17.2774 13.4671 17.2678 13.4526 17.2678 13.2249C17.2678 12.9875 17.2631 12.9827 17.1251 12.9827C16.9967 12.9827 16.9824 12.9682 16.9824 12.8374C16.9824 12.7163 16.9634 12.692 16.8635 12.692C16.7541 12.692 16.7446 12.6727 16.7446 12.474C16.7446 12.2754 16.7351 12.2561 16.6256 12.2561C16.5258 12.2561 16.5067 12.2318 16.5067 12.1107C16.5067 11.9896 16.4877 11.9654 16.3878 11.9654C16.2927 11.9654 16.2689 11.9412 16.2689 11.8443C16.2689 11.7426 16.2451 11.7232 16.1262 11.7232C16.0072 11.7232 15.9835 11.7038 15.9835 11.6069C15.9835 11.5197 15.9549 11.4858 15.8788 11.4713C15.7789 11.4567 15.7694 11.4277 15.7694 11.1903C15.7694 10.9529 15.7789 10.9239 15.8693 10.9093C15.9502 10.8997 15.9787 10.8512 16.0025 10.6817C16.031 10.5121 16.0548 10.4685 16.1404 10.454C16.2165 10.4443 16.2498 10.4007 16.2594 10.3038C16.2736 10.2021 16.3022 10.173 16.3926 10.173C16.4877 10.173 16.5067 10.1488 16.5067 10.0277C16.5067 9.90657 16.5258 9.88235 16.6256 9.88235C16.7113 9.88235 16.7446 9.85813 16.7446 9.78547C16.7446 9.7128 16.7779 9.68858 16.8635 9.68858C16.9681 9.68858 16.9824 9.70796 16.9824 9.86782ZM10.8602 10.4443C11.1646 10.4734 11.2265 10.4927 11.2265 10.5606C11.2265 10.6478 11.4691 10.7059 11.8259 10.7059C11.9495 10.7059 11.9828 10.7253 11.9971 10.8125C12.0114 10.9142 12.0399 10.9239 12.3824 10.9384C12.7344 10.9529 12.7487 10.9578 12.7487 11.0692C12.7487 11.1806 12.7677 11.1903 12.9818 11.1903C13.2054 11.1903 13.2196 11.2 13.2339 11.3211C13.2434 11.4277 13.2767 11.4616 13.3814 11.4713C13.4908 11.4858 13.5146 11.51 13.5003 11.5924C13.4908 11.6602 13.448 11.7038 13.3814 11.7135C13.3005 11.728 13.272 11.7619 13.272 11.8491C13.272 11.946 13.2482 11.9654 13.1293 11.9654C12.9913 11.9654 12.9866 11.9702 12.9866 12.2076C12.9866 12.4353 12.977 12.4498 12.8676 12.4498C12.7677 12.4498 12.7487 12.474 12.7487 12.5952C12.7487 12.7163 12.7297 12.7405 12.6298 12.7405C12.5346 12.7405 12.5109 12.7647 12.5109 12.8616C12.5109 12.9585 12.4871 12.9827 12.3967 12.9827C12.2968 12.9827 12.2778 13.0118 12.2492 13.2249C12.2207 13.4381 12.2017 13.4671 12.1018 13.4671C12.0066 13.4671 11.9876 13.4913 11.9876 13.6125C11.9876 13.7336 11.9686 13.7578 11.8687 13.7578C11.7735 13.7578 11.7497 13.782 11.7497 13.8789C11.7497 13.9758 11.726 14 11.6356 14C11.5357 14 11.5214 14.0291 11.4929 14.2374C11.4691 14.436 11.4453 14.4796 11.3549 14.4941C11.2788 14.5038 11.2455 14.5474 11.236 14.6394C11.2217 14.746 11.1932 14.7751 11.1028 14.7751C11.0124 14.7751 10.9886 14.7993 10.9886 14.8962C10.9886 14.9931 10.9648 15.0173 10.8697 15.0173C10.7603 15.0173 10.7508 15.0318 10.7508 15.2595C10.7508 15.4824 10.7413 15.5017 10.6366 15.5017C10.5462 15.5017 10.5177 15.5308 10.5034 15.6325C10.4939 15.7294 10.4606 15.773 10.3845 15.7827C10.3036 15.7972 10.2751 15.8311 10.2751 15.9183C10.2751 16.0152 10.2513 16.0346 10.1324 16.0346C9.99442 16.0346 9.98966 16.0394 9.98966 16.2768C9.98966 16.5045 9.98015 16.519 9.87074 16.519C9.77084 16.519 9.75181 16.5433 9.75181 16.6644C9.75181 16.7855 9.73278 16.8097 9.63289 16.8097C9.53775 16.8097 9.51396 16.8339 9.51396 16.9308C9.51396 17.0277 9.49018 17.0519 9.39979 17.0519C9.2999 17.0519 9.28087 17.081 9.25233 17.2941C9.22379 17.5073 9.20476 17.5363 9.10486 17.5363C9.00972 17.5363 8.99069 17.5606 8.99069 17.6817C8.99069 17.8028 8.97167 17.827 8.87177 17.827C8.76236 17.827 8.75284 17.8415 8.75284 18.0692C8.75284 18.2969 8.74333 18.3114 8.63392 18.3114C8.53402 18.3114 8.515 18.3356 8.515 18.4567C8.515 18.5779 8.53402 18.6021 8.63392 18.6021C8.74333 18.6021 8.75284 18.6166 8.75284 18.8443V19.0865H9.01448C9.26184 19.0865 9.27611 19.0913 9.27611 19.2076V19.3287H9.79462C10.4939 19.3287 10.7508 19.3675 10.7508 19.474C10.7508 19.5419 10.8174 19.5612 11.1456 19.5855C11.3597 19.6048 11.7022 19.6194 11.9067 19.6194C12.235 19.6194 12.273 19.6291 12.273 19.7114C12.273 19.8277 12.4633 19.8616 13.1911 19.8616H13.7477V19.9827V20.1038H14.5088H15.2699V20.2249V20.346H15.8312C16.5543 20.346 16.7446 20.3799 16.7446 20.4962C16.7446 20.564 16.7779 20.5882 16.8635 20.5882C16.9634 20.5882 16.9824 20.6125 16.9824 20.7336C16.9824 20.8547 16.9634 20.8789 16.8635 20.8789C16.7446 20.8789 16.7446 20.8837 16.7446 21.2664C16.7446 21.6491 16.7446 21.654 16.6256 21.654C16.5162 21.654 16.5067 21.6685 16.5067 21.8962C16.5067 22.119 16.4972 22.1384 16.3926 22.1384C16.2927 22.1384 16.2784 22.1675 16.2451 22.4048C16.2165 22.6471 16.2023 22.6713 16.0976 22.6713C15.993 22.6713 15.9835 22.6907 15.9835 22.9135C15.9835 23.1412 15.9739 23.1557 15.8645 23.1557C15.7694 23.1557 15.7456 23.1799 15.7456 23.2768C15.7456 23.3737 15.7218 23.3979 15.6267 23.3979C15.5268 23.3979 15.5078 23.4221 15.5078 23.5433C15.5078 23.6644 15.4887 23.6886 15.3888 23.6886C15.2937 23.6886 15.2699 23.7128 15.2699 23.8097C15.2699 23.9066 15.2461 23.9308 15.151 23.9308C15.0558 23.9308 15.0321 23.955 15.0321 24.0471C15.0321 24.1391 15.0035 24.1682 14.9036 24.1827C14.799 24.1924 14.7657 24.2263 14.7562 24.328C14.7419 24.4346 14.7133 24.4637 14.623 24.4637C14.5326 24.4637 14.5088 24.4879 14.5088 24.5848C14.5088 24.6817 14.485 24.7059 14.3899 24.7059C14.2947 24.7059 14.2709 24.7301 14.2709 24.827C14.2709 24.9287 14.2472 24.9481 14.1282 24.9481C14.0093 24.9481 13.9855 24.9675 13.9855 25.0692C13.9855 25.1806 13.9713 25.1903 13.7477 25.1903C13.5289 25.1903 13.5098 25.2 13.5098 25.3066C13.5098 25.4083 13.4813 25.4277 13.2767 25.4567C13.0817 25.481 13.0389 25.51 13.0246 25.5924C13.0103 25.6844 12.977 25.699 12.763 25.7135C12.5299 25.728 12.5109 25.7377 12.5109 25.8491C12.5109 25.9606 12.4966 25.9654 12.2492 25.9654C12.0019 25.9654 11.9876 25.9702 11.9876 26.0865C11.9876 26.2028 11.9781 26.2076 11.6689 26.2076C11.1932 26.2076 10.9886 26.2512 10.9886 26.3529C10.9886 26.4256 10.9125 26.4401 10.4083 26.4644C9.6757 26.508 9.0668 26.508 8.33423 26.4644C7.82999 26.4401 7.75388 26.4256 7.75388 26.3529C7.75388 26.2512 7.54933 26.2076 7.07839 26.2076C6.76443 26.2076 6.75491 26.2028 6.75491 26.0865C6.75491 25.9702 6.74064 25.9654 6.49328 25.9654C6.24592 25.9654 6.23164 25.9606 6.23164 25.8491C6.23164 25.7377 6.21262 25.728 5.98428 25.7135C5.76546 25.699 5.73216 25.6844 5.71789 25.5924C5.70362 25.51 5.66081 25.481 5.46577 25.4567C5.26122 25.4277 5.23268 25.4083 5.23268 25.3066C5.23268 25.2 5.21365 25.1903 4.99483 25.1903C4.77125 25.1903 4.75698 25.1806 4.75698 25.0692C4.75698 24.9723 4.7332 24.9481 4.63806 24.9481C4.54292 24.9481 4.51913 24.9239 4.51913 24.827C4.51913 24.7253 4.49535 24.7059 4.37642 24.7059C4.2575 24.7059 4.23371 24.6865 4.23371 24.5848C4.23371 24.4879 4.20993 24.4637 4.11479 24.4637C4.01965 24.4637 3.99586 24.4394 3.99586 24.3474C3.99586 24.2554 3.96732 24.2263 3.86743 24.2118C3.76277 24.2021 3.72947 24.1682 3.71996 24.0664C3.70569 23.9599 3.67715 23.9308 3.58676 23.9308C3.49638 23.9308 3.4726 23.9066 3.4726 23.8097C3.4726 23.7128 3.44881 23.6886 3.35367 23.6886C3.25853 23.6886 3.23475 23.6644 3.23475 23.5723C3.23475 23.4851 3.2062 23.4512 3.13009 23.4367C3.04922 23.427 3.01593 23.3834 3.00641 23.2913C2.99214 23.1848 2.9636 23.1557 2.87322 23.1557C2.76856 23.1557 2.75905 23.1363 2.75905 22.9135C2.75905 22.6907 2.74953 22.6713 2.64488 22.6713C2.5545 22.6713 2.52596 22.6422 2.51169 22.5356C2.50217 22.4436 2.46887 22.4 2.39276 22.3903C2.31189 22.3758 2.28335 22.3322 2.25957 22.1384C2.23578 21.9446 2.20724 21.901 2.12637 21.8865C2.03123 21.872 2.02172 21.8381 2.00745 21.4941C1.99317 21.1356 1.98842 21.1211 1.87901 21.1211C1.76484 21.1211 1.76008 21.1114 1.76008 20.7336C1.76008 20.3606 1.75533 20.346 1.65067 20.346C1.54126 20.346 1.5365 20.3315 1.50796 19.7986C1.46515 19.101 1.46515 17.8561 1.50796 17.11C1.5365 16.5336 1.54126 16.519 1.65067 16.519C1.75533 16.519 1.76008 16.5045 1.76008 16.1315C1.76008 15.7488 1.76008 15.7439 1.87901 15.7439C1.99317 15.7439 1.99793 15.7343 1.99793 15.3806C1.99793 15.027 2.00269 15.0173 2.1121 15.0173C2.212 15.0173 2.23102 14.9882 2.25957 14.7799C2.28335 14.5813 2.31189 14.5377 2.39276 14.5232C2.46887 14.5135 2.50217 14.4699 2.51169 14.373C2.5212 14.2858 2.5545 14.2422 2.61634 14.2422C2.68294 14.2422 2.71148 14.1889 2.73526 14C2.76381 13.7869 2.78283 13.7578 2.88273 13.7578C2.97787 13.7578 2.9969 13.7336 2.9969 13.6125C2.9969 13.4913 3.01593 13.4671 3.11107 13.4671C3.21096 13.4671 3.22999 13.4381 3.25853 13.2249C3.28707 13.0118 3.3061 12.9827 3.406 12.9827C3.49638 12.9827 3.52017 12.9585 3.52017 12.8616C3.52017 12.7647 3.54395 12.7405 3.63909 12.7405C3.73423 12.7405 3.75801 12.7163 3.75801 12.6242C3.75801 12.5225 3.78656 12.5031 3.99586 12.474C4.20517 12.445 4.23371 12.4256 4.23371 12.3239C4.23371 12.2318 4.2575 12.2076 4.35264 12.2076C4.44778 12.2076 4.47156 12.1834 4.47156 12.0865C4.47156 11.9848 4.49535 11.9654 4.61427 11.9654C4.7332 11.9654 4.75698 11.946 4.75698 11.8491C4.75698 11.7474 4.78552 11.728 4.99007 11.699C5.18511 11.6747 5.22792 11.6457 5.24219 11.5633C5.25171 11.4858 5.29452 11.4519 5.38966 11.4422C5.48956 11.4277 5.5181 11.3986 5.5181 11.3066C5.5181 11.2 5.53713 11.1903 5.75595 11.1903C5.97952 11.1903 5.9938 11.1806 5.9938 11.0692C5.9938 10.9578 6.01282 10.9481 6.19835 10.9481C6.56463 10.9481 6.75491 10.8948 6.75491 10.7979C6.75491 10.7253 6.78821 10.7059 6.91665 10.7059C7.27818 10.7059 7.51603 10.6478 7.51603 10.5557C7.51603 10.4976 7.55884 10.4637 7.64922 10.4491C7.86805 10.4152 10.4749 10.4152 10.8602 10.4443ZM38.308 10.4443C38.4316 10.4685 38.484 10.5024 38.484 10.5606C38.484 10.6478 38.7266 10.7059 39.0834 10.7059C39.2118 10.7059 39.2451 10.7253 39.2451 10.7979C39.2451 10.8948 39.4354 10.9481 39.8064 10.9481C39.9872 10.9481 40.0062 10.9578 40.0062 11.0692C40.0062 11.1806 40.0205 11.1903 40.2441 11.1903C40.4629 11.1903 40.4819 11.2 40.4819 11.3066C40.4819 11.4083 40.5104 11.4277 40.715 11.4567C40.91 11.481 40.9528 11.51 40.9671 11.5924C40.9766 11.6699 41.0194 11.7038 41.1146 11.7135C41.2145 11.728 41.243 11.7571 41.243 11.8491C41.243 11.946 41.2668 11.9654 41.3857 11.9654C41.5047 11.9654 41.5284 11.9848 41.5284 12.0817C41.5284 12.1834 41.557 12.2028 41.7663 12.2318C41.9756 12.2609 42.0041 12.2803 42.0041 12.382C42.0041 12.474 42.0279 12.4983 42.1231 12.4983C42.2182 12.4983 42.242 12.5225 42.242 12.6194C42.242 12.7163 42.2658 12.7405 42.3609 12.7405C42.4561 12.7405 42.4798 12.7647 42.4798 12.8616C42.4798 12.9585 42.5036 12.9827 42.594 12.9827C42.6939 12.9827 42.7129 13.0118 42.7415 13.2249C42.77 13.4381 42.789 13.4671 42.8889 13.4671C42.9841 13.4671 43.0031 13.4913 43.0031 13.6125C43.0031 13.7336 43.0221 13.7578 43.122 13.7578C43.2172 13.7578 43.241 13.782 43.241 13.8789C43.241 13.9758 43.2647 14 43.3551 14C43.455 14 43.4693 14.0291 43.4978 14.2422C43.5216 14.436 43.5454 14.4844 43.6215 14.4844C43.6929 14.4844 43.7167 14.5329 43.7404 14.7509C43.7737 14.9882 43.788 15.0173 43.8879 15.0173C43.9926 15.0173 44.0021 15.0367 44.0021 15.2837C44.0021 15.5356 44.0068 15.5502 44.121 15.5502C44.2352 15.5502 44.2399 15.5599 44.2399 15.8844C44.2399 16.3398 44.278 16.519 44.3826 16.519C44.4587 16.519 44.4683 16.6014 44.5016 17.2941C44.5206 17.7253 44.5206 18.5827 44.5016 19.2076L44.4635 20.346H44.3541C44.2447 20.346 44.2399 20.3606 44.2399 20.7336C44.2399 21.1163 44.2399 21.1211 44.121 21.1211C44.0068 21.1211 44.0021 21.1356 44.0021 21.3875C44.0021 21.6394 43.9973 21.654 43.8879 21.654C43.7785 21.654 43.769 21.6734 43.7547 21.9059C43.7404 22.1287 43.7262 22.1626 43.6358 22.1772C43.5454 22.1917 43.5216 22.2353 43.4978 22.4339C43.4693 22.6422 43.455 22.6713 43.3551 22.6713C43.2505 22.6713 43.241 22.6907 43.241 22.9135C43.241 23.1412 43.2314 23.1557 43.122 23.1557C43.0269 23.1557 43.0031 23.1799 43.0031 23.2768C43.0031 23.3737 42.9793 23.3979 42.8889 23.3979C42.7986 23.3979 42.77 23.427 42.7557 23.5287C42.7462 23.6256 42.7129 23.6692 42.6368 23.6789C42.5702 23.6886 42.5274 23.7322 42.5179 23.8C42.5084 23.8775 42.4656 23.9114 42.3752 23.9211C42.261 23.9356 42.242 23.9599 42.242 24.081C42.242 24.1972 42.223 24.2215 42.1231 24.2215C42.0279 24.2215 42.0041 24.2457 42.0041 24.3426C42.0041 24.4394 41.9804 24.4637 41.8852 24.4637C41.7901 24.4637 41.7663 24.4879 41.7663 24.5848C41.7663 24.6865 41.7425 24.7059 41.6236 24.7059C41.5047 24.7059 41.4809 24.7253 41.4809 24.827C41.4809 24.9239 41.4571 24.9481 41.3619 24.9481C41.2668 24.9481 41.243 24.9723 41.243 25.0692C41.243 25.1806 41.2288 25.1903 41.0052 25.1903C40.7864 25.1903 40.7673 25.2 40.7673 25.3066C40.7673 25.4131 40.7435 25.4277 40.5057 25.4567C40.2726 25.4907 40.2441 25.5052 40.2441 25.6069C40.2441 25.7135 40.225 25.7232 40.0062 25.7232C39.7826 25.7232 39.7684 25.7329 39.7684 25.8443C39.7684 25.9606 39.7541 25.9654 39.5067 25.9654C39.2594 25.9654 39.2451 25.9702 39.2451 26.0865C39.2451 26.2028 39.2356 26.2076 38.9264 26.2076C38.4507 26.2076 38.2461 26.2512 38.2461 26.3529C38.2461 26.4256 38.17 26.4401 37.6658 26.4644C36.9332 26.508 36.3243 26.508 35.5917 26.4644C35.0875 26.4401 35.0114 26.4256 35.0114 26.3529C35.0114 26.2512 34.8068 26.2076 34.3359 26.2076C34.0219 26.2076 34.0124 26.2028 34.0124 26.0865C34.0124 25.9702 33.9981 25.9654 33.7508 25.9654C33.5034 25.9654 33.4891 25.9606 33.4891 25.8443C33.4891 25.7329 33.4749 25.7232 33.2513 25.7232C33.0325 25.7232 33.0134 25.7135 33.0134 25.6069C33.0134 25.5052 32.9849 25.4907 32.7518 25.4567C32.514 25.4277 32.4902 25.4131 32.4902 25.3066C32.4902 25.2 32.4711 25.1903 32.2523 25.1903C32.0288 25.1903 32.0145 25.1806 32.0145 25.0692C32.0145 24.9675 31.9907 24.9481 31.8718 24.9481C31.7528 24.9481 31.7291 24.9287 31.7291 24.827C31.7291 24.7301 31.7053 24.7059 31.6101 24.7059C31.515 24.7059 31.4912 24.6817 31.4912 24.5848C31.4912 24.4879 31.4674 24.4637 31.377 24.4637C31.2867 24.4637 31.2581 24.4346 31.2438 24.3329C31.2343 24.2263 31.201 24.1924 31.1011 24.1827C30.9965 24.1682 30.9679 24.1391 30.9679 24.0471C30.9679 23.955 30.9442 23.9308 30.849 23.9308C30.7539 23.9308 30.7301 23.9066 30.7301 23.8097C30.7301 23.7128 30.7063 23.6886 30.6112 23.6886C30.5113 23.6886 30.4922 23.6644 30.4922 23.5433C30.4922 23.4221 30.4732 23.3979 30.3733 23.3979C30.2782 23.3979 30.2544 23.3737 30.2544 23.2768C30.2544 23.1799 30.2306 23.1557 30.1402 23.1557C30.0403 23.1557 30.0213 23.1266 29.9928 22.9183C29.969 22.7197 29.9404 22.6761 29.8596 22.6616C29.7692 22.6471 29.7549 22.6083 29.7406 22.4194C29.7264 22.2304 29.7121 22.1917 29.6217 22.1772C29.5313 22.1626 29.5171 22.1287 29.5028 21.9059C29.4885 21.6734 29.479 21.654 29.3696 21.654C29.2602 21.654 29.2554 21.6394 29.2554 21.3875C29.2554 21.1405 29.2459 21.1211 29.1413 21.1211C29.0319 21.1211 29.0271 21.1066 28.9938 20.6367C28.9653 20.2152 28.951 20.1522 28.8796 20.1522C28.7512 20.1522 28.7322 19.9003 28.7322 18.4374C28.7322 17.018 28.7512 16.8097 28.8749 16.8097C28.97 16.8097 29.0176 16.5578 29.0176 16.0782C29.0176 15.8069 29.0223 15.7924 29.1365 15.7924C29.2507 15.7924 29.2554 15.7779 29.2554 15.526C29.2554 15.274 29.2602 15.2595 29.3744 15.2595C29.4885 15.2595 29.4933 15.245 29.4933 14.9931C29.4933 14.7412 29.498 14.7266 29.6074 14.7266C29.7169 14.7266 29.7264 14.7024 29.7406 14.4941C29.7549 14.3052 29.7692 14.2664 29.8596 14.2519C29.9404 14.2374 29.969 14.1938 29.9928 13.9952C30.0213 13.7869 30.0403 13.7578 30.1402 13.7578C30.2354 13.7578 30.2544 13.7336 30.2544 13.6125C30.2544 13.4913 30.2734 13.4671 30.3733 13.4671C30.4685 13.4671 30.4922 13.4429 30.4922 13.346C30.4922 13.2491 30.516 13.2249 30.6112 13.2249C30.7063 13.2249 30.7301 13.2007 30.7301 13.1038C30.7301 13.0069 30.7539 12.9827 30.8443 12.9827C30.9442 12.9827 30.9632 12.9536 30.9917 12.7453L31.025 12.508L31.2581 12.474C31.4627 12.445 31.4912 12.4256 31.4912 12.3239C31.4912 12.2318 31.515 12.2076 31.6101 12.2076C31.7053 12.2076 31.7291 12.1834 31.7291 12.0865C31.7291 11.9848 31.7528 11.9654 31.8718 11.9654C31.9907 11.9654 32.0145 11.946 32.0145 11.8491C32.0145 11.7474 32.043 11.728 32.2523 11.699C32.4616 11.6699 32.4902 11.6505 32.4902 11.5488C32.4902 11.4519 32.514 11.4325 32.6329 11.4325C32.7518 11.4325 32.7756 11.4131 32.7756 11.3114C32.7756 11.2 32.7899 11.1903 33.0134 11.1903H33.2513V11.4567C33.2513 11.7087 33.2561 11.7232 33.3702 11.7232C33.4796 11.7232 33.4891 11.7426 33.4891 11.9363C33.4891 12.2754 33.5367 12.4498 33.6319 12.4498C33.7175 12.4498 33.7746 12.6969 33.7746 13.0602C33.7746 13.2055 33.7888 13.2249 33.8935 13.2249C34.0077 13.2249 34.0124 13.2394 34.0124 13.4913C34.0124 13.7433 34.0172 13.7578 34.1313 13.7578C34.2455 13.7578 34.2503 13.7675 34.2503 14.1211C34.2503 14.4747 34.255 14.4844 34.3692 14.4844C34.4786 14.4844 34.4881 14.5038 34.4881 14.6879C34.4881 15.0609 34.5404 15.2595 34.6356 15.2595C34.7022 15.2595 34.726 15.3128 34.7497 15.526C34.7783 15.7343 34.8021 15.7924 34.8687 15.7924C34.959 15.7924 35.0114 15.991 35.0114 16.3349C35.0114 16.4997 35.0256 16.519 35.1303 16.519C35.2492 16.519 35.2492 16.5239 35.2492 16.9066C35.2492 17.2893 35.2492 17.2941 35.3681 17.2941C35.4823 17.2941 35.4871 17.3087 35.4871 17.5606C35.4871 17.8125 35.4918 17.827 35.606 17.827C35.7107 17.827 35.7249 17.8464 35.7249 17.9917C35.7249 18.0789 35.7392 18.2533 35.7535 18.3792C35.782 18.573 35.801 18.6021 35.8962 18.6021C36.0008 18.6021 36.0103 18.6215 36.0103 18.8443C36.0103 19.072 36.0199 19.0865 36.1293 19.0865C36.2292 19.0865 36.2482 19.1107 36.2482 19.2318C36.2482 19.3529 36.2672 19.3772 36.3671 19.3772C36.4527 19.3772 36.486 19.4014 36.486 19.474C36.486 19.5612 36.5193 19.5709 36.7477 19.5709C36.976 19.5709 37.0093 19.5612 37.0093 19.474C37.0093 19.4014 37.0426 19.3772 37.1282 19.3772C37.2281 19.3772 37.2472 19.3529 37.2472 19.2318C37.2472 19.1107 37.2662 19.0865 37.3661 19.0865C37.485 19.0865 37.485 19.0817 37.485 18.699C37.485 18.3163 37.485 18.3114 37.3661 18.3114C37.2519 18.3114 37.2472 18.3017 37.2472 17.9481C37.2472 17.5945 37.2424 17.5848 37.1282 17.5848C37.0141 17.5848 37.0093 17.5702 37.0093 17.3183C37.0093 17.0664 37.0046 17.0519 36.8904 17.0519C36.7857 17.0519 36.7715 17.0325 36.7715 16.8872C36.7715 16.8 36.7572 16.6256 36.7429 16.4997C36.7144 16.3059 36.6953 16.2768 36.6002 16.2768C36.4908 16.2768 36.486 16.2623 36.486 15.9135C36.486 15.5599 36.4813 15.5502 36.3671 15.5502C36.2529 15.5502 36.2482 15.5356 36.2482 15.2837C36.2482 15.0318 36.2434 15.0173 36.1293 15.0173C36.0199 15.0173 36.0151 15.0028 36.0008 14.6394C35.9866 14.3003 35.977 14.2664 35.8867 14.2519C35.7773 14.2374 35.7249 14.0581 35.7249 13.6997C35.7249 13.5543 35.7059 13.5204 35.6203 13.5059C35.5251 13.4913 35.5109 13.4574 35.4966 13.2346C35.4823 13.0021 35.4728 12.9827 35.3634 12.9827C35.254 12.9827 35.2492 12.973 35.2492 12.5952C35.2492 12.2125 35.2492 12.2076 35.1303 12.2076C35.0256 12.2076 35.0114 12.1882 35.0114 12.0235C35.0114 11.6796 34.959 11.481 34.8687 11.481C34.8021 11.481 34.7783 11.4228 34.7497 11.2145C34.726 10.9965 34.7022 10.9481 34.6261 10.9481C34.4881 10.9481 34.5024 10.7156 34.6451 10.6962C34.7117 10.6865 34.7545 10.6429 34.764 10.5751C34.7783 10.483 34.8163 10.4637 35.0256 10.4491C35.468 10.4201 38.1224 10.4152 38.308 10.4443ZM14.7466 12.5903C14.7466 12.6581 14.7847 12.692 14.8798 12.7017C14.9797 12.7114 15.013 12.7453 15.0225 12.8471C15.0368 12.9536 15.0654 12.9827 15.1557 12.9827C15.2461 12.9827 15.2699 13.0069 15.2699 13.1038C15.2699 13.2007 15.2937 13.2249 15.3888 13.2249C15.4887 13.2249 15.5078 13.2491 15.5078 13.3702C15.5078 13.4913 15.5268 13.5156 15.6267 13.5156C15.7218 13.5156 15.7456 13.5398 15.7456 13.6367C15.7456 13.7336 15.7694 13.7578 15.8598 13.7578C15.9597 13.7578 15.9787 13.7869 16.0072 13.9952C16.031 14.1938 16.0596 14.2374 16.1404 14.2519C16.2308 14.2664 16.2451 14.3052 16.2594 14.4941C16.2736 14.683 16.2879 14.7218 16.3783 14.7363C16.4687 14.7509 16.4829 14.7848 16.4972 15.0028C16.5115 15.2401 16.521 15.2595 16.6304 15.2595C16.7398 15.2595 16.7446 15.274 16.7446 15.526C16.7446 15.7779 16.7493 15.7924 16.8635 15.7924C16.9777 15.7924 16.9824 15.8069 16.9824 16.0782C16.9824 16.5578 17.03 16.8097 17.1251 16.8097C17.1917 16.8097 17.2108 16.8727 17.2393 17.1827C17.2774 17.6478 17.2774 18.6651 17.2393 18.9024C17.2155 19.0381 17.187 19.0865 17.1204 19.0865C17.0538 19.0865 17.03 19.0526 17.03 18.9654V18.8443H16.4496C15.698 18.8443 15.5078 18.8104 15.5078 18.6941C15.5078 18.6118 15.4697 18.6021 15.1367 18.6021C14.9274 18.6021 14.5992 18.5875 14.3994 18.573C14.0949 18.5439 14.0331 18.5246 14.0331 18.4567C14.0331 18.3502 13.7762 18.3114 13.0532 18.3114H12.5109V18.1903V18.0692H11.7735H11.0362V17.9481C11.0362 17.8464 11.0124 17.827 10.8935 17.827C10.765 17.827 10.7508 17.8125 10.7508 17.6817C10.7508 17.5606 10.7698 17.5363 10.8697 17.5363C10.9648 17.5363 10.9886 17.5121 10.9886 17.4152C10.9886 17.3183 11.0124 17.2941 11.1028 17.2941C11.2027 17.2941 11.2217 17.2651 11.2503 17.0519C11.2788 16.8388 11.2978 16.8097 11.3977 16.8097C11.4929 16.8097 11.5119 16.7855 11.5119 16.6644C11.5119 16.5433 11.5309 16.519 11.6308 16.519C11.726 16.519 11.7497 16.4948 11.7497 16.3979C11.7497 16.301 11.7735 16.2768 11.8639 16.2768C11.9638 16.2768 11.9828 16.2478 12.0114 16.0394C12.0352 15.8408 12.0637 15.7972 12.1446 15.7827C12.2207 15.773 12.254 15.7294 12.2635 15.6325C12.2778 15.5308 12.3063 15.5017 12.3967 15.5017C12.4871 15.5017 12.5109 15.4775 12.5109 15.3806C12.5109 15.2837 12.5346 15.2595 12.6298 15.2595C12.7392 15.2595 12.7487 15.245 12.7487 15.0173C12.7487 14.7945 12.7582 14.7751 12.8629 14.7751C12.9533 14.7751 12.9818 14.746 12.9961 14.6394C13.0056 14.5474 13.0389 14.5038 13.115 14.4941C13.1816 14.4844 13.2244 14.4408 13.2339 14.373C13.2434 14.3052 13.2862 14.2616 13.3528 14.2519C13.4337 14.2374 13.4623 14.1938 13.486 13.9952C13.5146 13.7869 13.5336 13.7578 13.6335 13.7578C13.7286 13.7578 13.7477 13.7336 13.7477 13.6125C13.7477 13.4913 13.7667 13.4671 13.8666 13.4671C13.9617 13.4671 13.9855 13.4429 13.9855 13.346C13.9855 13.2491 14.0093 13.2249 14.0997 13.2249C14.1996 13.2249 14.2186 13.1958 14.2472 12.9827C14.2757 12.7696 14.2947 12.7405 14.3946 12.7405C14.485 12.7405 14.5088 12.7163 14.5088 12.6194C14.5088 12.5225 14.5326 12.4983 14.6277 12.4983C14.7133 12.4983 14.7466 12.5225 14.7466 12.5903Z" fill="white"/>
</g>
</svg>
