<svg width="38" height="23" viewBox="0 0 38 23" fill="none" xmlns="http://www.w3.org/2000/svg">
<g id="Group">
<path id="Vector" d="M19.2819 0.835505C19.2703 0.947504 19.2549 0.962952 19.1468 0.974537L19.0193 0.986124V1.48432V1.98252L19.1468 1.9941C19.2549 2.00569 19.2703 2.02114 19.2819 2.12927L19.2935 2.25672H20.8344H22.3754L22.387 2.51547L22.3986 2.77809L22.526 2.78968L22.6496 2.80126V3.05229V3.29946H22.7848C22.9122 3.29946 22.9199 3.30718 22.9199 3.43463C22.9199 3.55821 22.9277 3.5698 23.0358 3.5698C23.1478 3.5698 23.1478 3.5698 23.1594 3.82855L23.171 4.09117L23.2984 4.10276L23.422 4.11434V4.36537V4.61254H23.5572H23.6923V4.85971V5.11074L23.8198 5.12232C23.9318 5.13391 23.9434 5.14549 23.9549 5.2768C23.9665 5.41197 23.9781 5.42356 24.0824 5.42356C24.1751 5.42356 24.1944 5.43901 24.1944 5.52011C24.1944 5.60121 24.1751 5.61666 24.0785 5.61666C23.9743 5.61666 23.9627 5.62824 23.9627 5.74797V5.87927L23.6923 5.90631C23.4258 5.93334 23.422 5.9372 23.422 6.04148C23.422 6.13803 23.4065 6.15348 23.2984 6.16506C23.1864 6.17665 23.171 6.1921 23.1594 6.30023C23.1478 6.41609 23.1362 6.42768 23.0126 6.42768C22.889 6.42768 22.8813 6.4354 22.8813 6.56285V6.69802H22.6535H22.4217L22.4101 6.8216C22.3986 6.9336 22.3831 6.94905 22.275 6.96063C22.1668 6.97222 22.1514 6.98767 22.1398 7.0958C22.1282 7.20394 22.1128 7.21939 22.0046 7.23097C21.8926 7.24256 21.8772 7.25801 21.8772 7.35842C21.8772 7.46269 21.8656 7.47042 21.742 7.47042C21.6146 7.47042 21.6068 7.47814 21.6068 7.60559C21.6068 7.72917 21.5991 7.74076 21.4949 7.74076C21.3944 7.74076 21.379 7.75621 21.3674 7.86434C21.3558 7.97634 21.3404 7.99179 21.2322 8.00337C21.1125 8.01496 21.1087 8.01882 21.0855 8.26599C21.0584 8.50543 21.0546 8.51316 20.9464 8.51316C20.8538 8.51316 20.8383 8.52861 20.8267 8.63674C20.8151 8.74874 20.7997 8.76419 20.6916 8.77577C20.5757 8.78736 20.5641 8.79895 20.5641 8.92253C20.5641 9.04225 20.5525 9.05384 20.4521 9.05384C20.3401 9.05384 20.3363 9.0577 20.3131 9.30487L20.286 9.5559H20.1547C20.0312 9.5559 20.0234 9.56362 20.0234 9.69107C20.0234 9.81465 20.0157 9.82624 19.9076 9.82624H19.7917V10.0773V10.3283H19.6565H19.5214V10.5755V10.8265L19.3978 10.8381L19.2703 10.8497L19.2588 11.1084C19.2472 11.3672 19.2472 11.371 19.139 11.371C19.0309 11.371 19.027 11.3788 19 11.6221C18.9768 11.8654 18.9691 11.8731 18.8648 11.8731C18.7606 11.8731 18.7567 11.8808 18.7335 12.1434C18.7065 12.4099 18.7026 12.4138 18.5906 12.4138H18.4786V12.6841V12.9545H18.3435C18.2199 12.9545 18.2083 12.9622 18.2083 13.0703C18.2083 13.1707 18.1967 13.1862 18.0963 13.1862C17.9843 13.1862 17.9804 13.1823 17.9573 12.9351C17.9302 12.6918 17.9264 12.6841 17.8221 12.6841C17.7178 12.6841 17.714 12.6764 17.6869 12.4331C17.6637 12.1859 17.6599 12.1821 17.5479 12.1821C17.4436 12.1821 17.4359 12.1705 17.4359 12.0469C17.4359 11.9233 17.4243 11.9117 17.3239 11.9117C17.2119 11.9117 17.2119 11.9079 17.1849 11.6414C17.1578 11.3788 17.154 11.371 17.0497 11.371C16.9416 11.371 16.9377 11.3633 16.9145 11.12C16.8875 10.8767 16.8836 10.869 16.7755 10.869C16.6751 10.869 16.6635 10.8574 16.6635 10.7338C16.6635 10.6064 16.6558 10.5986 16.5283 10.5986H16.3932V10.3283V10.058H16.258H16.1228V9.80693C16.1228 9.5559 16.1228 9.5559 16.0108 9.5559C15.9027 9.5559 15.8988 9.54817 15.8718 9.30487C15.8486 9.06156 15.8447 9.05384 15.7366 9.05384C15.6362 9.05384 15.6246 9.03839 15.613 8.90708C15.6014 8.77577 15.5899 8.76419 15.4779 8.7526L15.3504 8.74102V8.48999V8.24282H15.2384C15.1264 8.24282 15.1226 8.23896 15.0994 7.99179C15.0723 7.74848 15.0685 7.74076 14.9642 7.74076C14.8599 7.74076 14.8561 7.73303 14.829 7.48973C14.8059 7.24256 14.802 7.2387 14.69 7.2387C14.5857 7.2387 14.578 7.23097 14.578 7.08422C14.578 6.9336 14.5742 6.92974 14.4428 6.92974H14.3077V6.67871V6.42768H14.1957C14.0837 6.42768 14.0798 6.42382 14.0566 6.17665C14.0296 5.93334 14.0257 5.92562 13.9176 5.92562H13.8056V5.65528V5.38494H14.8484H15.8911V4.99874V4.61254H15.7559H15.6208V4.36537V4.1182L15.3697 4.09117C15.1226 4.068 15.1187 4.06414 15.1187 3.95214V3.84014H13.2649H11.4112V3.956C11.4112 4.06027 11.3996 4.07186 11.2953 4.07186H11.1795V4.61254V5.15322H11.2953C11.3996 5.15322 11.4112 5.1648 11.4112 5.26908V5.38494H11.7047H12.0021L11.975 5.58576C11.9634 5.69776 11.9519 5.82134 11.9519 5.8561C11.9519 5.90631 11.921 5.92562 11.8399 5.92562C11.7279 5.92562 11.724 5.92948 11.7008 6.17665C11.6738 6.41995 11.6699 6.42768 11.5618 6.42768C11.4614 6.42768 11.4498 6.43926 11.4498 6.56285C11.4498 6.68643 11.4421 6.69802 11.3378 6.69802C11.2258 6.69802 11.2219 6.70188 11.1949 6.96836C11.1717 7.23097 11.1679 7.2387 11.0636 7.2387C10.9593 7.2387 10.9516 7.24642 10.9284 7.48973C10.9014 7.73303 10.8975 7.74076 10.7933 7.74076C10.689 7.74076 10.6851 7.74848 10.6581 7.99179C10.6349 8.23896 10.6311 8.24282 10.5191 8.24282C10.4186 8.24282 10.4071 8.2544 10.4071 8.37413C10.4071 8.49771 10.3955 8.5093 10.2835 8.52088C10.156 8.53247 10.156 8.53247 10.1444 8.77191L10.1329 9.01522H9.88568H9.63465V8.89936V8.7835H9.31797C9.14032 8.7835 8.90474 8.77191 8.7966 8.76033C8.6035 8.73715 8.59192 8.72943 8.59192 8.62516V8.51316H7.27884H5.96576V8.62516C5.96576 8.72557 5.95417 8.73715 5.78811 8.76033C5.68769 8.77191 5.45211 8.7835 5.26674 8.7835H4.92302V8.8955C4.92302 9.00749 4.91916 9.00749 4.65268 9.03453C4.3862 9.06156 4.38234 9.06156 4.38234 9.17356V9.28556H4.13131H3.88028V9.42073V9.5559H3.62925H3.37822V9.69107C3.37822 9.81851 3.37049 9.82624 3.24305 9.82624C3.11946 9.82624 3.10788 9.83782 3.10788 9.93824C3.10788 10.0464 3.10015 10.0502 2.86071 10.0773C2.61354 10.1004 2.60968 10.1043 2.59809 10.224C2.58651 10.3322 2.57106 10.3476 2.46292 10.3592C2.35093 10.3708 2.33548 10.3862 2.33548 10.4866C2.33548 10.5909 2.32389 10.5986 2.20031 10.5986C2.07286 10.5986 2.06514 10.6064 2.06514 10.7338C2.06514 10.8574 2.05742 10.869 1.95314 10.869C1.84114 10.869 1.83728 10.8728 1.81411 11.12C1.78708 11.3633 1.78321 11.371 1.67508 11.371C1.57467 11.371 1.56308 11.3826 1.56308 11.5062C1.56308 11.6337 1.55536 11.6414 1.42791 11.6414H1.29274V11.8924V12.1434H1.15757H1.0224V12.4138V12.6841H0.88723H0.75206V12.9545V13.2248H0.6362H0.52034V13.5222C0.52034 13.6882 0.508754 13.9161 0.497168 14.0242C0.473996 14.2173 0.466272 14.2289 0.361998 14.2289H0.25V15.542V16.8551H0.361998C0.466272 16.8551 0.473996 16.8667 0.497168 17.0559C0.508754 17.1679 0.52034 17.4035 0.52034 17.5773V17.8978H0.6362C0.748198 17.8978 0.748198 17.8978 0.759784 18.1566L0.77137 18.4192L0.898816 18.4308L1.0224 18.4424V18.6934V18.9406H1.15757H1.29274V19.1877V19.4388L1.42019 19.4503C1.52832 19.4619 1.54377 19.4774 1.55536 19.5855C1.56694 19.6975 1.58239 19.713 1.67508 19.713C1.78321 19.713 1.78708 19.7207 1.81411 19.964C1.83728 20.2112 1.84114 20.215 1.95314 20.215C2.05742 20.215 2.06514 20.2266 2.06514 20.3502C2.06514 20.4776 2.07286 20.4854 2.20031 20.4854C2.32775 20.4854 2.33548 20.4931 2.33548 20.6205C2.33548 20.748 2.3432 20.7557 2.47065 20.7557C2.59423 20.7557 2.60582 20.7634 2.60582 20.8677C2.60582 20.9797 2.60968 20.9836 2.85685 21.0067L3.10788 21.0338V21.1651C3.10788 21.2886 3.1156 21.2964 3.24305 21.2964C3.36663 21.2964 3.37822 21.308 3.37822 21.4084C3.37822 21.5165 3.38594 21.5204 3.62925 21.5474C3.87642 21.5706 3.88028 21.5744 3.88028 21.6864V21.7984H4.15062H4.42096V21.9336V22.0688H4.67199C4.92302 22.0688 4.92302 22.0688 4.92302 22.1808V22.2928L5.44439 22.3198L5.96576 22.3468V22.4588V22.5708H7.27884H8.59192V22.4588V22.3468L9.09398 22.3198L9.59604 22.2928V22.1808V22.0688H9.86637H10.1367V21.9336V21.7984H10.4071H10.6774V21.6864C10.6774 21.5744 10.6813 21.5706 10.9284 21.5474C11.1717 21.5204 11.1795 21.5165 11.1795 21.4084C11.1795 21.308 11.191 21.2964 11.3146 21.2964C11.4421 21.2964 11.4498 21.2886 11.4498 21.1651V21.0338L11.7008 21.0067C11.948 20.9836 11.9519 20.9797 11.9519 20.8677C11.9519 20.7634 11.9634 20.7557 12.087 20.7557C12.2145 20.7557 12.2222 20.748 12.2222 20.6205C12.2222 20.4931 12.2299 20.4854 12.3574 20.4854C12.4848 20.4854 12.4925 20.4776 12.4925 20.3502C12.4925 20.2266 12.5003 20.215 12.6045 20.215C12.7165 20.215 12.7204 20.2112 12.7436 19.964C12.7706 19.7207 12.7745 19.713 12.8826 19.713C12.9753 19.713 12.9907 19.6975 13.0023 19.5855C13.0139 19.4774 13.0294 19.4619 13.1413 19.4503L13.2649 19.4388V19.1877V18.9406H13.4001H13.5353V18.6934V18.4424L13.6627 18.4308L13.7863 18.4192L13.7979 18.1566C13.8095 17.8978 13.8095 17.8978 13.9215 17.8978H14.0373V17.5773C14.0373 17.4035 14.0489 17.1679 14.0605 17.0559C14.0837 16.8667 14.0914 16.8551 14.1957 16.8551H14.3077V16.5847V16.3144L15.613 16.3221L16.9145 16.3337L16.9261 16.4573C16.9377 16.5809 16.9338 16.5847 16.8025 16.5847C16.6712 16.5847 16.6635 16.5925 16.6635 16.7199C16.6635 16.8474 16.6558 16.8551 16.5283 16.8551C16.4009 16.8551 16.3932 16.8628 16.3932 16.9902C16.3932 17.1177 16.3854 17.1254 16.258 17.1254C16.1305 17.1254 16.1228 17.1331 16.1228 17.2606C16.1228 17.3842 16.1151 17.3958 16.007 17.3958C15.9027 17.3958 15.8911 17.4073 15.8911 17.5116C15.8911 17.6197 15.8795 17.6275 15.7559 17.6275C15.6285 17.6275 15.6208 17.6352 15.6208 17.7626C15.6208 17.8901 15.613 17.8978 15.4856 17.8978C15.362 17.8978 15.3504 17.8901 15.3504 17.782C15.3504 17.6931 15.3311 17.6661 15.277 17.6661C15.2384 17.6661 15.1303 17.6545 15.0337 17.6429L14.8599 17.6197L14.8368 17.8322C14.8213 17.948 14.8213 18.1257 14.8329 18.2222C14.8561 18.3844 14.8677 18.3999 14.9681 18.3999C15.0685 18.3999 15.0801 18.4115 15.0801 18.535C15.0801 18.6625 15.0878 18.6702 15.2152 18.6702C15.3427 18.6702 15.3504 18.6779 15.3504 18.8054C15.3504 18.9328 15.3581 18.9406 15.4856 18.9406C15.613 18.9406 15.6208 18.9483 15.6208 19.0757V19.2109H15.8061C15.9065 19.2109 16.0803 19.1993 16.1923 19.1877L16.3932 19.1607V18.9367V18.7127L16.2696 18.7011C16.1537 18.6895 16.1421 18.6779 16.1305 18.5428C16.1189 18.4037 16.1189 18.3999 16.2541 18.3999C16.3854 18.3999 16.3932 18.3921 16.3932 18.2647C16.3932 18.1411 16.4009 18.1295 16.509 18.1295C16.6133 18.1295 16.6249 18.1179 16.6249 18.0137C16.6249 17.9055 16.6365 17.8978 16.76 17.8978C16.8875 17.8978 16.8952 17.8901 16.8952 17.7626C16.8952 17.6352 16.9029 17.6275 17.0304 17.6275C17.1578 17.6275 17.1656 17.6197 17.1656 17.4923C17.1656 17.3649 17.1733 17.3571 17.3007 17.3571C17.432 17.3571 17.4359 17.3533 17.4359 17.2181V17.0752L17.6406 17.1022C17.7487 17.1138 17.9843 17.1254 18.1619 17.1254H18.4786V17.2413C18.4786 17.3455 18.4902 17.3571 18.5945 17.3571C18.6988 17.3571 18.7104 17.3455 18.7104 17.2413C18.7104 17.1254 18.7142 17.1254 18.915 17.1254C19.0232 17.1254 19.2085 17.1138 19.3205 17.1022C19.5098 17.0791 19.5214 17.0713 19.5214 16.9671C19.5214 16.8667 19.533 16.8551 19.6565 16.8551C19.784 16.8551 19.7917 16.8474 19.7917 16.7199C19.7917 16.5963 19.7994 16.5847 19.9037 16.5847C20.0157 16.5847 20.0196 16.5809 20.0427 16.3337C20.0698 16.0904 20.0736 16.0827 20.1818 16.0827H20.2938V15.4261V14.7696H20.1779C20.0698 14.7696 20.062 14.758 20.062 14.6344C20.062 14.5108 20.0698 14.4993 20.174 14.4993C20.2745 14.4993 20.2899 14.4838 20.3015 14.3718C20.3131 14.2637 20.3285 14.2482 20.4405 14.2366C20.5487 14.2251 20.5641 14.2096 20.5641 14.1131C20.5641 14.0165 20.5796 14.0011 20.6916 13.9895C20.7997 13.9779 20.8151 13.9624 20.8267 13.8504C20.8383 13.7423 20.8538 13.7269 20.9503 13.7269C21.0469 13.7269 21.0623 13.7114 21.0739 13.5994C21.0855 13.4913 21.1009 13.4758 21.2129 13.4642C21.3211 13.4527 21.3365 13.4372 21.3365 13.3368C21.3365 13.2325 21.3481 13.2248 21.4717 13.2248C21.5953 13.2248 21.6068 13.2325 21.6068 13.3407V13.4565H21.854H22.0973L22.1244 13.2789C22.1359 13.1823 22.1359 13.0085 22.1244 12.8927C22.1012 12.6957 22.0935 12.6841 21.9892 12.6841C21.8965 12.6841 21.8811 12.6687 21.8695 12.5567C21.8579 12.4485 21.8424 12.4331 21.7343 12.4215C21.6223 12.4099 21.6068 12.3945 21.6068 12.2941C21.6068 12.1898 21.5953 12.1821 21.4717 12.1821C21.3442 12.1821 21.3365 12.1743 21.3365 12.0469V11.9117H21.0662H20.7958V12.0276C20.7958 12.1319 20.7842 12.1434 20.68 12.1434H20.5641V11.8924V11.6414H20.6993H20.8344V11.3903V11.1393H20.9464C21.0584 11.1393 21.0584 11.1355 21.0855 10.869C21.1125 10.6025 21.1125 10.5986 21.2245 10.5986C21.3249 10.5986 21.3365 10.5871 21.3365 10.4635C21.3365 10.336 21.3442 10.3283 21.4717 10.3283H21.6068V10.0773V9.82624H21.742C21.8695 9.82624 21.8772 9.81851 21.8772 9.69107C21.8772 9.56748 21.8849 9.5559 21.9892 9.5559C22.0896 9.5559 22.105 9.54045 22.1166 9.42845C22.1282 9.32032 22.1437 9.30487 22.2557 9.29328C22.3677 9.2817 22.3792 9.27011 22.3792 9.14653C22.3792 9.02294 22.387 9.01522 22.5144 9.01522C22.6419 9.01522 22.6496 9.00749 22.6496 8.88005C22.6496 8.75646 22.6573 8.74488 22.7654 8.74488C22.8697 8.74488 22.8813 8.73329 22.8813 8.62902C22.8813 8.52088 22.8929 8.51316 23.0165 8.51316C23.1439 8.51316 23.1516 8.50543 23.1516 8.37799C23.1516 8.25054 23.1594 8.24282 23.283 8.24282C23.4065 8.24282 23.4181 8.23123 23.4297 8.11537C23.4413 8.00724 23.4567 7.99179 23.5687 7.9802C23.6769 7.96862 23.6923 7.95317 23.6923 7.85276C23.6923 7.74848 23.7039 7.74076 23.8275 7.74076C23.9549 7.74076 23.9627 7.73303 23.9627 7.60559C23.9627 7.47814 23.9704 7.47042 24.0978 7.47042C24.2214 7.47042 24.233 7.46269 24.233 7.35842C24.233 7.24642 24.2369 7.24256 24.484 7.21939C24.7273 7.19235 24.7351 7.18849 24.7351 7.08036C24.7351 6.97994 24.7467 6.96836 24.8702 6.96836C24.9977 6.96836 25.0054 6.97608 25.0054 7.10353C25.0054 7.22711 25.0131 7.2387 25.1213 7.2387C25.2333 7.2387 25.2333 7.24256 25.2449 7.47814C25.2564 7.72145 25.2564 7.72145 25.3839 7.73303L25.5075 7.74462V7.99565V8.24282H25.6426H25.7778V8.48999V8.74102L25.9053 8.7526C26.0173 8.76419 26.0288 8.77577 26.0404 8.90708C26.052 9.03839 26.0636 9.05384 26.1601 9.05384C26.2683 9.05384 26.2721 9.06156 26.2992 9.30487C26.3223 9.55204 26.3262 9.5559 26.4382 9.5559H26.5502V9.80307V10.0502L26.303 10.0773C26.0559 10.1004 26.052 10.1043 26.0404 10.224C26.0288 10.3322 26.0134 10.3476 25.9053 10.3592C25.7933 10.3708 25.7778 10.3862 25.7778 10.4866C25.7778 10.5909 25.7662 10.5986 25.6426 10.5986C25.5152 10.5986 25.5075 10.6064 25.5075 10.7338C25.5075 10.8574 25.4997 10.869 25.3955 10.869C25.2835 10.869 25.2796 10.8728 25.2564 11.12C25.2294 11.3633 25.2255 11.371 25.1174 11.371C25.017 11.371 25.0054 11.3826 25.0054 11.5062C25.0054 11.6337 24.9977 11.6414 24.8702 11.6414H24.7351V11.8924V12.1434H24.5999H24.4647V12.4138V12.6841H24.3296H24.1944V12.9545V13.2248H24.0824H23.9704L23.9434 13.7269L23.9163 14.2289H23.8043H23.6923V15.542V16.8551H23.8043C23.9086 16.8551 23.9163 16.8667 23.9395 17.0559C23.9511 17.1679 23.9627 17.4035 23.9627 17.5773V17.8978H24.0785C24.1905 17.8978 24.1905 17.8978 24.2021 18.1566L24.2137 18.4192L24.3411 18.4308L24.4647 18.4424V18.6934V18.9406H24.5999H24.7351V19.1877V19.4388L24.8625 19.4503C24.9706 19.4619 24.9861 19.4774 24.9977 19.5855C25.0093 19.6975 25.0247 19.713 25.1174 19.713C25.2255 19.713 25.2294 19.7207 25.2564 19.964C25.2796 20.2112 25.2835 20.215 25.3955 20.215C25.4997 20.215 25.5075 20.2266 25.5075 20.3502C25.5075 20.4776 25.5152 20.4854 25.6426 20.4854C25.7701 20.4854 25.7778 20.4931 25.7778 20.6205C25.7778 20.748 25.7855 20.7557 25.913 20.7557C26.0366 20.7557 26.0481 20.7634 26.0481 20.8677C26.0481 20.9797 26.052 20.9836 26.2992 21.0067L26.5502 21.0338V21.1651C26.5502 21.2886 26.5579 21.2964 26.6854 21.2964C26.809 21.2964 26.8205 21.308 26.8205 21.4084C26.8205 21.5165 26.8283 21.5204 27.0716 21.5474C27.3187 21.5706 27.3226 21.5744 27.3226 21.6864V21.7984H27.5929H27.8633V21.9336V22.0688H28.1336H28.404V22.1808V22.2928L28.906 22.3198L29.4081 22.3468V22.4588V22.5708H30.7212H32.0342V22.4588V22.3468L32.5556 22.3198L33.077 22.2928V22.1808C33.077 22.0688 33.077 22.0688 33.328 22.0688H33.579V21.9336V21.7984H33.8494H34.1197V21.6864C34.1197 21.5744 34.1236 21.5706 34.3708 21.5474C34.6141 21.5204 34.6218 21.5165 34.6218 21.4084C34.6218 21.308 34.6334 21.2964 34.757 21.2964C34.8844 21.2964 34.8921 21.2886 34.8921 21.1651V21.0338L35.1432 21.0067C35.3903 20.9836 35.3942 20.9797 35.3942 20.8677C35.3942 20.7634 35.4058 20.7557 35.5294 20.7557C35.6568 20.7557 35.6645 20.748 35.6645 20.6205C35.6645 20.4931 35.6722 20.4854 35.7997 20.4854C35.9271 20.4854 35.9349 20.4776 35.9349 20.3502C35.9349 20.2266 35.9426 20.215 36.0469 20.215C36.1589 20.215 36.1627 20.2112 36.1859 19.964C36.2129 19.7207 36.2168 19.713 36.3249 19.713C36.4176 19.713 36.4331 19.6975 36.4446 19.5855C36.4562 19.4774 36.4717 19.4619 36.5837 19.4503L36.7073 19.4388V19.1877V18.9406H36.8424H36.9776V18.6934V18.4424L37.105 18.4308L37.2286 18.4192L37.2402 18.1566C37.2518 17.8978 37.2518 17.8978 37.3638 17.8978H37.4797V17.5773C37.4797 17.4035 37.4912 17.1679 37.5028 17.0559C37.526 16.8667 37.5337 16.8551 37.638 16.8551H37.75V15.542V14.2289H37.638C37.5337 14.2289 37.526 14.2173 37.5028 14.0242C37.4912 13.9161 37.4797 13.6882 37.4797 13.5222V13.2248H37.3638H37.2479V12.9545V12.6841H37.1128H36.9776V12.4138V12.1434H36.8424H36.7073V11.8924V11.6414H36.5721C36.4446 11.6414 36.4369 11.6337 36.4369 11.5062C36.4369 11.3826 36.4253 11.371 36.3249 11.371C36.2168 11.371 36.2129 11.3633 36.1859 11.12C36.1627 10.8728 36.1589 10.869 36.0469 10.869C35.9426 10.869 35.9349 10.8574 35.9349 10.7338C35.9349 10.6064 35.9271 10.5986 35.7997 10.5986C35.6761 10.5986 35.6645 10.5909 35.6645 10.4866C35.6645 10.3862 35.6491 10.3708 35.5409 10.3592C35.4289 10.3476 35.4135 10.3322 35.4019 10.224C35.3903 10.1043 35.3865 10.1004 35.1393 10.0773C34.8998 10.0502 34.8921 10.0464 34.8921 9.93824C34.8921 9.83782 34.8805 9.82624 34.757 9.82624C34.6295 9.82624 34.6218 9.81851 34.6218 9.69107V9.5559H34.3708H34.1197V9.42073V9.28556H33.8687H33.6177V9.17356C33.6177 9.06156 33.6138 9.06156 33.3473 9.03453C33.0808 9.00749 33.077 9.00749 33.077 8.8955V8.7835H32.7333C32.5479 8.7835 32.3123 8.77191 32.2158 8.76033C32.0613 8.73715 32.0381 8.72171 32.0265 8.63288L32.0149 8.53247L30.7134 8.52088L29.4081 8.51316V8.62516C29.4081 8.72557 29.3965 8.73715 29.2304 8.76033C29.13 8.77191 28.8944 8.7835 28.7091 8.7835H28.3653V8.89936V9.01522H28.1182H27.8671L27.8556 8.88777C27.844 8.77964 27.8285 8.76419 27.7204 8.7526L27.5929 8.74102V8.48999V8.24282H27.4809C27.3689 8.24282 27.3651 8.23896 27.3419 7.99179C27.3149 7.74848 27.311 7.74076 27.2067 7.74076C27.1025 7.74076 27.0986 7.73303 27.0716 7.48973C27.0484 7.24642 27.0445 7.2387 26.9364 7.2387C26.836 7.2387 26.8244 7.22325 26.8128 7.09194C26.8012 6.96063 26.7896 6.94905 26.6777 6.93746L26.5502 6.92588V6.67485V6.42768H26.4382C26.3262 6.42768 26.3223 6.42382 26.2992 6.17665C26.2721 5.93334 26.2683 5.92562 26.1601 5.92562C26.0636 5.92562 26.052 5.91017 26.0404 5.77886C26.0288 5.64755 26.0173 5.63597 25.9053 5.62438L25.7778 5.6128V5.36177V5.1146H25.6426H25.5075V4.86743V4.6164L25.3839 4.60482C25.2564 4.59323 25.2564 4.59323 25.2449 4.34992C25.2333 4.11434 25.2333 4.11048 25.1213 4.11048C25.0131 4.11048 25.0054 4.09889 25.0054 3.97531V3.84014H25.6426H26.276L26.2876 4.09889L26.2992 4.36151L26.4266 4.3731L26.5502 4.38468V4.70523C26.5502 4.88288 26.5618 5.10687 26.5734 5.20729C26.5965 5.37335 26.6081 5.38494 26.7085 5.38494H26.8205V5.77114V6.15734H26.9325C27.0445 6.15734 27.0445 6.1612 27.0716 6.42768C27.0986 6.69416 27.1025 6.69802 27.2067 6.69802C27.3033 6.69802 27.3187 6.71347 27.3303 6.8216L27.3419 6.94905L29.1686 6.96063L30.9915 6.96836V6.83319C30.9915 6.7096 30.9992 6.69802 31.1035 6.69802C31.2155 6.69802 31.2194 6.69416 31.2464 6.42768C31.2696 6.1612 31.2734 6.15734 31.3816 6.15734H31.4936V5.77114V5.38494H31.6287H31.7639V4.86357V4.3422H31.8991H32.0342V3.956V3.5698H32.1462C32.2505 3.5698 32.2582 3.55821 32.2814 3.36511C32.293 3.25698 32.3046 3.08319 32.3046 2.97891C32.3046 2.80512 32.3084 2.7974 32.4204 2.7974H32.5324L32.544 2.39961L32.5556 2.00569L32.6831 1.9941L32.8066 1.98252V1.34529V0.711922H29.1571H25.5075V1.34529V1.98252L25.6349 1.9941C25.743 2.00569 25.7585 2.02114 25.7701 2.12927L25.7817 2.25672H24.8741H23.9665L23.9549 2.12927C23.9434 2.02114 23.9279 2.00569 23.8198 1.9941L23.6923 1.98252V1.73149V1.48432H23.5572H23.422V1.23329V0.982262H23.2868C23.1594 0.982262 23.1516 0.974537 23.1516 0.847092V0.711922H21.2245H19.2935L19.2819 0.835505ZM13.0023 7.594C13.0139 7.706 13.0294 7.72145 13.1413 7.73303L13.2649 7.74462V7.99565V8.24282H13.4001H13.5353V8.48999V8.74102L13.6627 8.7526C13.7747 8.76419 13.7863 8.77577 13.7979 8.90708C13.8095 9.03839 13.8211 9.05384 13.9176 9.05384C14.0257 9.05384 14.0296 9.06156 14.0566 9.30487C14.0798 9.55204 14.0837 9.5559 14.1957 9.5559H14.3077V9.80693V10.058H14.4428C14.5742 10.058 14.578 10.0618 14.578 10.2124C14.578 10.3592 14.5857 10.3669 14.69 10.3669C14.802 10.3669 14.8059 10.3708 14.829 10.6179C14.8561 10.8613 14.8599 10.869 14.9642 10.869C15.0685 10.869 15.0723 10.8767 15.0994 11.12C15.1226 11.3672 15.1264 11.371 15.2384 11.371H15.3504V11.6182V11.8692L15.4779 11.8808C15.5899 11.8924 15.6014 11.904 15.613 12.0353C15.6246 12.1666 15.6362 12.1821 15.7366 12.1821C15.8447 12.1821 15.8486 12.1898 15.8718 12.4331C15.8988 12.6764 15.9027 12.6841 16.0108 12.6841C16.1228 12.6841 16.1228 12.6841 16.1228 12.9351V13.1862H16.258H16.3932V13.4565V13.7269H16.5283C16.6558 13.7269 16.6635 13.7346 16.6635 13.862C16.6635 13.9856 16.6751 13.9972 16.7755 13.9972C16.8798 13.9972 16.8875 14.0088 16.9107 14.198C16.9222 14.31 16.9338 14.4838 16.9338 14.5842V14.7696H15.6208H14.3077V14.4993V14.2289H14.1957C14.0914 14.2289 14.0837 14.2173 14.0605 14.0242C14.0489 13.9161 14.0373 13.6882 14.0373 13.5222V13.2248H13.9215H13.8056V12.9545V12.6841H13.6704H13.5353V12.4138V12.1434H13.4001H13.2649V11.8924V11.6414H13.1298C13.0023 11.6414 12.9946 11.6337 12.9946 11.5062C12.9946 11.3826 12.983 11.371 12.8826 11.371C12.7745 11.371 12.7706 11.3633 12.7436 11.12C12.7204 10.8728 12.7165 10.869 12.6045 10.869C12.5003 10.869 12.4925 10.8574 12.4925 10.7338C12.4925 10.6064 12.4848 10.5986 12.3574 10.5986C12.2338 10.5986 12.2222 10.5909 12.2222 10.4866C12.2222 10.3862 12.2067 10.3708 12.0986 10.3592C11.9866 10.3476 11.9712 10.3322 11.9596 10.224C11.948 10.1043 11.9441 10.1004 11.697 10.0773L11.4498 10.0502V9.80307C11.4498 9.5559 11.4498 9.5559 11.5618 9.5559C11.6738 9.5559 11.6738 9.55204 11.7008 9.28556C11.7279 9.02294 11.7317 9.01522 11.836 9.01522C11.9441 9.01522 11.948 9.00749 11.9712 8.76419C11.9982 8.52088 12.0021 8.51316 12.1102 8.51316C12.2106 8.51316 12.2222 8.50157 12.2222 8.37799C12.2222 8.2544 12.2299 8.24282 12.3342 8.24282C12.4462 8.24282 12.4501 8.23896 12.4732 7.99179C12.5003 7.74848 12.5041 7.74076 12.6123 7.74076C12.7127 7.74076 12.7243 7.72917 12.7243 7.60559C12.7243 7.47814 12.732 7.47042 12.8556 7.47042C12.9791 7.47042 12.9907 7.482 13.0023 7.594ZM8.59192 10.4635V10.5986H8.84295H9.09398V10.7338C9.09398 10.8574 9.08625 10.869 8.98198 10.869C8.86998 10.869 8.86612 10.8728 8.84295 11.12C8.81591 11.3633 8.81205 11.371 8.70391 11.371C8.6035 11.371 8.59192 11.3826 8.59192 11.5062C8.59192 11.6337 8.58419 11.6414 8.45675 11.6414H8.32158V11.9117V12.1821H8.20958C8.09758 12.1821 8.09372 12.1859 8.07055 12.4331C8.04351 12.6764 8.03965 12.6841 7.93538 12.6841C7.8311 12.6841 7.82724 12.6918 7.80021 12.9351C7.77703 13.1785 7.77317 13.1862 7.66504 13.1862C7.56462 13.1862 7.55304 13.2016 7.54145 13.3291C7.52987 13.4642 7.51828 13.4758 7.40628 13.4874L7.27884 13.499V13.75V13.9972H7.14367H7.0085V14.2482C7.0085 14.4993 7.0085 14.4993 6.8965 14.4993C6.78836 14.4993 6.7845 14.507 6.75747 14.7503C6.73429 14.9975 6.73043 15.0013 6.61843 15.0013H6.50644V15.4068V15.8123H6.61843C6.71885 15.8123 6.73429 15.8278 6.74588 15.9359C6.75747 16.0479 6.77291 16.0634 6.88491 16.075C6.99305 16.0865 7.0085 16.102 7.0085 16.2024V16.3144H9.75051H12.4925V16.5847V16.8551H12.3805C12.2801 16.8551 12.2685 16.8667 12.2454 17.0327C12.2338 17.1331 12.2222 17.3069 12.2222 17.4189C12.2222 17.6236 12.2183 17.6275 12.1102 17.6275C11.9982 17.6275 11.9982 17.6313 11.9712 17.8978C11.9441 18.1604 11.9403 18.1682 11.836 18.1682C11.7317 18.1682 11.7279 18.1759 11.7008 18.4192C11.6777 18.6664 11.6738 18.6702 11.5618 18.6702C11.4575 18.6702 11.4498 18.6818 11.4498 18.8054C11.4498 18.9328 11.4421 18.9406 11.3146 18.9406C11.1872 18.9406 11.1795 18.9483 11.1795 19.0757C11.1795 19.2032 11.1717 19.2109 11.0443 19.2109C10.9207 19.2109 10.9091 19.2186 10.9091 19.3268C10.9091 19.431 10.8975 19.4426 10.7933 19.4426C10.6851 19.4426 10.6774 19.4542 10.6774 19.5778C10.6774 19.7052 10.6697 19.713 10.5461 19.713C10.4225 19.713 10.4109 19.7245 10.3993 19.8365L10.3877 19.964L10.129 19.9756L9.86637 19.9872V20.1185V20.2536H9.61535H9.36432V20.3695C9.36432 20.4815 9.36045 20.4854 9.1828 20.4854C9.07853 20.4854 8.90474 20.4969 8.7966 20.5085C8.6035 20.5317 8.59192 20.5394 8.59192 20.6437V20.7557H7.27884H5.96576V20.6437C5.96576 20.5394 5.95417 20.5317 5.76493 20.5085C5.65294 20.4969 5.47915 20.4854 5.37873 20.4854C5.20108 20.4854 5.19336 20.4815 5.19336 20.3695C5.19336 20.2575 5.19336 20.2575 4.9346 20.2459L4.67199 20.2343L4.6604 20.1069L4.64882 19.9833H4.39779H4.15062V19.8481C4.15062 19.7207 4.14289 19.713 4.01545 19.713C3.888 19.713 3.88028 19.7052 3.88028 19.5778C3.88028 19.4503 3.87255 19.4426 3.74511 19.4426C3.62152 19.4426 3.60994 19.4349 3.60994 19.3268C3.60994 19.2225 3.59835 19.2109 3.49408 19.2109C3.38594 19.2109 3.37822 19.1993 3.37822 19.0757C3.37822 18.9483 3.37049 18.9406 3.24305 18.9406C3.1156 18.9406 3.10788 18.9328 3.10788 18.8054C3.10788 18.6818 3.10015 18.6702 2.99588 18.6702C2.88388 18.6702 2.88002 18.6664 2.85685 18.4192C2.82981 18.1759 2.82595 18.1682 2.72168 18.1682C2.6174 18.1682 2.61354 18.1604 2.58651 17.8978C2.55947 17.6313 2.55947 17.6275 2.44748 17.6275C2.33934 17.6275 2.33548 17.6236 2.33548 17.4189C2.33548 17.3069 2.32389 17.1331 2.31231 17.0327C2.28913 16.8667 2.27755 16.8551 2.17714 16.8551H2.06514V15.542V14.2289H2.17714C2.27755 14.2289 2.28913 14.2173 2.31231 14.0513C2.32389 13.9509 2.33548 13.7771 2.33548 13.6651C2.33548 13.4604 2.33934 13.4565 2.44748 13.4565C2.55947 13.4565 2.56334 13.4527 2.58651 13.2055C2.61354 12.9622 2.6174 12.9545 2.72168 12.9545C2.82595 12.9545 2.82981 12.9467 2.85685 12.6841C2.88388 12.4176 2.88388 12.4138 2.99588 12.4138C3.09629 12.4138 3.10788 12.4022 3.10788 12.2786C3.10788 12.1512 3.1156 12.1434 3.24305 12.1434C3.36663 12.1434 3.37822 12.1357 3.37822 12.0276C3.37822 11.9233 3.3898 11.9117 3.49408 11.9117C3.60221 11.9117 3.60994 11.9001 3.60994 11.7765C3.60994 11.6491 3.61766 11.6414 3.74511 11.6414C3.87255 11.6414 3.88028 11.6337 3.88028 11.5062C3.88028 11.3788 3.888 11.371 4.01545 11.371C4.13903 11.371 4.15062 11.3595 4.15062 11.259C4.15062 11.1509 4.15834 11.147 4.40165 11.12C4.64495 11.0968 4.65268 11.0891 4.65268 10.9848C4.65268 10.8806 4.6604 10.8767 4.92302 10.8535C5.1895 10.8265 5.19336 10.8226 5.19336 10.7106V10.5986H5.57956H5.96576V10.4635V10.3283H7.27884H8.59192V10.4635ZM32.0265 10.4712L32.0381 10.5986H32.4243H32.8066V10.7106C32.8066 10.8226 32.8105 10.8265 33.077 10.8535C33.3396 10.8767 33.3473 10.8806 33.3473 10.9848C33.3473 11.0891 33.355 11.0968 33.5984 11.12C33.8417 11.147 33.8494 11.1509 33.8494 11.259C33.8494 11.3595 33.861 11.371 33.9846 11.371C34.112 11.371 34.1197 11.3788 34.1197 11.5062C34.1197 11.6337 34.1274 11.6414 34.2549 11.6414C34.3823 11.6414 34.3901 11.6491 34.3901 11.7765C34.3901 11.9001 34.3978 11.9117 34.5021 11.9117C34.6025 11.9117 34.6179 11.9272 34.6295 12.0353C34.6411 12.1473 34.6565 12.1627 34.7685 12.1743C34.8805 12.1859 34.8921 12.1975 34.8921 12.3211C34.8921 12.4408 34.9037 12.4524 35.0041 12.4524C35.1161 12.4524 35.12 12.4563 35.1432 12.7034C35.1702 12.9467 35.174 12.9545 35.2783 12.9545C35.3826 12.9545 35.3903 12.9622 35.4135 13.2055C35.4405 13.4488 35.4444 13.4565 35.5525 13.4565C35.6607 13.4565 35.6645 13.4604 35.6645 13.6651C35.6645 13.7771 35.6761 13.9509 35.6877 14.0513C35.7109 14.2173 35.7225 14.2289 35.8229 14.2289H35.9349V15.542V16.8551H35.8229C35.7225 16.8551 35.7109 16.8667 35.6877 17.0327C35.6761 17.1331 35.6645 17.3069 35.6645 17.4189C35.6645 17.6236 35.6607 17.6275 35.5525 17.6275C35.4405 17.6275 35.4405 17.6313 35.4135 17.8978C35.3865 18.1604 35.3826 18.1682 35.2783 18.1682C35.174 18.1682 35.1702 18.1759 35.1432 18.4192C35.12 18.6664 35.1161 18.6702 35.0041 18.6702C34.8998 18.6702 34.8921 18.6818 34.8921 18.8054C34.8921 18.9328 34.8844 18.9406 34.757 18.9406C34.6295 18.9406 34.6218 18.9483 34.6218 19.0757C34.6218 19.1993 34.6141 19.2109 34.5059 19.2109C34.4016 19.2109 34.3901 19.2225 34.3901 19.3268C34.3901 19.4349 34.3785 19.4426 34.2549 19.4426C34.1274 19.4426 34.1197 19.4503 34.1197 19.5778C34.1197 19.7052 34.112 19.713 33.9846 19.713C33.8571 19.713 33.8494 19.7207 33.8494 19.8481V19.9833H33.6022H33.3512L33.3396 20.1069L33.328 20.2343L33.0693 20.2459C32.8066 20.2575 32.8066 20.2575 32.8066 20.3695C32.8066 20.4815 32.7989 20.4854 32.6251 20.4854C32.5209 20.4854 32.3471 20.4969 32.2389 20.5085C32.0458 20.5317 32.0342 20.5394 32.0342 20.6437V20.7557H30.7212H29.4081V20.6437C29.4081 20.5394 29.3965 20.5317 29.2073 20.5085C29.0953 20.4969 28.9215 20.4854 28.8211 20.4854C28.6434 20.4854 28.6357 20.4815 28.6357 20.3695C28.6357 20.2575 28.6357 20.2575 28.3769 20.2459L28.1143 20.2343L28.1027 20.1107C28.0911 19.9872 28.0911 19.9872 27.8517 19.9756C27.6123 19.964 27.6123 19.964 27.6007 19.8365C27.5891 19.7245 27.5775 19.713 27.4539 19.713C27.3303 19.713 27.3226 19.7052 27.3226 19.5778C27.3226 19.4542 27.3149 19.4426 27.2067 19.4426C27.1025 19.4426 27.0909 19.431 27.0909 19.3268C27.0909 19.2186 27.0793 19.2109 26.9557 19.2109C26.8283 19.2109 26.8205 19.2032 26.8205 19.0757C26.8205 18.9483 26.8128 18.9406 26.6854 18.9406C26.5579 18.9406 26.5502 18.9328 26.5502 18.8054C26.5502 18.6818 26.5425 18.6702 26.4382 18.6702C26.3262 18.6702 26.3223 18.6664 26.2992 18.4192C26.2721 18.1759 26.2683 18.1682 26.164 18.1682C26.0597 18.1682 26.0559 18.1604 26.0288 17.8978C26.0018 17.6313 26.0018 17.6275 25.8898 17.6275C25.7817 17.6275 25.7778 17.6236 25.7778 17.4189C25.7778 17.3069 25.7662 17.1331 25.7546 17.0327C25.7315 16.8667 25.7199 16.8551 25.6195 16.8551H25.5075V15.6038C25.5075 14.9164 25.5191 14.2753 25.5306 14.1748C25.5538 14.0088 25.5654 13.9972 25.6658 13.9972H25.7778V13.7269V13.4565H25.8898C26.0018 13.4565 26.0057 13.4527 26.0288 13.2055C26.0559 12.9622 26.0597 12.9545 26.164 12.9545C26.2683 12.9545 26.2721 12.9467 26.2992 12.6841C26.3262 12.4176 26.3301 12.4138 26.4343 12.4138C26.5309 12.4138 26.5463 12.3983 26.5579 12.2863C26.5695 12.1782 26.585 12.1627 26.697 12.1512C26.8051 12.1396 26.8205 12.1241 26.8205 12.0276C26.8205 11.931 26.836 11.9156 26.948 11.904C27.0561 11.8924 27.0716 11.877 27.0832 11.765C27.0947 11.653 27.1063 11.6414 27.2299 11.6414C27.3535 11.6414 27.3612 11.6337 27.3612 11.5062C27.3612 11.3826 27.3689 11.371 27.4771 11.371H27.5929V11.6182V11.8692L27.7204 11.8808C27.8324 11.8924 27.844 11.904 27.8556 12.0353C27.8671 12.1666 27.8787 12.1821 27.9791 12.1821C28.0873 12.1821 28.0911 12.1898 28.1143 12.4331C28.1413 12.6764 28.1452 12.6841 28.2495 12.6841C28.3538 12.6841 28.3576 12.6918 28.3847 12.9351C28.4078 13.1785 28.4156 13.1862 28.5198 13.1862C28.6241 13.1862 28.628 13.1939 28.6511 13.4565C28.6782 13.723 28.682 13.7269 28.794 13.7269C28.8983 13.7269 28.906 13.7384 28.906 13.862C28.906 13.9856 28.9176 13.9972 29.018 13.9972C29.1262 13.9972 29.13 14.0049 29.1571 14.2482C29.1802 14.4915 29.1841 14.4993 29.2922 14.4993C29.3965 14.4993 29.4004 14.507 29.4274 14.7696C29.4544 15.0361 29.4544 15.0399 29.5664 15.0399H29.6784V15.291V15.542H29.8136C29.941 15.542 29.9488 15.5497 29.9488 15.6772C29.9488 15.8007 29.9565 15.8123 30.0608 15.8123C30.1612 15.8123 30.1766 15.8278 30.1882 15.9359C30.1998 16.0479 30.2152 16.0634 30.3272 16.075C30.4354 16.0865 30.4508 16.102 30.4508 16.2024V16.3144H30.8332H31.2194L31.2309 16.1869C31.2425 16.0788 31.258 16.0634 31.37 16.0518L31.4936 16.0402V15.5381V15.0399H31.3816C31.2696 15.0399 31.2696 15.0361 31.2425 14.7696C31.2155 14.507 31.2116 14.4993 31.1074 14.4993C31.0031 14.4993 30.9992 14.4915 30.9722 14.2482C30.949 14.0011 30.9452 13.9972 30.8332 13.9972C30.7289 13.9972 30.7212 13.9856 30.7212 13.862C30.7212 13.7384 30.7134 13.7269 30.6092 13.7269C30.4972 13.7269 30.4933 13.723 30.4663 13.4565C30.4431 13.1939 30.4392 13.1862 30.335 13.1862C30.2307 13.1862 30.223 13.1785 30.1998 12.9351C30.1728 12.6918 30.1689 12.6841 30.0646 12.6841C29.9604 12.6841 29.9565 12.6764 29.9295 12.4331C29.9063 12.1859 29.9024 12.1821 29.7904 12.1821C29.6861 12.1821 29.6784 12.1705 29.6784 12.0469C29.6784 11.9233 29.6668 11.9117 29.5664 11.9117C29.4544 11.9117 29.4544 11.9079 29.4274 11.6414C29.4004 11.3788 29.3965 11.371 29.2922 11.371C29.1841 11.371 29.1802 11.3633 29.1571 11.12C29.13 10.8767 29.1262 10.869 29.018 10.869C28.9176 10.869 28.906 10.8574 28.906 10.7338V10.5986H29.1571H29.4081V10.4635V10.3283L30.7134 10.336L32.0149 10.3476L32.0265 10.4712ZM10.6697 11.5139C10.6813 11.6259 10.6967 11.6414 10.7933 11.6414C10.8898 11.6414 10.9053 11.6568 10.9168 11.765C10.9284 11.877 10.9439 11.8924 11.0559 11.904C11.164 11.9156 11.1795 11.931 11.1795 12.0276C11.1795 12.1241 11.1949 12.1396 11.3069 12.1512C11.415 12.1627 11.4305 12.1782 11.4421 12.2863C11.4537 12.3983 11.4691 12.4138 11.5657 12.4138C11.6699 12.4138 11.6738 12.4176 11.7008 12.6841C11.7279 12.9467 11.7317 12.9545 11.836 12.9545C11.9403 12.9545 11.9441 12.9622 11.9712 13.2055C11.9943 13.4527 11.9982 13.4565 12.1102 13.4565C12.2183 13.4565 12.2222 13.4604 12.2222 13.6651C12.2222 13.7771 12.2338 13.9509 12.2454 14.0513C12.2685 14.2173 12.2801 14.2289 12.3805 14.2289H12.4925V14.4993V14.7696H10.5422H8.59192V14.6344C8.59192 14.5108 8.6035 14.4993 8.70391 14.4993C8.81205 14.4993 8.81591 14.4915 8.84295 14.2482C8.86612 14.0049 8.87384 13.9972 8.97812 13.9972C9.08239 13.9972 9.08625 13.9895 9.11329 13.7462C9.13646 13.499 9.14032 13.4951 9.25232 13.4951C9.35659 13.4951 9.36432 13.4874 9.36432 13.3407C9.36432 13.1939 9.37204 13.1862 9.47631 13.1862C9.58831 13.1862 9.59217 13.1823 9.61535 12.9351C9.64238 12.6918 9.64624 12.6841 9.75051 12.6841C9.85479 12.6841 9.85865 12.6764 9.88568 12.4331C9.90886 12.1859 9.91272 12.1821 10.0247 12.1821H10.1367V11.9117V11.6414H10.2719C10.3993 11.6414 10.4071 11.6337 10.4071 11.5023C10.4071 11.371 10.4109 11.3672 10.5345 11.3788C10.6426 11.3903 10.6581 11.4058 10.6697 11.5139ZM20.5641 12.2786C20.5641 12.4061 20.5718 12.4138 20.6993 12.4138C20.8267 12.4138 20.8344 12.4215 20.8344 12.5489C20.8344 12.6764 20.8267 12.6841 20.6993 12.6841C20.5718 12.6841 20.5641 12.6918 20.5641 12.8193C20.5641 12.9429 20.5564 12.9545 20.4521 12.9545C20.3517 12.9545 20.3363 12.9699 20.3247 13.078C20.3131 13.19 20.2976 13.2055 20.1895 13.2171C20.0775 13.2287 20.062 13.2441 20.062 13.3445C20.062 13.4488 20.0505 13.4565 19.9269 13.4565C19.8033 13.4565 19.7917 13.4488 19.7917 13.3407C19.7917 13.2402 19.8033 13.2248 19.9037 13.2248C20.0157 13.2248 20.0157 13.2209 20.0427 12.9545C20.0698 12.688 20.0698 12.6841 20.1818 12.6841C20.2938 12.6841 20.2938 12.6841 20.2938 12.4408C20.2938 12.3056 20.3054 12.1821 20.3208 12.1705C20.3324 12.155 20.3942 12.1434 20.456 12.1434C20.5525 12.1434 20.5641 12.155 20.5641 12.2786Z" fill="#0046C0" fill-opacity="0.6"/>
</g>
</svg>
