<svg width="65" height="47" viewBox="0 0 65 47" fill="none" xmlns="http://www.w3.org/2000/svg">
<g id="LOGOTIPO">
<g id="Vector" filter="url(#filter0_d_453_237)">
<path d="M34.346 0.746296L30.341 0.899801L26.4592 2.80328C24.3026 3.81642 22.2693 4.76816 21.9612 4.86026C21.6223 4.98306 20.4516 5.96551 19.3425 7.07075C17.8021 8.60581 17.2783 9.34264 17.1243 10.2023C17.0319 10.847 16.693 12.1365 16.3849 13.0882L15.7996 14.8382L16.6622 16.6188C17.1551 17.6013 17.7097 18.9521 17.8945 19.6583L18.2642 20.8863L21.0061 21.4389C22.4849 21.7459 23.8097 22.1144 23.9021 22.2986C23.9945 22.4521 24.241 22.5135 24.4258 22.4521C24.6415 22.3907 25.689 22.5749 26.798 22.8819L28.7698 23.4652L29.7248 22.5442C31.3885 20.9477 33.1445 21.5003 35.948 24.509C38.9672 27.702 40.6925 29.1449 40.939 28.7458C41.0622 28.5309 41.6784 28.3467 42.2945 28.316C42.9107 28.2853 43.4344 28.1625 43.4344 28.0397C43.4344 27.8862 43.0955 27.2722 42.6642 26.6581C41.7708 25.3687 41.74 25.031 42.3253 24.2327C42.6642 23.7722 43.0031 23.7108 44.3895 23.8336L46.0839 24.0178L46.7925 22.7898C47.4087 21.6845 47.5935 21.5924 48.5794 21.6845C49.596 21.7766 49.7193 21.6845 49.9349 20.8863C50.089 20.3951 50.6127 19.4433 51.1364 18.7986C52.0299 17.7241 52.0915 17.5092 51.7834 16.7416C51.5677 16.2811 51.3521 15.1759 51.2905 14.2855C51.2289 13.3952 50.9824 12.4435 50.7359 12.1672C50.1198 11.461 47.1314 6.05761 47.1314 5.65849C47.1314 5.47429 46.8233 5.22867 46.4228 5.07517C46.0531 4.92166 44.1122 3.81642 42.1097 2.61907C40.1071 1.42172 38.4435 0.469986 38.4127 0.500687C38.3819 0.531387 36.5642 0.623491 34.346 0.746296ZM38.4743 1.72873C38.6284 2.12785 38.844 3.01819 38.9672 3.75502L39.1829 5.04447L35.5167 3.2945C31.4193 1.29892 31.4193 1.14541 35.6708 1.08401C38.043 1.05331 38.2278 1.11471 38.4743 1.72873ZM42.0789 3.07959C43.6809 4.03133 45.0672 4.95236 45.1597 5.07517C45.2521 5.22867 44.143 5.35148 42.695 5.35148C41.0006 5.35148 40.0147 5.22867 39.8607 4.98306C39.5526 4.49184 38.844 1.36032 39.0289 1.36032C39.0905 1.36032 40.4768 2.12785 42.0789 3.07959ZM29.1703 3.69361C28.4617 4.79886 27.6299 5.8427 27.3218 6.02691C26.7672 6.30322 22.1768 5.71989 22.1768 5.38218C22.1768 5.16727 29.5708 1.72873 30.0945 1.69803C30.3102 1.66733 29.8789 2.58837 29.1703 3.69361ZM35.0238 3.57081L38.3511 5.13657L36.8107 5.35148C35.9789 5.50499 34.6849 5.65849 33.9763 5.7506L32.6824 5.9041L32.1587 4.30764C31.8814 3.448 31.5733 2.55767 31.4809 2.34276C31.296 1.79014 31.4193 1.82084 35.0238 3.57081ZM31.6041 3.96992C31.9122 4.89096 32.0662 5.71989 31.9738 5.812C31.9122 5.9041 30.9571 6.05761 29.9097 6.14971L27.9996 6.36462L29.2935 4.30764C29.9713 3.20239 30.6799 2.28136 30.8339 2.28136C30.9571 2.28136 31.3268 3.04889 31.6041 3.96992ZM38.5051 5.7813C38.5051 5.96551 33.8531 8.82072 33.7607 8.69791C33.4834 8.3295 32.898 6.54883 33.0213 6.42602C33.2677 6.18041 38.5051 5.56639 38.5051 5.7813ZM45.9915 5.8427C46.1455 5.9962 45.4369 8.2681 45.098 8.69791C44.944 8.88212 40.9698 6.21111 40.9698 5.9348C40.9698 5.62779 45.6834 5.53569 45.9915 5.8427ZM24.2102 6.30322C25.196 6.48743 26.2127 6.70233 26.4283 6.76374C26.7056 6.82514 26.1203 7.68477 24.8879 9.00493C23.8405 10.2023 22.9162 11.0926 22.8546 11.0312C22.6698 10.8777 21.8996 7.16285 21.8688 6.48742C21.8688 5.8734 21.8688 5.8734 24.2102 6.30322ZM21.8071 8.54441C22.0228 9.68036 22.146 10.6935 22.0844 10.7856C21.992 10.847 21.0677 10.4786 20.0203 9.95667L18.0794 8.97423L19.4349 7.62337C20.1743 6.88654 20.9137 6.30322 21.0677 6.36462C21.2526 6.42602 21.5915 7.40846 21.8071 8.54441ZM32.8364 7.56197C33.0521 8.20669 33.1137 8.72861 32.9597 8.72861C32.8364 8.72861 31.7581 8.3295 30.5874 7.83828C28.4617 6.91724 28.4309 6.70233 30.495 6.48742C32.2511 6.30322 32.4051 6.36462 32.8364 7.56197ZM39.0289 6.64093C38.9672 6.85584 38.4435 8.4523 37.8581 10.1716C37.3036 11.9215 36.7491 13.3338 36.6258 13.3338C36.4102 13.3338 34.2228 10.1409 34.1304 9.61895C34.0688 9.40404 35.0854 8.57511 36.3486 7.77688C38.7824 6.24182 39.2753 6.02691 39.0289 6.64093ZM44.297 10.9391C43.9273 11.8294 43.5576 12.6891 43.4344 12.8119C43.2496 13.0268 40.3536 7.16285 40.3536 6.54883C40.3536 6.39532 41.4011 6.94794 42.6334 7.80758L44.944 9.34264L44.297 10.9391ZM48.6718 9.55755C49.3496 10.7856 49.9041 11.8601 49.9041 11.9522C49.9041 12.0443 48.9183 11.461 47.7167 10.6628C45.4061 9.12773 45.4061 9.12773 46.2379 6.97865C46.546 6.14971 46.5768 6.11901 47.0082 6.73304C47.2546 7.07075 48.0248 8.3295 48.6718 9.55755ZM41.4319 10.233C42.2021 11.9829 42.8183 13.4566 42.7566 13.4873C42.541 13.7022 37.6117 13.7636 37.396 13.5794C37.3036 13.4566 37.7349 11.8294 38.3511 9.95667C38.998 8.05319 39.6142 6.64093 39.7682 6.79444C39.8915 6.91724 40.6617 8.48301 41.4319 10.233ZM32.6516 9.34264C32.6516 9.43474 32.0354 9.83386 31.296 10.1716C30.2486 10.6935 29.848 10.7549 29.6324 10.4786C29.2935 10.0795 28.0304 7.59267 28.0304 7.37776C28.0304 7.28566 29.0778 7.65407 30.341 8.20669C31.6041 8.72861 32.6516 9.25054 32.6516 9.34264ZM28.4309 9.18913C28.893 10.1409 29.2627 11.0619 29.2627 11.2461C29.2627 11.4303 28.6157 12.6277 27.8455 13.8557L26.4283 16.1276L24.9188 14.1934C24.0869 13.1189 23.4092 12.0443 23.4092 11.7987C23.4092 11.3996 27.0137 7.50057 27.4142 7.50057C27.5066 7.50057 27.9688 8.2681 28.4309 9.18913ZM20.0819 10.6014L21.992 11.5531L19.5273 12.904C16.847 14.3776 16.6314 14.439 16.6314 13.8557C16.6314 13.4259 17.5248 10.2637 17.7713 9.86456C17.9561 9.55755 18.0177 9.55755 20.0819 10.6014ZM34.9622 11.9522L36.3794 13.9171L35.5784 15.3294C35.1162 16.0969 34.6233 16.7723 34.5001 16.8644C34.2536 17.0179 30.0021 11.5531 30.2177 11.3689C30.8955 10.8163 33.1445 9.71106 33.3294 9.83386C33.4526 9.92596 34.192 10.8777 34.9622 11.9522ZM47.84 11.2461C48.795 11.8908 49.596 12.5663 49.596 12.7198C49.596 12.904 48.6718 13.0268 47.5319 13.0268C46.3612 13.0268 45.098 13.1189 44.6975 13.2417C44.0506 13.3952 43.989 13.3645 44.143 12.6584C44.5743 10.9698 45.3137 9.61895 45.6834 9.83386C45.8991 9.95667 46.8541 10.6014 47.84 11.2461ZM32.0046 14.7154C33.0213 16.0662 33.8223 17.2022 33.7915 17.2329C33.6682 17.325 27.291 16.4039 27.1677 16.2504C27.0753 16.189 27.6299 15.1452 28.3385 13.9478C29.0778 12.7505 29.7864 11.8908 29.9097 12.0136C30.0329 12.1365 30.9879 13.3645 32.0046 14.7154ZM21.8688 12.8733C21.5915 13.5794 20.3592 16.1276 20.1743 16.3425C19.9895 16.5574 17.2475 15.0224 17.34 14.7768C17.4016 14.5311 21.4374 12.2286 21.9304 12.1365C22.0536 12.1365 22.0228 12.4435 21.8688 12.8733ZM23.3783 18.0311L23.4092 18.8907L22.1768 18.0311C20.698 16.9872 20.6364 16.3732 21.7763 14.1627L22.6081 12.5663L22.9778 14.8689C23.1935 16.1276 23.3783 17.5706 23.3783 18.0311ZM24.6723 14.5618C25.2576 15.2987 25.9046 16.2811 26.1203 16.7109C26.644 17.6627 28.3385 22.36 28.2152 22.4521C28.1536 22.5135 27.2294 21.8687 26.1203 21.0398L24.0869 19.5047L23.7172 16.9565C23.5324 15.5443 23.2859 13.9785 23.1935 13.4873C23.0087 12.4435 23.1011 12.5356 24.6723 14.5618ZM50.2122 13.4873C50.2122 13.9785 49.1647 16.0969 48.9491 16.0969C48.795 16.0969 47.6551 15.575 46.4228 14.961L44.2046 13.7943L45.591 13.6101C47.3778 13.3645 50.2122 13.3031 50.2122 13.4873ZM42.695 14.7768C42.6026 15.268 42.4486 16.2811 42.3253 17.0793L42.1405 18.553L39.7991 16.4653L37.4885 14.4083L38.844 14.2241C39.5834 14.132 40.7849 14.0092 41.5243 14.0092C42.8183 13.9478 42.8491 13.9785 42.695 14.7768ZM51.044 16.8951C50.9516 16.9872 50.5819 16.9872 50.2122 16.8644C49.5344 16.6495 49.5652 16.3732 50.3046 14.5618C50.6127 13.825 50.6435 13.8864 50.9208 15.268C51.0748 16.0662 51.1364 16.803 51.044 16.8951ZM44.3587 15.2373C44.7592 15.7899 45.4061 16.6802 45.8066 17.2022L46.546 18.1846L44.6051 18.5223C43.5576 18.7065 42.6642 18.7986 42.6334 18.7679C42.4486 18.5837 43.2188 14.2548 43.4036 14.2548C43.5268 14.2548 43.9581 14.7154 44.3587 15.2373ZM41.5859 18.9828C41.5859 19.3512 38.5051 21.3161 37.9506 21.3161C37.7965 21.3161 37.5809 20.2416 37.4576 18.9214C37.3344 17.632 37.1804 16.0662 37.0571 15.4829L36.8723 14.439L39.2445 16.5574C40.5385 17.6934 41.5859 18.7986 41.5859 18.9828ZM48.7026 17.2943C48.0556 18.4916 47.2238 18.2767 45.8991 16.5267C45.2213 15.6364 44.6667 14.8075 44.6667 14.7154C44.6667 14.6233 45.6526 15.0531 46.8233 15.6364C48.7026 16.5881 48.9491 16.803 48.7026 17.2943ZM37.0879 19.3205L37.2728 21.1626L36.6566 20.3951C36.3177 19.9653 35.794 19.1056 35.4551 18.4302L34.839 17.2636L35.6708 16.0048L36.5026 14.7768L36.6874 16.1276C36.7799 16.8644 36.9647 18.3074 37.0879 19.3205ZM18.8496 16.2811C20.0511 16.8951 20.0819 17.1408 19.2809 18.5837L18.5107 19.9039L17.8637 18.3995C16.539 15.3908 16.539 15.4215 17.3092 15.6671C17.7097 15.7592 18.3874 16.0662 18.8496 16.2811ZM31.2652 17.3557C32.5284 17.5399 33.5758 17.7855 33.5758 17.9083C33.5758 18.0311 32.9597 18.7372 32.1895 19.474L30.8031 20.8249L30.0021 20.0574C29.5708 19.6583 28.8006 18.7986 28.2768 18.1539L27.3526 17.0179H28.1536C28.5849 17.0179 29.9713 17.1715 31.2652 17.3557ZM50.0582 17.325C50.1506 17.4785 50.0273 17.632 49.7809 17.632C49.5036 17.632 49.2879 17.4785 49.2879 17.325C49.2879 17.1408 49.4112 17.0179 49.5652 17.0179C49.7501 17.0179 49.9657 17.1408 50.0582 17.325ZM23.3783 19.6276C23.7789 20.0881 23.9021 21.4696 23.5632 21.4696C22.6698 21.4389 19.096 20.5486 19.096 20.3337C19.096 20.2109 19.4041 19.474 19.7738 18.7372L20.4208 17.3557L21.7763 18.3381C22.5157 18.86 23.2551 19.4433 23.3783 19.6276ZM29.7864 21.8687C29.0162 22.6977 28.8314 22.5442 28.0612 20.3951C27.7531 19.474 27.3834 18.4302 27.2602 18.0925C27.1369 17.7548 27.7839 18.3074 28.739 19.3205L30.4334 21.1626L29.7864 21.8687ZM50.8284 18.1846C50.8284 18.3074 50.4587 18.9521 50.0273 19.5969C49.3188 20.61 49.1647 20.7021 48.7642 20.3337C48.0864 19.6276 48.5486 18.3074 49.5344 18.1539C49.9965 18.0925 50.4587 18.0004 50.6127 17.9697C50.7359 17.9697 50.8284 18.0311 50.8284 18.1846ZM35.7016 19.7197C36.2253 20.5486 36.6566 21.3161 36.6566 21.4082C36.6566 21.531 36.1021 21.6231 35.4243 21.6231C34.2536 21.6231 34.192 21.5924 34.192 20.61C34.192 19.6583 34.4693 18.246 34.6541 18.246C34.7157 18.246 35.1778 18.9214 35.7016 19.7197ZM33.7299 20.2109C33.5142 21.5003 33.4218 21.6231 32.8364 21.4389C31.6041 21.0705 31.5733 20.7328 32.6516 19.6276C33.2061 19.0442 33.7299 18.6144 33.8223 18.6758C33.8839 18.7372 33.8223 19.4433 33.7299 20.2109ZM47.2546 19.1363C47.84 19.7811 47.6243 20.7021 46.8541 20.7021C46.5768 20.6714 45.745 20.3337 44.9748 19.9346C43.6809 19.2591 43.6193 19.2284 44.3587 19.0442C45.1597 18.8907 46.2071 18.6451 46.546 18.5837C46.6385 18.5837 46.9465 18.7986 47.2546 19.1363ZM48.0556 18.86C48.0556 19.0135 47.994 19.167 47.9324 19.167C47.84 19.167 47.6859 19.0135 47.5935 18.86C47.5011 18.6758 47.5627 18.553 47.7167 18.553C47.9016 18.553 48.0556 18.6758 48.0556 18.86ZM42.2637 21.224C42.4177 22.974 42.0172 24.3862 41.3703 24.3862C40.6309 24.3862 38.1354 22.1758 38.4743 21.838C38.8748 21.4389 41.6784 19.7811 41.9248 19.7811C42.048 19.7811 42.2021 20.4258 42.2637 21.224ZM46.6385 21.3161C46.9157 21.6231 46.2996 23.1582 45.8991 23.1582C45.7142 23.1582 43.4344 20.2109 43.4344 19.9653C43.4344 19.7504 46.2688 20.9784 46.6385 21.3161ZM44.9748 23.0968C44.9748 23.3424 44.7284 23.4038 44.143 23.281C43.0031 23.0047 42.9107 22.9126 42.7258 21.3161L42.541 19.9346L43.7425 21.3161C44.4203 22.0837 44.9748 22.8819 44.9748 23.0968ZM26.1819 21.5924C26.8905 22.1758 26.9213 22.2372 26.3359 22.2372C25.5041 22.2372 24.3334 21.4082 24.3334 20.8249C24.3334 20.3337 24.8263 20.5179 26.1819 21.5924ZM48.6718 21.0398C48.6718 21.1933 48.4561 21.3161 48.2097 21.3161C47.7475 21.3161 47.5935 20.9477 47.9324 20.61C48.1789 20.3644 48.6718 20.6407 48.6718 21.0398ZM37.4576 22.667C37.5501 22.9126 37.5809 23.588 37.5193 24.202L37.4268 25.338L35.8864 23.8029L34.3768 22.2372H35.8248C36.8107 22.2372 37.3344 22.3907 37.4576 22.667ZM39.6142 23.895L40.8157 24.9389L39.6142 25.4301C38.9364 25.7064 38.3819 25.8906 38.3511 25.8599C38.1046 25.5529 37.889 22.8512 38.1354 22.8512C38.2895 22.8512 38.9364 23.3117 39.6142 23.895ZM40.8773 26.0748C40.6925 26.5353 39.1213 26.7502 39.1213 26.2897C39.1213 26.0441 40.7233 25.338 40.939 25.4915C41.0006 25.5529 40.9698 25.7985 40.8773 26.0748ZM42.2021 26.9344C42.2021 27.5485 41.4319 26.9037 41.3395 26.1976C41.2778 25.4915 41.2778 25.4915 41.74 26.0441C41.9864 26.3818 42.2021 26.7809 42.2021 26.9344ZM40.3536 27.5178C40.3536 27.9169 39.645 27.6713 39.491 27.2108C39.4294 26.9958 39.5526 26.9037 39.8607 27.0265C40.1379 27.1187 40.3536 27.3643 40.3536 27.5178ZM41.74 27.7634C41.6475 27.9169 41.4319 28.0704 41.247 28.0704C41.093 28.0704 40.9698 27.9169 40.9698 27.7634C40.9698 27.5792 41.1854 27.4564 41.4627 27.4564C41.7092 27.4564 41.8324 27.5792 41.74 27.7634Z" fill="#EBFF00"/>
</g>
<g id="Vector_2" filter="url(#filter1_d_453_237)">
<path d="M4 35.2852V38.5088H5.35556C6.18737 38.5088 6.92677 38.3246 7.20404 38.0176C7.75859 37.4957 7.85101 36.022 7.38889 35.5615C7.20404 35.3773 7.20404 34.9168 7.45051 34.3028C7.97424 32.8905 7.17323 32.0616 5.32475 32.0616H4V35.2852ZM6.61869 33.7501C6.61869 34.5177 6.49545 34.6712 5.78687 34.7633C4.98586 34.8554 4.92424 34.794 4.92424 33.7501C4.92424 32.7063 4.98586 32.6449 5.78687 32.737C6.49545 32.8291 6.61869 32.9826 6.61869 33.7501ZM6.77273 36.0527C7.23485 36.9124 6.6495 37.8948 5.69444 37.8948C5.01667 37.8948 4.92424 37.772 4.92424 36.6667C4.92424 35.5615 5.01667 35.4387 5.69444 35.4387C6.12576 35.4387 6.58788 35.6843 6.77273 36.0527Z" fill="white"/>
</g>
<path id="Vector_3" d="M8.62109 35.2852C8.62109 37.9562 8.71352 38.5088 9.08321 38.5088C9.4221 38.5088 9.54534 38.1404 9.54534 37.1273C9.54534 36.0834 9.66857 35.7457 10.0075 35.7457C10.2847 35.7457 10.7469 36.3597 11.0857 37.1273C11.4246 37.8948 11.8868 38.5088 12.1332 38.5088C12.5029 38.5088 12.4721 38.2632 11.9792 37.0966C11.3938 35.8071 11.3938 35.6536 11.8251 35.1624C12.4721 34.4256 12.4413 33.1975 11.7635 32.5835C11.4246 32.2765 10.6544 32.0616 9.91503 32.0616H8.62109V35.2852ZM11.2398 33.9036C11.2398 34.8554 11.1474 34.9782 10.408 35.0703C9.57614 35.1624 9.54534 35.101 9.54534 33.9036C9.54534 32.7063 9.57614 32.6449 10.408 32.737C11.1474 32.8291 11.2398 32.9519 11.2398 33.9036Z" fill="white"/>
<path id="Vector_4" d="M13.8894 35.101C13.3656 36.7589 12.9343 38.2325 12.9343 38.3553C12.9343 38.8772 13.7045 38.2325 13.8586 37.5571C14.0126 36.9738 14.2591 36.7896 15.1833 36.7282C16.2308 36.636 16.354 36.6974 16.5081 37.5571C16.6313 38.1097 16.9086 38.5088 17.155 38.5088C17.4631 38.5088 17.5555 38.3246 17.4323 37.9869C17.3091 37.7106 16.847 36.2676 16.4156 34.7633C15.9535 33.2896 15.4298 32.0616 15.2449 32.0616C15.0293 32.0616 14.4439 33.4124 13.8894 35.101ZM15.8303 35.1931C16.0151 35.9606 15.9535 36.0527 15.2449 36.0527C14.3515 36.0527 14.3515 36.0527 14.8444 34.4563C15.2141 33.1668 15.3374 33.2589 15.8303 35.1931Z" fill="white"/>
<path id="Vector_5" d="M18.4797 35.2852C18.4797 37.9562 18.5722 38.5088 18.9419 38.5088C19.3116 38.5088 19.404 37.9562 19.404 35.2852C19.404 32.6142 19.3116 32.0616 18.9419 32.0616C18.5722 32.0616 18.4797 32.6142 18.4797 35.2852Z" fill="white"/>
<path id="Vector_6" d="M20.6362 35.2852C20.6362 37.9562 20.7287 38.5088 21.0984 38.5088C21.468 38.5088 21.5605 38.0483 21.5605 36.1141L21.5913 33.7501L22.8236 36.1141C24.5489 39.4913 24.9494 39.3378 24.9494 35.2852C24.9494 32.6142 24.8569 32.0616 24.4872 32.0616C24.1175 32.0616 24.0251 32.5221 24.0251 34.4256L23.9943 36.8203L22.762 34.4256C21.0367 31.0791 20.6362 31.2326 20.6362 35.2852Z" fill="white"/>
<path id="Vector_7" d="M26.6748 32.5528C26.0586 33.1361 26.0278 34.3335 26.6132 34.9168C26.8596 35.1624 27.4758 35.5308 28.0303 35.7457C28.8005 36.0527 28.9546 36.2983 28.893 36.9431C28.7697 37.9869 27.6298 38.2018 27.0445 37.3115C26.644 36.636 25.8738 36.4211 25.8738 36.9738C25.8738 37.5878 27.1369 38.5088 27.9687 38.5088C28.9854 38.5088 29.8788 37.6799 29.8788 36.7281C29.8788 36.0834 28.7389 35.0089 27.7223 34.6712C26.9829 34.4563 26.7056 33.6273 27.1369 33.1054C27.6606 32.4607 28.6773 32.5835 28.8622 33.2896C29.0162 33.9036 29.8788 34.1799 29.8788 33.5966C29.8788 33.0133 28.6465 32.0616 27.9071 32.0616C27.4758 32.0616 26.9213 32.2765 26.6748 32.5528Z" fill="white"/>
<path id="Vector_8" d="M30.4949 32.3686C30.4949 32.5221 30.8338 32.6756 31.2651 32.6756C32.0353 32.6756 32.0353 32.6756 32.0353 35.5922C32.0353 37.9869 32.1277 38.5088 32.4974 38.5088C32.8671 38.5088 32.9595 37.9869 32.9595 35.5922C32.9595 32.6756 32.9595 32.6756 33.7297 32.6756C34.161 32.6756 34.4999 32.5221 34.4999 32.3686C34.4999 32.1844 33.6373 32.0616 32.4974 32.0616C31.3575 32.0616 30.4949 32.1844 30.4949 32.3686Z" fill="white"/>
<path id="Vector_9" d="M36.0405 32.6756C35.5475 33.1668 35.4243 33.6887 35.4243 35.2852C35.4243 37.5264 36.0405 38.5088 37.4268 38.5088C38.8132 38.5088 39.4294 37.5264 39.4294 35.2852C39.4294 33.044 38.8132 32.0616 37.4268 32.0616C36.9955 32.0616 36.3794 32.3379 36.0405 32.6756ZM38.5051 33.2589C38.6592 33.5966 38.8132 34.5177 38.8132 35.2852C38.8132 37.0966 38.3819 37.8948 37.4268 37.8948C36.4718 37.8948 36.0405 37.0966 36.0405 35.2852C36.0405 33.4738 36.4718 32.6756 37.4268 32.6756C37.8582 32.6756 38.3203 32.9212 38.5051 33.2589Z" fill="white"/>
<path id="Vector_10" d="M40.9697 35.2852C40.9697 37.9562 41.0622 38.5088 41.4318 38.5088C41.7707 38.5088 41.894 38.1404 41.894 37.1273C41.894 36.0834 42.0172 35.7457 42.3561 35.7457C42.6334 35.7457 43.0955 36.3597 43.4344 37.1273C43.7733 37.8948 44.2354 38.5088 44.4818 38.5088C44.8515 38.5088 44.8207 38.2632 44.3278 37.0966C43.7425 35.8071 43.7425 35.6536 44.1738 35.1624C44.8207 34.4256 44.7899 33.1975 44.1122 32.5835C43.7733 32.2765 43.0031 32.0616 42.2637 32.0616H40.9697V35.2852ZM43.5884 33.9036C43.5884 34.8554 43.496 34.9782 42.7566 35.0703C41.9248 35.1624 41.894 35.101 41.894 33.9036C41.894 32.7063 41.9248 32.6449 42.7566 32.737C43.496 32.8291 43.5884 32.9519 43.5884 33.9036Z" fill="white"/>
<path id="Vector_11" d="M45.5908 35.2852C45.5908 37.9562 45.6832 38.5088 46.0529 38.5088C46.4226 38.5088 46.5151 38.0483 46.5459 36.2676V34.0571L47.2236 36.1755C47.5933 37.3422 48.0555 38.3553 48.2711 38.4167C48.456 38.4781 48.9489 37.5878 49.3802 36.2983L50.1504 34.0571L50.1812 36.2676C50.212 38.0483 50.3045 38.5088 50.6742 38.5088C51.0439 38.5088 51.1363 37.9562 51.1363 35.2852C51.1363 32.3686 51.0747 32.0616 50.5817 32.0616C50.1504 32.0616 49.8423 32.6142 49.2878 34.3949C48.8873 35.6536 48.456 36.7588 48.3635 36.8203C48.2403 36.8817 47.8398 35.8378 47.4393 34.5177C46.8848 32.5835 46.6383 32.0616 46.1762 32.0616C45.6524 32.0616 45.5908 32.3379 45.5908 35.2852Z" fill="white"/>
<path id="Vector_12" d="M52.0605 35.2852V38.5088H53.755C54.6792 38.5088 55.4494 38.3553 55.4494 38.2018C55.4494 38.0176 54.8949 37.8948 54.2171 37.8948H52.9848V36.6667C52.9848 35.4694 53.0156 35.4387 54.0631 35.4387C54.6484 35.4387 55.1414 35.2852 55.1414 35.1317C55.1414 34.9475 54.6484 34.8247 54.0631 34.8247C53.0464 34.8247 52.9848 34.7633 52.9848 33.7501C52.9848 32.7063 53.0156 32.6756 54.2171 32.6756C54.8949 32.6756 55.4494 32.5221 55.4494 32.3686C55.4494 32.1844 54.6792 32.0616 53.755 32.0616H52.0605V35.2852Z" fill="white"/>
<path id="Vector_13" d="M56.6819 35.2852C56.6819 37.9562 56.7743 38.5088 57.144 38.5088C57.4829 38.5088 57.6061 38.1404 57.6061 37.1273C57.6061 36.0834 57.7294 35.7457 58.0682 35.7457C58.3455 35.7457 58.8076 36.3597 59.1465 37.1273C59.4854 37.8948 59.9475 38.5088 60.194 38.5088C60.5637 38.5088 60.5329 38.2632 60.04 37.0966C59.4546 35.8071 59.4546 35.6536 59.8859 35.1624C60.5329 34.4256 60.5021 33.1975 59.8243 32.5835C59.4854 32.2765 58.7152 32.0616 57.9758 32.0616H56.6819V35.2852ZM59.3006 33.9036C59.3006 34.8554 59.2081 34.9782 58.4688 35.0703C57.6369 35.1624 57.6061 35.101 57.6061 33.9036C57.6061 32.7063 57.6369 32.6449 58.4688 32.737C59.2081 32.8291 59.3006 32.9519 59.3006 33.9036Z" fill="white"/>
<path id="Vector_14" d="M61.7959 32.5528C61.1797 33.1361 61.1489 34.3335 61.7343 34.9168C61.9807 35.1624 62.5969 35.5308 63.1514 35.7457C63.9216 36.0527 64.0757 36.2983 64.0141 36.9431C63.8908 37.9869 62.7509 38.2018 62.1656 37.3115C61.7651 36.636 60.9949 36.4211 60.9949 36.9738C60.9949 37.5878 62.258 38.5088 63.0898 38.5088C64.1065 38.5088 64.9999 37.6799 64.9999 36.7281C64.9999 36.0834 63.86 35.0089 62.8434 34.6712C62.104 34.4563 61.8267 33.6273 62.258 33.1054C62.7817 32.4607 63.7984 32.5835 63.9833 33.2896C64.1373 33.9036 64.9999 34.1799 64.9999 33.5966C64.9999 33.0133 63.7676 32.0616 63.0282 32.0616C62.5969 32.0616 62.0423 32.2765 61.7959 32.5528Z" fill="white"/>
<path id="Vector_15" d="M4.30811 42.193C4.30811 42.4079 14.4748 42.5 34.1919 42.5C53.9091 42.5 64.0758 42.4079 64.0758 42.193C64.0758 41.9781 53.9091 41.886 34.1919 41.886C14.4748 41.886 4.30811 41.9781 4.30811 42.193Z" fill="white"/>
</g>
<defs>
<filter id="filter0_d_453_237" x="11.7996" y="0.499969" width="44.1516" height="36.3108" filterUnits="userSpaceOnUse" color-interpolation-filters="sRGB">
<feFlood flood-opacity="0" result="BackgroundImageFix"/>
<feColorMatrix in="SourceAlpha" type="matrix" values="0 0 0 0 0 0 0 0 0 0 0 0 0 0 0 0 0 0 127 0" result="hardAlpha"/>
<feOffset dy="4"/>
<feGaussianBlur stdDeviation="2"/>
<feComposite in2="hardAlpha" operator="out"/>
<feColorMatrix type="matrix" values="0 0 0 0 0 0 0 0 0 0 0 0 0 0 0 0 0 0 0.25 0"/>
<feBlend mode="normal" in2="BackgroundImageFix" result="effect1_dropShadow_453_237"/>
<feBlend mode="normal" in="SourceGraphic" in2="effect1_dropShadow_453_237" result="shape"/>
</filter>
<filter id="filter1_d_453_237" x="0" y="32.0616" width="11.6848" height="14.4473" filterUnits="userSpaceOnUse" color-interpolation-filters="sRGB">
<feFlood flood-opacity="0" result="BackgroundImageFix"/>
<feColorMatrix in="SourceAlpha" type="matrix" values="0 0 0 0 0 0 0 0 0 0 0 0 0 0 0 0 0 0 127 0" result="hardAlpha"/>
<feOffset dy="4"/>
<feGaussianBlur stdDeviation="2"/>
<feComposite in2="hardAlpha" operator="out"/>
<feColorMatrix type="matrix" values="0 0 0 0 0 0 0 0 0 0 0 0 0 0 0 0 0 0 0.25 0"/>
<feBlend mode="normal" in2="BackgroundImageFix" result="effect1_dropShadow_453_237"/>
<feBlend mode="normal" in="SourceGraphic" in2="effect1_dropShadow_453_237" result="shape"/>
</filter>
</defs>
</svg>
