<svg width="53" height="45" viewBox="0 0 53 45" fill="none" xmlns="http://www.w3.org/2000/svg">
<g id="LOGOTIPO">
<g id="Vector" filter="url(#filter0_d_509_293)">
<path d="M27.0858 1.12909L22.1005 1.3208L17.2686 3.69803C14.5842 4.96334 12.0532 6.15195 11.6697 6.26698C11.2479 6.42035 9.79062 7.64731 8.41008 9.02764C6.49265 10.9448 5.84073 11.865 5.64898 12.9386C5.53394 13.7438 5.11211 15.3542 4.72862 16.5428L4 18.7283L5.07376 20.9522C5.68733 22.1791 6.37761 23.8662 6.6077 24.7481L7.06788 26.2818L10.4809 26.9719C12.3216 27.3554 13.9706 27.8155 14.0857 28.0455C14.2007 28.2372 14.5075 28.3139 14.7376 28.2372C15.006 28.1605 16.3099 28.3906 17.6904 28.774L20.1447 29.5025L21.3335 28.3523C23.4043 26.3584 25.5902 27.0486 29.0799 30.8062C32.8381 34.7938 34.9856 36.5959 35.2924 36.0974C35.4458 35.829 36.2127 35.599 36.9797 35.5606C37.7467 35.5223 38.3986 35.3689 38.3986 35.2156C38.3986 35.0239 37.9768 34.257 37.4399 33.4902C36.3278 31.8798 36.2894 31.458 37.018 30.4611C37.4399 29.886 37.8617 29.8093 39.5874 29.9626L41.6966 30.1927L42.5786 28.659C43.3455 27.2787 43.5756 27.1636 44.8028 27.2787C46.0683 27.3937 46.2217 27.2787 46.4901 26.2818C46.6819 25.6683 47.3338 24.4797 47.9857 23.6745C49.0978 22.3325 49.1745 22.0641 48.791 21.1055C48.5226 20.5304 48.2541 19.1501 48.1775 18.0381C48.1008 16.9262 47.794 15.7376 47.4872 15.3925C46.7202 14.5106 43.0004 7.76234 43.0004 7.26389C43.0004 7.03383 42.6169 6.72709 42.1184 6.53538C41.6582 6.34366 39.2423 4.96334 36.7496 3.46798C34.257 1.97262 32.1861 0.784004 32.1478 0.822346C32.1094 0.860687 29.8469 0.975716 27.0858 1.12909ZM32.2245 2.35604C32.4162 2.8545 32.6847 3.96643 32.8381 4.88665L33.1065 6.49703L28.543 4.31151C23.4427 1.81925 23.4427 1.62754 28.7348 1.55085C31.6876 1.51251 31.9177 1.5892 32.2245 2.35604ZM36.7113 4.04311C38.7054 5.23173 40.4311 6.38201 40.5461 6.53538C40.6611 6.72709 39.2806 6.88046 37.4782 6.88046C35.3691 6.88046 34.1419 6.72709 33.9502 6.42035C33.5667 5.80687 32.6847 1.89594 32.9148 1.89594C32.9915 1.89594 34.7171 2.8545 36.7113 4.04311ZM20.6432 4.80997C19.7612 6.19029 18.7258 7.49394 18.3423 7.724C17.6521 8.06908 11.9381 7.34057 11.9381 6.9188C11.9381 6.6504 21.1418 2.35604 21.7937 2.3177C22.0621 2.27936 21.5253 3.42963 20.6432 4.80997ZM27.9295 4.6566L32.0711 6.61206L30.1537 6.88046C29.1183 7.07217 27.5076 7.26389 26.6256 7.37891L25.015 7.57063L24.363 5.57681C24.0179 4.50323 23.6344 3.39129 23.5194 3.12289C23.2893 2.43273 23.4427 2.47107 27.9295 4.6566ZM23.6728 5.15505C24.0563 6.30532 24.248 7.34057 24.133 7.4556C24.0563 7.57063 22.8675 7.76234 21.5636 7.87737L19.186 8.14576L20.7966 5.57681C21.6403 4.19649 22.5223 3.04621 22.7141 3.04621C22.8675 3.04621 23.3276 4.00477 23.6728 5.15505ZM32.2628 7.41726C32.2628 7.64731 26.4722 11.2132 26.3572 11.0598C26.012 10.5997 25.2834 8.37582 25.4368 8.22245C25.7436 7.91571 32.2628 7.14886 32.2628 7.41726ZM41.5815 7.49394C41.7733 7.68565 40.8912 10.523 40.4694 11.0598C40.2777 11.2898 35.3307 7.95405 35.3307 7.60897C35.3307 7.22554 41.198 7.11052 41.5815 7.49394ZM14.4691 8.06908C15.6963 8.29913 16.9618 8.56753 17.2302 8.64421C17.5754 8.7209 16.8467 9.79449 15.3128 11.4432C14.009 12.9386 12.8585 14.0505 12.7818 13.9738C12.5517 13.7821 11.593 9.14267 11.5547 8.29913C11.5547 7.53228 11.5547 7.53228 14.4691 8.06908ZM11.478 10.8681C11.7464 12.2868 11.8998 13.5521 11.8231 13.6671C11.708 13.7438 10.5576 13.2837 9.25374 12.6318L6.83779 11.4049L8.52512 9.7178C9.44548 8.79758 10.3658 8.06908 10.5576 8.14576C10.7877 8.22245 11.2095 9.44941 11.478 10.8681ZM25.2067 9.64112C25.4751 10.4463 25.5518 11.0981 25.3601 11.0981C25.2067 11.0981 23.8645 10.5997 22.4073 9.9862C19.7612 8.83593 19.7229 8.56753 22.2922 8.29913C24.4781 8.06908 24.6698 8.14576 25.2067 9.64112ZM32.9148 8.49084C32.8381 8.75924 32.1861 10.7531 31.4575 12.9002C30.7672 15.0858 30.077 16.8495 29.9236 16.8495C29.6551 16.8495 26.9324 12.8619 26.8173 12.2101C26.7407 11.9417 28.0061 10.9064 29.5784 9.90952C32.608 7.99239 33.2215 7.724 32.9148 8.49084ZM39.4723 13.8588C39.0122 14.9707 38.552 16.0443 38.3986 16.1977C38.1685 16.4661 34.5637 9.14267 34.5637 8.37582C34.5637 8.1841 35.8676 8.87427 37.4015 9.94786L40.2777 11.865L39.4723 13.8588ZM44.9178 12.1334C45.7615 13.6671 46.4518 15.0091 46.4518 15.1241C46.4518 15.2391 45.2246 14.5106 43.729 13.5137C40.8529 11.5966 40.8529 11.5966 41.8883 8.91261C42.2718 7.87737 42.3101 7.83902 42.847 8.60587C43.1538 9.02764 44.1125 10.5997 44.9178 12.1334ZM35.9059 12.9769C36.8646 15.1624 37.6316 17.0029 37.5549 17.0412C37.2865 17.3096 31.1507 17.3863 30.8823 17.1562C30.7672 17.0029 31.3041 14.9707 32.0711 12.6318C32.8764 10.2546 33.6434 8.49084 33.8351 8.68256C33.9885 8.83593 34.9472 10.7914 35.9059 12.9769ZM24.9766 11.865C24.9766 11.98 24.2097 12.4785 23.2893 12.9002C21.9854 13.5521 21.4869 13.6287 21.2185 13.2837C20.7966 12.7852 19.2243 9.67946 19.2243 9.41106C19.2243 9.29604 20.5282 9.75615 22.1005 10.4463C23.6728 11.0981 24.9766 11.75 24.9766 11.865ZM19.7229 11.6733C20.2981 12.8619 20.7583 14.0122 20.7583 14.2422C20.7583 14.4723 19.953 15.9676 18.9943 17.5013L17.2302 20.3387L15.3512 17.9231C14.3157 16.5811 13.4721 15.2391 13.4721 14.9324C13.4721 14.4339 17.9588 9.56443 18.4574 9.56443C18.5724 9.56443 19.1476 10.523 19.7229 11.6733ZM9.33044 13.437L11.708 14.6256L8.64017 16.3127C5.30385 18.1532 5.03541 18.2298 5.03541 17.5013C5.03541 16.9645 6.14751 13.0153 6.4543 12.5168C6.68439 12.1334 6.76109 12.1334 9.33044 13.437ZM27.8528 15.1241L29.6168 17.578L28.6197 19.3418C28.0445 20.3003 27.4309 21.1439 27.2775 21.2589C26.9707 21.4506 21.6786 14.6256 21.9471 14.3956C22.7908 13.7054 25.5902 12.3251 25.8203 12.4785C25.9737 12.5935 26.894 13.7821 27.8528 15.1241ZM43.8824 14.2422C45.0712 15.0474 46.0683 15.8909 46.0683 16.0827C46.0683 16.3127 44.9178 16.4661 43.4989 16.4661C42.0417 16.4661 40.4694 16.5811 39.9709 16.7345C39.1656 16.9262 39.0889 16.8879 39.2806 16.006C39.8175 13.8971 40.7378 12.2101 41.198 12.4785C41.4665 12.6318 42.6553 13.437 43.8824 14.2422ZM24.1713 18.5749C25.4368 20.262 26.4339 21.6807 26.3955 21.719C26.2421 21.834 18.304 20.6838 18.1506 20.492C18.0355 20.4154 18.7258 19.1117 19.6078 17.6164C20.5282 16.121 21.4102 15.0474 21.5636 15.2008C21.717 15.3542 22.9058 16.8879 24.1713 18.5749ZM11.5547 16.2744C11.2095 17.1562 9.67558 20.3387 9.44548 20.6071C9.21539 20.8755 5.80238 18.9583 5.91742 18.6516C5.99412 18.3449 11.0178 15.4692 11.6313 15.3542C11.7847 15.3542 11.7464 15.7376 11.5547 16.2744ZM13.4337 22.7159L13.4721 23.7895L11.9381 22.7159C10.0974 21.4123 10.0207 20.6454 11.4396 17.8848L12.475 15.8909L12.9352 18.7666C13.2036 20.3387 13.4337 22.1408 13.4337 22.7159ZM15.0444 18.3832C15.773 19.3034 16.5783 20.5304 16.8467 21.0672C17.4987 22.2558 19.6078 28.1222 19.4544 28.2372C19.3777 28.3139 18.2273 27.5087 16.8467 26.4735L14.3157 24.5564L13.8556 21.3739C13.6255 19.6102 13.3187 17.6547 13.2036 17.0412C12.9735 15.7376 13.0886 15.8526 15.0444 18.3832ZM46.8353 17.0412C46.8353 17.6547 45.5314 20.3003 45.263 20.3003C45.0712 20.3003 43.6523 19.6485 42.1184 18.8817L39.3573 17.4246L41.083 17.1946C43.3072 16.8879 46.8353 16.8112 46.8353 17.0412ZM37.4782 18.6516C37.3632 19.2651 37.1714 20.5304 37.018 21.5273L36.788 23.3677L33.8735 20.7604L30.9973 18.1915L32.6847 17.9614C33.605 17.8464 35.1006 17.693 36.021 17.693C37.6316 17.6164 37.67 17.6547 37.4782 18.6516ZM47.8707 21.2972C47.7556 21.4123 47.2954 21.4123 46.8353 21.2589C45.9916 20.9905 46.0299 20.6454 46.9503 18.3832C47.3338 17.463 47.3721 17.5397 47.7173 19.2651C47.909 20.262 47.9857 21.1822 47.8707 21.2972ZM39.549 19.2267C40.0476 19.9169 40.8529 21.0288 41.3514 21.6807L42.2718 22.9076L39.8558 23.3294C38.552 23.5594 37.4399 23.6745 37.4015 23.6361C37.1714 23.4061 38.1301 17.9998 38.3602 17.9998C38.5136 17.9998 39.0505 18.5749 39.549 19.2267ZM36.0977 23.9045C36.0977 24.3646 32.2628 26.8186 31.5726 26.8186C31.3808 26.8186 31.1124 25.4766 30.959 23.8278C30.8056 22.2175 30.6138 20.262 30.4605 19.5335L30.2304 18.2298L33.1832 20.8755C34.7938 22.2941 36.0977 23.6745 36.0977 23.9045ZM44.9562 21.7957C44.1509 23.291 43.1155 23.0227 41.4665 20.8371C40.6228 19.7252 39.9325 18.6899 39.9325 18.5749C39.9325 18.4599 41.1597 18.9967 42.6169 19.7252C44.9562 20.9138 45.263 21.1822 44.9562 21.7957ZM30.4988 24.3263L30.7289 26.6268L29.9619 25.6683C29.5401 25.1315 28.8882 24.0579 28.4663 23.2144L27.6994 21.7573L28.7348 20.1853L29.7702 18.6516L30.0003 20.3387C30.1153 21.2589 30.3454 23.061 30.4988 24.3263ZM7.7965 20.5304C9.29209 21.2972 9.33044 21.604 8.33338 23.4061L7.37467 25.0548L6.56935 23.176C4.92036 19.4185 4.92036 19.4568 5.87908 19.7635C6.37761 19.8786 7.22127 20.262 7.7965 20.5304ZM23.2509 21.8724C24.8232 22.1024 26.1271 22.4092 26.1271 22.5625C26.1271 22.7159 25.3601 23.5978 24.4014 24.518L22.6757 26.2051L21.6786 25.2465C21.1418 24.7481 20.1831 23.6745 19.5311 22.8693L18.3807 21.4506H19.3777C19.9146 21.4506 21.6403 21.6423 23.2509 21.8724ZM46.6435 21.834C46.7586 22.0257 46.6052 22.2175 46.2984 22.2175C45.9532 22.2175 45.6848 22.0257 45.6848 21.834C45.6848 21.604 45.8382 21.4506 46.0299 21.4506C46.26 21.4506 46.5285 21.604 46.6435 21.834ZM13.4337 24.7097C13.9323 25.2849 14.0857 27.0103 13.6638 27.0103C12.5517 26.9719 8.10329 25.86 8.10329 25.5916C8.10329 25.4382 8.48677 24.518 8.94695 23.5978L9.75227 21.8724L11.4396 23.0993C12.36 23.7512 13.2803 24.4797 13.4337 24.7097ZM21.4102 27.5087C20.4515 28.544 20.2214 28.3523 19.2627 25.6683C18.8792 24.518 18.419 23.2144 18.2656 22.7926C18.1122 22.3708 18.9176 23.061 20.1064 24.3263L22.2155 26.6268L21.4102 27.5087ZM47.6022 22.9076C47.6022 23.061 47.142 23.8662 46.6052 24.6714C45.7231 25.9367 45.5314 26.0517 45.0329 25.5916C44.1892 24.7097 44.7644 23.061 45.9916 22.8693C46.5668 22.7926 47.142 22.6776 47.3338 22.6392C47.4872 22.6392 47.6022 22.7159 47.6022 22.9076ZM28.7731 24.8247C29.425 25.86 29.9619 26.8186 29.9619 26.9336C29.9619 27.087 29.2716 27.202 28.428 27.202C26.9707 27.202 26.894 27.1636 26.894 25.9367C26.894 24.7481 27.2392 22.9843 27.4693 22.9843C27.546 22.9843 28.1212 23.8278 28.7731 24.8247ZM26.3188 25.4382C26.0504 27.0486 25.9353 27.202 25.2067 26.9719C23.6728 26.5118 23.6344 26.0901 24.9766 24.7097C25.6669 23.9812 26.3188 23.4444 26.4339 23.5211C26.5106 23.5978 26.4339 24.4797 26.3188 25.4382ZM43.1538 24.0962C43.8824 24.9014 43.614 26.0517 42.6553 26.0517C42.3101 26.0134 41.2747 25.5916 40.316 25.0931C38.7054 24.2496 38.6287 24.2113 39.549 23.9812C40.5461 23.7895 41.85 23.4828 42.2718 23.4061C42.3868 23.4061 42.7703 23.6745 43.1538 24.0962ZM44.1509 23.7512C44.1509 23.9429 44.0742 24.1346 43.9975 24.1346C43.8824 24.1346 43.6907 23.9429 43.5756 23.7512C43.4606 23.5211 43.5373 23.3677 43.729 23.3677C43.9591 23.3677 44.1509 23.5211 44.1509 23.7512ZM36.9413 26.7035C37.1331 28.8891 36.6346 30.6528 35.8292 30.6528C34.9089 30.6528 31.8026 27.8921 32.2245 27.4704C32.723 26.9719 36.2127 24.9014 36.5195 24.9014C36.6729 24.9014 36.8646 25.7066 36.9413 26.7035ZM42.3868 26.8186C42.732 27.202 41.965 29.1191 41.4665 29.1191C41.2364 29.1191 38.3986 25.4382 38.3986 25.1315C38.3986 24.8631 41.9266 26.3968 42.3868 26.8186ZM40.316 29.0424C40.316 29.3492 40.0092 29.4258 39.2806 29.2725C37.8617 28.9274 37.7467 28.8124 37.5166 26.8186L37.2865 25.0931L38.7821 26.8186C39.6257 27.7771 40.316 28.774 40.316 29.0424ZM16.9234 27.1636C17.8055 27.8921 17.8438 27.9688 17.1152 27.9688C16.0798 27.9688 14.6225 26.9336 14.6225 26.2051C14.6225 25.5916 15.2361 25.8217 16.9234 27.1636ZM44.9178 26.4735C44.9178 26.6652 44.6494 26.8186 44.3426 26.8186C43.7674 26.8186 43.5756 26.3584 43.9975 25.9367C44.3043 25.6299 44.9178 25.975 44.9178 26.4735ZM30.959 28.5056C31.074 28.8124 31.1124 29.6559 31.0357 30.4228L30.9206 31.8414L29.0032 29.9243L27.1241 27.9688H28.9265C30.1537 27.9688 30.8056 28.1605 30.959 28.5056ZM33.6434 30.0393L35.139 31.343L33.6434 31.9565C32.7997 32.3015 32.1094 32.5316 32.0711 32.4932C31.7643 32.1098 31.4959 28.7357 31.8026 28.7357C31.9944 28.7357 32.7997 29.3108 33.6434 30.0393ZM35.2157 32.7616C34.9856 33.3368 33.0298 33.6052 33.0298 33.03C33.0298 32.7233 35.0239 31.8414 35.2924 32.0331C35.3691 32.1098 35.3307 32.4166 35.2157 32.7616ZM36.8646 33.8352C36.8646 34.6021 35.9059 33.7969 35.7909 32.915C35.7142 32.0331 35.7142 32.0331 36.2894 32.7233C36.5962 33.1451 36.8646 33.6435 36.8646 33.8352ZM34.5637 34.5637C34.5637 35.0622 33.6817 34.7555 33.49 34.1803C33.4133 33.9119 33.5667 33.7969 33.9502 33.9503C34.2953 34.0653 34.5637 34.372 34.5637 34.5637ZM36.2894 34.8705C36.1744 35.0622 35.9059 35.2539 35.6758 35.2539C35.4841 35.2539 35.3307 35.0622 35.3307 34.8705C35.3307 34.6404 35.5991 34.4871 35.9443 34.4871C36.2511 34.4871 36.4045 34.6404 36.2894 34.8705Z" fill="#EBFF00"/>
</g>
</g>
<defs>
<filter id="filter0_d_509_293" x="0" y="0.821442" width="53" height="43.3571" filterUnits="userSpaceOnUse" color-interpolation-filters="sRGB">
<feFlood flood-opacity="0" result="BackgroundImageFix"/>
<feColorMatrix in="SourceAlpha" type="matrix" values="0 0 0 0 0 0 0 0 0 0 0 0 0 0 0 0 0 0 127 0" result="hardAlpha"/>
<feOffset dy="4"/>
<feGaussianBlur stdDeviation="2"/>
<feComposite in2="hardAlpha" operator="out"/>
<feColorMatrix type="matrix" values="0 0 0 0 0 0 0 0 0 0 0 0 0 0 0 0 0 0 0.25 0"/>
<feBlend mode="normal" in2="BackgroundImageFix" result="effect1_dropShadow_509_293"/>
<feBlend mode="normal" in="SourceGraphic" in2="effect1_dropShadow_509_293" result="shape"/>
</filter>
</defs>
</svg>
